<?xml version="1.0" standalone="no"?>
<!DOCTYPE svg PUBLIC "-//W3C//DTD SVG 20010904//EN"
 "http://www.w3.org/TR/2001/REC-SVG-20010904/DTD/svg10.dtd">
<svg version="1.0" xmlns="http://www.w3.org/2000/svg"
 width="862.000000pt" height="862.000000pt" viewBox="0 0 862.000000 862.000000"
 preserveAspectRatio="xMidYMid meet">
<metadata>
Created by potrace 1.14, written by Peter Selinger 2001-2017
</metadata>
<g transform="translate(0.000000,862.000000) scale(0.100000,-0.100000)"
fill="#000000" stroke="none">
<path d="M4436 7189 l3 -90 82 -90 c72 -79 84 -97 106 -166 38 -122 44 -333 9
-333 -15 0 -26 -43 -26 -102 0 -65 33 -105 45 -55 4 16 13 23 28 23 19 -1 22
8 34 83 17 106 31 125 91 116 23 -3 58 -13 77 -20 29 -13 35 -21 44 -65 14
-64 14 -76 -1 -99 -10 -16 -7 -26 14 -58 14 -21 29 -48 32 -59 7 -24 43 -60
52 -52 3 4 -4 25 -16 48 -12 23 -19 48 -16 55 4 11 -18 142 -40 234 -7 34 -77
99 -130 122 -49 22 -56 30 -60 73 -2 17 -8 67 -12 111 l-9 80 40 53 c22 29 38
54 36 56 -2 2 -38 -3 -79 -10 -48 -8 -78 -9 -86 -3 -6 5 -14 36 -16 69 -3 45
-10 66 -28 85 -23 24 -64 33 -74 16 -10 -15 13 -74 44 -112 30 -38 39 -69 20
-69 -14 0 -79 35 -109 58 -19 15 -25 32 -29 74 -2 32 0 58 6 62 13 8 -8 56
-24 56 -8 0 -10 -29 -8 -91z"/>
<path d="M4844 7207 c3 -13 1 -38 -4 -55 -12 -43 -3 -41 16 3 11 26 12 41 4
55 -15 27 -23 25 -16 -3z"/>
<path d="M0 6820 c0 -55 -7 -51 122 -65 32 -4 61 -11 64 -17 4 -7 -7 -8 -32
-4 -22 3 -65 8 -96 12 l-58 6 0 -2457 0 -2458 93 7 c50 3 205 13 342 21 414
25 1351 89 1690 115 72 6 218 17 325 25 226 17 642 50 815 65 66 5 135 10 153
10 l32 0 1 -122 c0 -68 4 -132 8 -143 9 -22 -7 -63 -33 -84 -9 -8 -16 -21 -16
-30 0 -9 -15 -33 -33 -54 -35 -42 -32 -41 -272 -66 -55 -6 -199 -22 -320 -35
-121 -14 -310 -34 -420 -46 -110 -11 -236 -25 -280 -30 -65 -8 -378 -39 -655
-65 -30 -3 -127 -12 -215 -20 -238 -23 -814 -71 -1070 -90 -44 -3 -95 -8 -113
-11 l-32 -5 0 -126 0 -126 72 6 c359 29 1135 104 1373 132 72 9 213 25 315 35
102 11 201 22 220 25 19 3 76 10 125 15 119 13 312 36 405 49 221 30 513 62
525 57 11 -4 14 -21 11 -73 -4 -82 -12 -102 -40 -107 -42 -8 -380 -55 -446
-62 -25 -2 -74 -9 -110 -15 -36 -6 -85 -13 -110 -15 -25 -3 -112 -14 -195 -25
-82 -11 -204 -27 -270 -35 -66 -7 -235 -28 -375 -45 -302 -36 -391 -46 -860
-93 -195 -19 -389 -40 -430 -46 -41 -5 -91 -10 -111 -10 -20 0 -51 -3 -68 -6
l-31 -6 0 -384 c0 -300 3 -384 13 -384 91 -2 193 -13 198 -22 4 -6 14 -8 23
-5 8 3 18 2 21 -3 7 -12 3536 -7 3584 5 26 6 32 5 26 -5 -7 -12 42 -11 237 3
26 2 45 0 42 -5 -3 -4 249 -8 560 -8 l566 0 0 109 c0 102 1 109 23 119 l22 11
-23 0 c-17 1 -23 6 -20 19 6 34 158 34 180 0 6 -10 10 -10 16 0 10 15 156 35
160 21 2 -5 11 -9 20 -9 11 0 13 -3 5 -11 -5 -5 -38 -12 -71 -14 -34 -2 -69
-8 -79 -14 -16 -8 -15 -10 9 -16 15 -4 32 -4 37 0 6 3 11 2 11 -2 0 -5 -18
-16 -41 -26 -39 -17 -44 -17 -85 -1 -49 19 -158 12 -151 -9 4 -13 86 -25 150
-22 20 1 33 -2 27 -5 -6 -4 -8 -14 -5 -22 9 -22 86 -29 138 -11 54 19 55 20
22 33 -15 6 -25 14 -21 17 12 13 86 13 86 2 0 -11 15 -10 155 9 44 6 47 8 25
16 -28 9 -157 9 -172 0 -13 -8 -89 26 -82 37 3 5 19 9 35 9 21 0 28 -4 23 -12
-5 -8 -2 -9 12 -3 34 14 71 17 78 6 10 -16 46 -13 46 3 0 21 89 34 101 15 6
-10 32 -14 91 -15 97 -1 130 8 121 32 -3 8 -9 12 -12 7 -9 -13 -41 -24 -41
-14 0 5 -11 12 -25 15 -33 8 -33 25 0 18 14 -2 31 0 38 5 18 15 63 24 81 17
19 -7 21 -40 4 -48 -7 -3 3 -3 22 0 105 16 107 16 107 0 0 -9 -9 -16 -20 -16
-11 0 -29 -8 -39 -17 -16 -14 -21 -15 -27 -4 -7 11 -11 9 -20 -5 -6 -11 -11
-16 -11 -11 0 4 -10 1 -22 -7 -13 -8 -38 -17 -55 -21 -38 -8 -52 -23 -32 -36
24 -15 0 -23 -27 -9 -23 13 -30 12 -56 -3 -16 -9 -36 -17 -44 -17 -8 0 -14 -5
-14 -11 0 -6 -7 -9 -15 -6 -8 4 -17 2 -20 -3 -3 -5 3 -11 12 -13 10 -3 -8 -5
-39 -6 -32 0 -58 -5 -58 -10 0 -6 -25 -18 -55 -27 -31 -10 -54 -23 -52 -28 2
-7 44 -12 103 -13 108 -2 120 1 386 116 51 22 165 70 253 106 418 174 968 429
1420 657 110 56 223 113 250 126 28 13 58 31 67 40 16 13 18 13 24 -2 3 -9 4
-29 1 -44 -4 -21 -1 -31 13 -40 24 -15 35 0 20 27 -5 11 -10 35 -10 53 1 27 8
37 36 56 55 34 70 27 54 -27 -7 -24 -6 -31 6 -31 8 0 14 -4 14 -10 0 -5 4 -10
10 -10 6 0 6 9 0 26 -6 14 -10 40 -10 57 0 30 6 35 118 96 177 97 172 93 172
157 0 45 -3 54 -17 54 -17 1 -17 1 -1 11 16 9 18 31 18 238 l0 228 -117 7
c-216 13 -606 48 -832 75 -36 5 -81 4 -100 0 -61 -14 -71 -12 -72 19 0 15 -4
36 -9 47 -8 19 -9 19 -9 -3 -1 -21 -4 -22 -38 -16 -21 4 -41 9 -46 11 -14 8 4
23 29 23 15 0 23 4 19 10 -4 7 7 9 32 5 198 -28 789 -89 973 -100 52 -3 112
-8 133 -11 20 -3 37 -2 37 4 0 5 -53 12 -117 16 -155 9 -427 33 -528 47 -44 7
-102 14 -130 18 -38 4 -51 11 -53 25 -2 10 0 22 5 27 14 14 44 0 41 -19 -2 -8
2 -17 9 -19 7 -3 9 3 6 16 -7 27 1 27 227 1 154 -17 493 -50 528 -50 8 0 12
19 12 64 0 59 -2 65 -22 69 l-23 4 23 2 22 1 0 1813 0 1812 -22 15 c-158 100
-562 330 -581 330 -10 0 -3 -25 69 -260 87 -284 170 -597 162 -606 -3 -2 -63
21 -134 52 -143 62 -338 141 -456 184 -53 20 -78 25 -78 16 0 -7 13 -70 30
-142 42 -184 110 -537 104 -545 -2 -4 -21 1 -42 11 -38 18 -123 57 -200 91
-24 10 -40 14 -37 8 4 -5 -10 -2 -32 7 -59 26 -443 184 -588 243 -71 29 -227
88 -345 132 -118 44 -228 86 -245 94 -16 7 -97 36 -180 65 -82 28 -249 86
-370 129 -121 44 -242 86 -270 95 -503 154 -662 204 -705 221 -19 8 -60 21
-90 29 -211 57 -341 94 -450 127 -69 21 -145 43 -170 48 -83 17 -381 99 -430
118 -8 4 -20 5 -27 4 -6 -1 -14 3 -17 8 -3 5 -16 7 -29 4 -16 -3 -18 -2 -9 5
11 7 10 11 -4 16 -10 4 -21 1 -25 -5 -5 -8 -14 -8 -35 4 -49 25 -141 48 -171
42 -22 -5 -25 -4 -13 5 12 9 10 11 -12 7 -15 -2 -25 -1 -23 3 3 5 -2 11 -11
14 -23 9 -36 7 -29 -4 8 -13 -58 0 -67 13 -3 6 -22 11 -42 12 -20 1 -40 5 -43
9 -3 3 -24 6 -45 6 -26 0 -41 5 -45 16 -4 12 -8 13 -14 3 -5 -9 -11 -10 -21
-2 -15 12 -55 21 -118 27 -44 4 -158 30 -190 43 -8 3 -18 5 -22 5 -4 -1 -24 7
-44 19 -20 11 -43 18 -51 15 -8 -4 -20 -3 -26 1 -7 4 -32 8 -56 9 -24 1 -47 7
-50 13 -4 6 -20 13 -37 15 -16 2 -46 11 -68 21 -21 9 -44 14 -52 11 -7 -3 -16
0 -20 5 -3 6 -14 9 -24 6 -18 -5 -66 2 -200 27 -41 8 -82 15 -90 15 -8 0 -34
3 -57 6 -23 3 -44 2 -47 -4 -4 -5 -30 -4 -68 4 -95 20 -142 29 -152 26 -4 -1
-14 3 -22 10 -7 6 -18 8 -24 4 -5 -3 -16 -3 -22 2 -7 4 -35 8 -62 8 -30 0 -51
5 -54 13 -2 7 -13 10 -29 6 -16 -4 -28 -2 -34 7 -8 12 -10 12 -18 0 -5 -7 -14
-10 -20 -7 -6 4 -32 9 -58 11 -94 8 -219 25 -303 40 -47 9 -94 16 -105 16 -11
0 -23 5 -28 12 -6 9 -10 9 -13 0 -4 -8 -15 -8 -40 -1 -20 5 -42 7 -49 4 -7 -2
-16 -2 -20 2 -3 4 -23 7 -43 8 -60 3 -161 12 -257 23 -50 6 -133 16 -185 21
-52 6 -101 13 -107 15 -9 3 -13 -10 -13 -45z m517 -116 c-3 -3 -12 -4 -19 -1
-8 3 -5 6 6 6 11 1 17 -2 13 -5z m168 -19 l80 -14 -90 6 c-89 5 -165 22 -100
22 17 0 66 -7 110 -14z m-531 -27 c11 -76 21 -228 14 -228 -14 0 -20 22 -29
118 -5 53 -11 107 -14 120 -4 15 -1 22 9 22 9 0 17 -13 20 -32z m781 -9 c6 -6
-10 -7 -50 -3 -95 11 -121 25 -35 19 41 -3 79 -10 85 -16z m884 -130 c97 -17
182 -35 191 -39 23 -14 5 -12 -141 14 -74 14 -156 28 -184 32 -55 7 -95 23
-60 24 10 0 98 -14 194 -31z m526 -107 c-3 -3 -11 0 -18 7 -9 10 -8 11 6 5 10
-3 15 -9 12 -12z m-247 -108 c6 -64 15 -121 20 -127 5 -7 8 -21 7 -32 -1 -11
-2 -33 -3 -50 -3 -46 -19 -13 -31 65 -13 80 -21 260 -12 260 4 0 12 -52 19
-116z m667 36 c259 -55 271 -58 262 -66 -6 -7 -357 65 -497 102 -150 39 -33
21 235 -36z m120 -96 c186 -40 241 -54 208 -54 -17 0 -443 89 -476 100 -64 20
54 0 268 -46z m470 -35 c192 -45 206 -49 188 -56 -15 -5 -401 85 -423 99 -23
14 42 2 235 -43z m-17 -64 c111 -25 204 -45 207 -45 3 0 5 -4 5 -8 0 -5 -93
13 -207 39 -251 58 -243 56 -222 58 8 0 106 -19 217 -44z m287 -5 c3 -5 -3
-10 -14 -10 -11 0 -23 5 -26 10 -3 6 3 10 14 10 11 0 23 -4 26 -10z m-5 -36
c0 -9 8 -23 18 -30 16 -13 16 -13 -1 -14 -13 0 -16 -6 -12 -22 9 -38 35 -297
34 -336 0 -21 -11 16 -25 88 -14 69 -24 158 -24 199 0 45 -4 77 -11 82 -6 4
-8 16 -4 28 8 25 25 28 25 5z m360 -49 c244 -64 588 -159 765 -211 66 -20 145
-42 175 -50 30 -9 80 -24 110 -34 30 -10 132 -42 225 -70 204 -62 641 -207
855 -285 85 -31 166 -60 180 -65 154 -49 915 -358 905 -368 -4 -4 -87 26 -163
59 -24 11 -47 17 -51 15 -7 -5 -139 39 -249 83 -29 12 -56 21 -61 21 -4 0 -3
-28 2 -62 10 -64 29 -98 54 -98 7 0 13 -4 13 -10 0 -5 -10 -9 -22 -7 -26 2
-25 7 -15 -123 5 -72 5 -74 -8 -37 -8 20 -19 65 -26 100 -7 34 -16 67 -21 74
-5 7 -38 21 -74 33 -35 12 -66 26 -69 31 -8 12 1 11 69 -6 33 -9 61 -13 64
-11 2 3 1 35 -3 71 -8 76 4 68 -171 129 -322 112 -567 196 -571 196 -5 0 4
-98 14 -137 4 -17 21 -27 76 -46 45 -15 73 -30 75 -40 3 -14 -5 -13 -62 6 -36
11 -68 18 -72 14 -4 -4 1 -66 10 -139 10 -73 25 -202 35 -285 10 -84 20 -155
23 -158 3 -3 125 -35 272 -71 147 -37 265 -68 263 -70 -8 -8 -541 126 -548
138 -5 7 -9 24 -9 38 0 44 -30 223 -39 234 -14 19 -29 96 -41 211 -7 61 -17
116 -22 122 -6 7 -36 20 -68 29 -32 9 -61 23 -64 30 -7 18 -4 18 60 -3 30 -9
56 -14 60 -11 3 4 1 37 -5 75 -6 37 -8 78 -5 89 4 14 0 23 -11 28 -13 4 -16 2
-11 -9 3 -8 0 -15 -6 -15 -6 0 -113 33 -237 74 -124 41 -298 95 -386 120 -269
77 -279 81 -285 107 -4 15 -14 25 -29 27 -19 3 -22 0 -16 -18 6 -19 5 -20 -13
-9 -12 7 -20 17 -19 22 1 5 -32 20 -73 33 -135 43 -591 172 -775 219 -99 26
-197 51 -217 56 -21 5 -38 14 -38 20 0 6 8 8 18 5 9 -3 114 -30 232 -61z
m-261 22 c8 -19 27 -27 131 -52 67 -16 117 -31 112 -33 -6 -2 -61 9 -122 23
-61 15 -113 25 -115 23 -5 -5 15 -160 23 -178 4 -8 5 -42 2 -75 -5 -56 -6 -58
-12 -25 -28 129 -48 340 -33 340 3 0 9 -10 14 -23z m-861 -33 c42 -7 42 -7 41
-48 -1 -42 -3 -41 -13 6 -5 24 -12 28 -56 34 -28 4 -53 11 -57 17 -4 6 3 8 18
4 13 -3 43 -9 67 -13z m-38 -23 l35 -11 -40 5 c-22 3 -48 5 -57 5 -10 0 -18 4
-18 9 0 10 27 7 80 -8z m257 -21 c35 -8 51 -17 59 -34 9 -19 8 -23 -5 -20 -9
2 -48 10 -88 19 -40 8 -74 15 -77 15 -2 0 -7 -12 -9 -27 -4 -26 -4 -26 -6 5
-1 31 6 37 37 33 6 -1 12 3 12 9 0 13 16 13 77 0z m-159 -210 l-1 -45 -7 55
c-5 30 -8 75 -8 100 l1 45 7 -55 c5 -30 8 -75 8 -100z m49 63 c-3 -10 -5 -2
-5 17 0 19 2 27 5 18 2 -10 2 -26 0 -35z m848 -43 c3 -5 2 -10 -4 -10 -5 0
-13 5 -16 10 -3 6 -2 10 4 10 5 0 13 -4 16 -10z m-838 -42 c-3 -7 -5 -2 -5 12
0 14 2 19 5 13 2 -7 2 -19 0 -25z m1156 -8 c5 -4 -5 -11 -23 -15 -34 -7 -43
-3 -46 21 -2 12 4 14 29 9 18 -4 36 -11 40 -15z m-1206 -67 c-3 -10 -5 -4 -5
12 0 17 2 24 5 18 2 -7 2 -21 0 -30z m830 5 c-3 -8 -6 -5 -6 6 -1 11 2 17 5
13 3 -3 4 -12 1 -19z m1130 -10 c-3 -8 -6 -5 -6 6 -1 11 2 17 5 13 3 -3 4 -12
1 -19z m-557 2 c0 -5 -7 -10 -16 -10 -8 0 -12 5 -9 10 3 6 10 10 16 10 5 0 9
-4 9 -10z m86 -12 c3 -21 -16 -24 -34 -6 -18 18 -14 30 10 26 11 -2 22 -11 24
-20z m68 -14 c8 -21 3 -26 -18 -18 -9 3 -16 12 -16 20 0 19 26 18 34 -2z m53
0 c13 -4 21 -10 18 -14 -3 -4 2 -11 11 -14 8 -3 12 -2 9 4 -11 19 22 10 40
-10 17 -19 17 -20 -1 -20 -28 0 -100 27 -96 35 2 4 -2 12 -10 16 -15 10 -2 11
29 3z m383 -23 c0 11 2 11 10 -1 5 -8 10 -30 10 -48 0 -25 5 -35 20 -39 21 -6
28 -39 8 -45 -8 -3 -8 -33 0 -123 7 -65 10 -120 9 -122 -2 -1 -14 52 -27 117
-13 66 -27 120 -31 120 -3 0 -4 11 -1 25 4 23 -12 36 -20 15 -5 -15 -93 15
-96 34 -4 20 13 20 68 1 39 -14 42 -14 35 3 -4 9 -10 30 -13 47 -4 27 -3 29
12 16 13 -11 16 -11 16 0z m-244 -26 c4 -8 13 -15 22 -15 8 0 13 -2 10 -5 -9
-9 -59 6 -53 15 3 5 -1 11 -7 13 -8 3 -6 6 5 6 10 1 20 -6 23 -14z m477 -116
c45 -11 85 -24 89 -27 3 -4 8 -27 11 -52 2 -25 2 -35 0 -23 -6 32 -24 43 -115
67 -57 16 -84 28 -86 40 -4 21 3 20 101 -5z m324 -94 c114 -37 173 -60 173
-69 0 -12 -8 -12 -52 -1 -123 29 -194 48 -213 56 -11 5 -35 13 -52 18 -32 9
-33 9 -33 -21 0 -43 -6 -32 -14 25 -6 35 -4 47 6 47 7 0 90 -25 185 -55z m-70
-67 c-3 -8 -6 -5 -6 6 -1 11 2 17 5 13 3 -3 4 -12 1 -19z m830 -181 c22 -16 4
-26 -26 -14 -17 6 -28 14 -25 18 2 4 -11 7 -30 7 -40 0 -56 8 -56 27 0 11 13
9 63 -7 34 -11 68 -25 74 -31z m96 -32 c8 -8 16 -13 18 -12 3 1 2 -2 -2 -6 -8
-11 -36 2 -43 19 -7 18 9 18 27 -1z m82 -27 c21 -9 35 -28 21 -28 -16 0 -56
21 -56 30 0 13 3 13 35 -2z m-648 -20 c-3 -8 -6 -5 -6 6 -1 11 2 17 5 13 3 -3
4 -12 1 -19z m1539 -156 c-5 -4 -66 26 -66 33 0 3 16 -3 35 -12 19 -9 33 -18
31 -21z m54 -17 c14 -8 19 -14 10 -14 -8 0 -24 6 -34 14 -25 19 -9 19 24 0z
m-73 -47 c-3 -8 -6 -5 -6 6 -1 11 2 17 5 13 3 -3 4 -12 1 -19z m167 6 c16 -6
12 -24 -5 -24 -6 0 -8 4 -5 9 4 5 0 12 -6 14 -7 3 -10 6 -6 6 3 1 13 -2 22 -5z
m-2287 -30 c-3 -3 -12 -4 -19 -1 -8 3 -5 6 6 6 11 1 17 -2 13 -5z m2495 -62
c60 -28 68 -34 77 -69 11 -43 54 -295 71 -418 5 -44 12 -92 15 -107 6 -34 1
-34 -92 -7 l-71 21 -7 62 c-4 33 -23 156 -42 271 -19 116 -36 221 -37 235 -2
18 -12 28 -35 36 -17 5 -37 16 -44 23 -10 10 -8 11 7 5 13 -5 17 -4 12 4 -7
12 16 3 146 -56z m-2445 52 c-3 -3 -12 -4 -19 -1 -8 3 -5 6 6 6 11 1 17 -2 13
-5z m2080 -26 c-3 -7 -5 -2 -5 12 0 14 2 19 5 13 2 -7 2 -19 0 -25z m-2040 16
c-3 -3 -12 -4 -19 -1 -8 3 -5 6 6 6 11 1 17 -2 13 -5z m40 -10 c-3 -3 -12 -4
-19 -1 -8 3 -5 6 6 6 11 1 17 -2 13 -5z m228 -60 c44 -10 89 -18 100 -19 11
-1 27 -4 35 -8 8 -3 80 -20 159 -38 79 -18 138 -35 132 -37 -6 -2 -44 4 -83
13 -87 21 -110 26 -248 54 -140 29 -233 52 -244 62 -9 8 2 6 149 -27z m1192
-21 c-3 -10 -5 -2 -5 17 0 19 2 27 5 18 2 -10 2 -26 0 -35z m768 -31 c-3 -3
-11 0 -18 7 -9 10 -8 11 6 5 10 -3 15 -9 12 -12z m-758 -39 c-3 -10 -5 -4 -5
12 0 17 2 24 5 18 2 -7 2 -21 0 -30z m828 17 c3 -6 -1 -7 -9 -4 -18 7 -21 14
-7 14 6 0 13 -4 16 -10z m-1557 -125 l1 -20 -9 20 c-5 11 -8 34 -8 50 l0 30 8
-30 c4 -16 8 -39 8 -50z m739 28 c-3 -10 -5 -2 -5 17 0 19 2 27 5 18 2 -10 2
-26 0 -35z m10 -80 c-3 -10 -5 -2 -5 17 0 19 2 27 5 18 2 -10 2 -26 0 -35z
m-750 5 c-3 -8 -6 -5 -6 6 -1 11 2 17 5 13 3 -3 4 -12 1 -19z m598 -8 c25 -11
-1 -11 -35 0 -20 6 -21 8 -5 8 11 0 29 -3 40 -8z m110 -31 c14 -6 9 -7 -15 -3
-19 4 -44 11 -55 15 -14 6 -9 7 15 3 19 -4 44 -11 55 -15z m-698 -41 c-2 -13
-4 -5 -4 17 -1 22 1 32 4 23 2 -10 2 -28 0 -40z m790 16 c-3 -3 -12 -4 -19 -1
-8 3 -5 6 6 6 11 1 17 -2 13 -5z m80 -20 c-3 -3 -12 -4 -19 -1 -8 3 -5 6 6 6
11 1 17 -2 13 -5z m-860 -81 c-3 -10 -5 -2 -5 17 0 19 2 27 5 18 2 -10 2 -26
0 -35z m-357 -158 c85 -13 247 -37 360 -54 216 -32 345 -57 370 -72 14 -8 -67
-3 -97 6 -6 2 -14 -3 -17 -12 -5 -12 -16 -15 -54 -10 -100 12 -182 29 -176 38
4 8 -37 13 -83 12 -7 -1 -13 3 -13 8 0 5 -13 8 -29 7 -16 -1 -35 3 -43 8 -7 6
-26 10 -43 9 -16 -1 -35 2 -42 7 -7 5 -16 7 -22 4 -5 -3 -40 1 -78 10 -61 15
-94 18 -200 23 -49 2 -43 32 7 39 3 1 75 -10 160 -23z m327 9 c-3 -3 -12 -4
-19 -1 -8 3 -5 6 6 6 11 1 17 -2 13 -5z m142 -20 c10 -9 -56 -3 -69 7 -11 7
-4 8 25 3 22 -4 42 -8 44 -10z m1630 -15 c34 -12 64 -26 67 -33 2 -6 10 -57
17 -113 15 -119 20 -113 -83 -84 l-65 18 -12 84 c-16 115 -16 149 0 149 7 0
41 -10 76 -21z m-1546 5 c20 -4 37 -11 37 -16 0 -6 -7 -7 -17 -4 -9 4 -32 9
-52 12 -20 3 -38 8 -40 10 -6 6 28 5 72 -2z m1426 -20 c14 -12 -12 -12 -45 1
l-39 15 40 -7 c22 -3 42 -7 44 -9z m-1086 -111 c-7 -2 -19 -2 -25 0 -7 3 -2 5
12 5 14 0 19 -2 13 -5z m113 -14 c129 -23 214 -43 214 -51 0 -8 -15 -6 -77 9
-16 3 -32 7 -38 8 -5 2 -39 8 -75 15 -36 6 -78 15 -95 20 -46 12 1 12 71 -1z
m1134 -116 c48 -13 62 -21 66 -40 4 -13 4 -26 1 -29 -6 -6 -121 23 -149 38
-10 5 -18 18 -18 28 0 25 21 25 100 3z m78 -177 c8 -8 50 -501 56 -666 4 -91
9 -173 12 -182 4 -12 0 -18 -10 -18 -11 0 -16 10 -16 33 0 17 -5 39 -10 47 -7
11 -10 2 -10 -33 0 -58 -22 -61 -31 -4 -9 55 -19 57 -19 4 0 -35 -4 -47 -15
-47 -11 0 -15 11 -15 39 0 22 -4 43 -10 46 -6 4 -10 -12 -10 -39 0 -25 -4 -46
-8 -46 -5 0 -12 67 -15 149 -4 82 -15 242 -26 357 -11 115 -22 250 -26 300
l-6 90 77 -13 c43 -7 79 -15 82 -17z m-4258 -356 c6 -11 8 -25 4 -31 -5 -8
-34 32 -34 47 0 12 21 1 30 -16z m45 -282 c15 -18 25 -42 25 -61 l0 -32 -16
30 c-8 17 -23 39 -33 50 -9 11 -23 28 -30 37 -23 30 27 9 54 -24z m49 -210 c4
-17 2 -28 -4 -28 -5 0 -10 14 -10 32 0 36 4 35 14 -4z m-5 -150 c24 -192 31
-219 62 -257 28 -34 41 -67 17 -43 -16 16 -28 15 -28 -1 0 -7 -9 -13 -20 -13
-16 0 -20 7 -20 36 -1 19 -7 62 -15 95 -8 33 -15 85 -15 115 0 30 -5 75 -11
99 -5 24 -7 51 -4 58 11 30 22 0 34 -89z m4191 87 c0 -8 -4 -15 -9 -15 -5 0
-11 7 -15 15 -3 9 0 15 9 15 8 0 15 -7 15 -15z m50 -1 c0 -17 -22 -14 -28 4
-2 7 3 12 12 12 9 0 16 -7 16 -16z m-4584 -180 c-3 -9 -6 -20 -6 -25 0 -6 -4
-8 -9 -5 -12 8 -2 46 11 46 6 0 7 -7 4 -16z m1634 -118 c0 -2 -9 -6 -20 -9
-11 -3 -18 -1 -14 4 5 9 34 13 34 5z m50 -6 c31 -17 60 -76 84 -172 21 -86 25
-93 47 -91 79 6 294 26 414 38 77 8 212 21 300 30 88 8 206 20 262 27 109 12
117 11 326 -22 154 -24 206 -38 147 -40 -29 -1 -31 -3 -15 -10 11 -5 56 -6
100 -3 56 4 122 -1 220 -16 308 -48 275 -39 275 -70 0 -27 -3 -29 -67 -40
-123 -21 -563 -89 -908 -140 -466 -70 -455 -68 -471 -88 -7 -10 -14 -22 -14
-28 -1 -20 -40 -56 -57 -53 -13 2 -19 -5 -21 -26 -2 -16 2 -32 9 -37 14 -9 90
-3 161 12 26 6 100 19 165 29 113 18 302 50 613 104 80 14 186 32 235 41 50 8
113 20 140 25 172 34 208 40 214 35 3 -3 4 -22 2 -41 -1 -18 2 -34 7 -34 4 0
7 14 4 30 -4 26 -1 30 19 30 40 0 69 -12 69 -26 0 -8 4 -14 10 -14 5 0 7 7 3
16 -4 12 0 14 23 8 16 -4 32 -9 37 -11 9 -5 9 -33 -1 -33 -4 0 -39 -7 -77 -15
-39 -9 -124 -26 -190 -40 -66 -13 -264 -53 -440 -88 -336 -68 -480 -96 -760
-147 -93 -17 -199 -37 -233 -43 l-64 -12 -43 -83 c-40 -78 -65 -117 -52 -80 8
22 -78 -35 -87 -58 -6 -17 4 -16 47 1 26 11 21 -6 -23 -74 -39 -60 -50 -104
-30 -116 6 -3 17 1 26 9 8 9 20 16 25 16 13 0 11 -18 -3 -23 -7 -2 -1 -8 15
-12 25 -7 38 -25 18 -25 -5 0 -7 -9 -4 -20 3 -11 0 -20 -6 -20 -6 0 -11 8 -11
18 0 14 -8 17 -37 17 -44 -2 -103 -14 -118 -25 -5 -4 -30 -6 -55 -5 -31 1 -49
-3 -57 -14 -11 -14 -14 -14 -23 -1 -26 39 1 59 92 65 34 2 64 8 66 14 2 6 10
11 18 11 8 0 14 5 14 10 0 6 -5 10 -12 10 -9 0 -9 3 0 12 8 8 4 20 -17 47 -35
45 -63 100 -101 198 -26 66 -29 84 -24 147 5 71 38 152 59 149 5 -1 13 -16 18
-34 8 -29 11 -31 40 -25 18 4 50 9 72 12 87 10 180 27 188 34 7 6 47 140 47
158 0 5 -23 5 -52 0 -180 -29 -363 -46 -376 -35 -8 6 -23 16 -35 22 -11 5 -30
23 -41 38 -18 24 -22 48 -27 165 -9 199 -46 370 -87 402 -26 21 -23 26 8 10z
m1277 -12 c7 -5 11 -14 8 -18 -3 -5 5 -11 17 -13 22 -4 22 -4 -2 -6 -14 0 -97
-8 -185 -16 -142 -13 -161 -13 -171 0 -6 8 -19 15 -28 15 -15 0 -18 4 -20 33
-1 6 15 15 34 18 57 9 333 -1 347 -13z m-2072 -38 c7 -12 -38 -12 -75 0 -20 7
-16 8 22 9 26 1 50 -3 53 -9z m1370 -22 c-4 -18 -8 -34 -10 -36 -2 -2 -136
-15 -330 -31 -110 -9 -131 -7 -106 8 10 7 9 10 -3 14 -9 4 -16 13 -16 20 0 18
41 23 270 38 96 6 177 12 179 15 14 14 22 0 16 -28z m2335 -33 c0 -30 -4 -55
-10 -55 -5 0 -10 25 -10 55 0 30 5 55 10 55 6 0 10 -25 10 -55z m-40 -6 c0
-66 -24 -62 -28 4 -2 37 0 47 12 47 12 0 16 -12 16 -51z m-1060 -9 c222 -35
292 -42 371 -36 68 5 79 4 79 -10 0 -12 -6 -15 -22 -11 -12 4 -28 1 -35 -4 -8
-8 -43 -6 -115 5 -218 33 -365 55 -418 61 -30 4 -62 11 -70 16 -18 11 52 4
210 -21z m-2008 0 c20 -15 28 -16 38 -7 10 10 11 7 5 -13 -4 -14 -8 -26 -9
-26 0 -1 -29 -4 -63 -6 -56 -4 -63 -2 -63 14 0 10 -4 18 -10 18 -5 0 -10 6
-10 14 0 9 13 16 33 19 17 2 37 5 43 5 6 1 22 -7 36 -18z m-267 -32 c32 -15
33 -38 0 -38 -14 0 -25 4 -25 9 0 5 -3 16 -6 25 -7 19 -3 20 31 4z m2769 -3
c3 -8 1 -15 -3 -15 -5 0 -11 7 -15 15 -3 8 -1 15 3 15 5 0 11 -7 15 -15z m436
5 c0 -5 -5 -10 -11 -10 -5 0 -7 5 -4 10 3 6 8 10 11 10 2 0 4 -4 4 -10z
m-3100 -20 c0 -5 -7 -10 -15 -10 -8 0 -15 5 -15 10 0 6 7 10 15 10 8 0 15 -4
15 -10z m-831 -14 c17 -20 5 -24 -79 -27 -92 -3 -102 -6 -95 -29 3 -10 1 -21
-5 -25 -5 -3 -10 -16 -11 -28 0 -12 -3 -16 -6 -9 -3 7 -2 38 2 67 l6 54 57 4
c31 2 71 4 88 5 17 1 37 -4 43 -12z m3511 -6 c0 -5 -4 -10 -10 -10 -5 0 -10 5
-10 10 0 6 5 10 10 10 6 0 10 -4 10 -10z m-3795 -18 c0 -18 -20 -15 -23 4 -3
10 1 15 10 12 7 -3 13 -10 13 -16z m4345 -12 c0 -16 5 -30 10 -30 6 0 10 14
10 30 0 46 18 36 22 -12 l3 -43 55 -6 c30 -3 109 -12 175 -19 66 -7 123 -16
127 -20 9 -7 -17 -5 -197 16 -71 8 -152 17 -180 20 -27 3 -58 8 -67 10 -22 6
-24 34 -3 34 9 0 15 9 15 25 0 16 6 25 15 25 10 0 15 -10 15 -30z m-4455 11
c9 -15 -15 -25 -65 -27 -122 -6 -249 -15 -286 -20 -32 -4 -43 -1 -48 11 -8 21
0 23 129 33 153 13 263 14 270 3z m3982 3 c-3 -3 -12 -4 -19 -1 -8 3 -5 6 6 6
11 1 17 -2 13 -5z m-4797 -58 c0 -8 -3 -17 -7 -19 -5 -3 -64 -8 -133 -12 -69
-4 -143 -9 -165 -10 -22 -2 -94 -6 -160 -9 -66 -4 -136 -9 -155 -11 -19 -3
-89 -7 -155 -10 -66 -3 -132 -8 -148 -11 -19 -4 -29 -1 -33 11 -4 9 -4 19 0
22 5 5 775 57 919 62 26 1 37 -3 37 -13z m2219 -108 c-1 -149 -25 -235 -49
-173 -18 47 -50 85 -73 86 -17 1 -18 2 -5 6 13 3 16 10 10 21 -4 9 -7 42 -7
72 l1 55 54 6 c30 3 58 6 63 7 4 1 7 -35 6 -80z m2429 59 c53 -4 55 -20 5 -29
-21 -5 -48 -10 -60 -13 -19 -4 -23 -1 -23 18 0 27 7 37 23 32 7 -3 31 -6 55
-8z m-2808 -42 c0 -13 10 -44 21 -69 33 -68 28 -72 -111 -86 -99 -11 -120 -16
-118 -28 2 -12 22 -17 88 -20 47 -2 89 -7 93 -12 5 -4 5 -48 0 -96 l-8 -89
-32 -3 c-18 -2 -33 -9 -33 -15 0 -20 36 -67 86 -114 l49 -44 68 6 c68 7 69 7
65 -16 -3 -21 -7 -24 -43 -21 -45 4 -45 2 8 -27 43 -24 61 -19 53 14 -4 14 0
28 9 35 8 7 15 17 15 22 0 5 8 28 19 51 10 23 21 66 23 95 l5 52 -35 0 -35 0
5 71 c3 39 10 74 16 78 5 3 11 15 13 26 5 26 78 36 80 11 3 -29 4 -34 11 -41
4 -4 -4 -27 -19 -52 -23 -39 -24 -46 -10 -61 36 -42 38 -58 16 -134 -11 -40
-23 -84 -26 -98 -3 -14 -23 -51 -44 -84 -22 -32 -39 -62 -39 -67 0 -15 -16
-10 -95 27 -78 37 -145 95 -168 146 -6 15 -15 28 -19 28 -7 0 -68 84 -68 94 0
3 9 6 19 6 29 0 32 13 14 59 -13 33 -19 39 -30 30 -10 -9 -18 -7 -35 7 l-21
19 5 -45 c3 -25 7 -52 9 -60 3 -11 -17 -17 -96 -27 -55 -7 -167 -22 -250 -32
-82 -11 -182 -23 -222 -27 l-72 -6 6 23 c4 13 11 28 17 32 6 5 -8 6 -31 3 -24
-4 -43 -3 -43 2 0 9 58 32 82 32 8 0 23 9 32 19 17 19 17 20 -17 42 -36 24
-59 70 -52 104 2 11 6 52 8 91 6 100 16 114 80 114 29 0 101 5 160 11 59 6
110 9 113 7 2 -3 7 -41 11 -86 5 -74 8 -81 29 -85 23 -4 23 -4 18 84 -6 100
-11 94 79 102 l58 6 -3 -92 -3 -92 -49 -5 c-46 -5 -48 -6 -25 -17 13 -6 45
-14 72 -16 54 -5 50 -17 47 125 l-2 96 69 7 c37 3 75 8 83 9 8 2 34 4 58 5 38
1 42 -1 42 -24z m-3390 -5 c0 -14 -7 -19 -27 -19 -16 0 -53 -2 -83 -5 -30 -2
-102 -7 -160 -10 -58 -3 -143 -8 -190 -11 -99 -6 -233 -13 -410 -21 -69 -3
-136 -7 -150 -7 -16 -1 -26 4 -28 15 -4 22 7 23 528 48 234 12 432 23 440 24
8 2 30 4 48 5 26 1 32 -3 32 -19z m80 16 c0 -3 -4 -8 -10 -11 -5 -3 -10 -1
-10 4 0 6 5 11 10 11 6 0 10 -2 10 -4z m6460 -37 c69 -12 128 -23 132 -26 10
-6 10 -41 1 -46 -5 -2 -46 1 -93 8 -47 7 -111 16 -142 19 -49 6 -58 11 -67 34
-9 21 -10 22 -7 5 3 -14 -1 -23 -9 -23 -11 0 -27 44 -19 53 5 5 71 -3 204 -24z
m-4061 -146 c-2 -65 -7 -123 -12 -130 -5 -7 -5 -18 -1 -25 7 -11 16 -86 15
-133 0 -26 -36 -55 -67 -55 -13 0 -27 0 -31 -1 -19 -1 -12 31 11 55 27 26 31
75 8 98 -8 8 -7 17 3 32 9 13 14 49 14 96 0 41 3 99 7 128 6 47 9 52 31 52
l25 0 -3 -117z m3758 41 c2 -7 -8 -12 -24 -12 -34 0 -45 6 -37 19 8 13 56 7
61 -7z m145 -30 c5 -3 8 -14 8 -25 0 -16 -7 -19 -45 -19 -44 0 -45 1 -45 31 0
31 1 31 37 24 21 -4 41 -9 45 -11z m-2808 -16 c-4 -6 -8 -28 -8 -47 -1 -50
-19 -54 -31 -7 -8 33 -6 40 10 52 23 17 39 18 29 2z m-94 -12 c0 -2 3 -12 7
-22 4 -12 3 -15 -5 -10 -7 4 -12 5 -12 1 0 -3 11 -10 23 -14 18 -7 28 -24 41
-71 10 -34 16 -63 14 -65 -3 -3 -141 -25 -159 -25 -8 0 -10 19 -7 68 6 69 31
128 58 136 22 6 40 7 40 2z m3020 -176 c0 -5 -4 -10 -10 -10 -5 0 -10 5 -10
10 0 6 5 10 10 10 6 0 10 -4 10 -10z m-3900 -9 c0 -6 -5 -13 -10 -16 -15 -9
-43 3 -35 15 8 13 45 13 45 1z m4004 0 c7 -10 -43 -25 -52 -16 -7 7 18 25 35
25 6 0 14 -4 17 -9z m-66 -32 c10 -15 11 -24 3 -32 -8 -8 -11 -5 -11 11 0 12
-4 22 -10 22 -5 0 -10 5 -10 10 0 17 14 11 28 -11z m336 -1 c11 -41 7 -54 -8
-32 -13 16 -18 17 -35 6 -25 -15 -26 -9 -5 23 20 31 40 32 48 3z m-491 -8 c12
-11 -61 -20 -86 -10 l-22 8 25 10 c25 10 68 6 83 -8z m717 -9 c0 -26 -12 -32
-49 -25 -34 7 -42 24 -12 24 11 0 23 5 26 10 11 17 35 11 35 -9z m90 -1 c0
-13 -5 -18 -15 -14 -9 4 -15 0 -15 -10 0 -9 -8 -16 -20 -16 -29 0 -25 12 13
37 40 27 37 27 37 3z m-190 0 c0 -5 -4 -10 -10 -10 -5 0 -10 5 -10 10 0 6 5
10 10 10 6 0 10 -4 10 -10z m272 -17 c10 -12 7 -14 -17 -11 -18 2 -31 10 -33
20 -4 20 31 14 50 -9z m-1035 6 c-14 -8 -15 -14 -7 -24 7 -9 8 -15 1 -19 -6
-4 -8 -13 -5 -20 3 -7 -3 -16 -13 -19 -10 -2 -25 -8 -34 -11 -13 -6 -15 -2
-11 20 3 19 1 25 -7 20 -6 -4 -11 -16 -11 -26 0 -22 -16 -35 -25 -21 -3 6 -12
8 -20 4 -11 -4 -13 -1 -9 11 7 19 -7 21 -24 4 -9 -9 -12 -9 -12 0 0 7 5 12 10
12 6 0 10 8 10 19 0 10 8 21 18 25 9 3 23 9 31 12 10 5 12 2 9 -8 -9 -22 51
-10 65 13 7 11 21 19 32 19 19 -1 19 -1 2 -11z m1226 -8 c4 -5 -28 -8 -72 -8
-78 1 -90 4 -73 21 8 9 134 -2 145 -13z m-1134 -7 c1 -1 -4 -13 -13 -26 -22
-31 -20 -35 14 -30 37 5 39 -9 3 -25 -19 -9 -30 -10 -39 -2 -7 6 -19 7 -25 3
-9 -5 -10 -2 -6 9 4 12 2 14 -10 10 -11 -4 -14 -1 -11 13 2 11 11 18 21 16 19
-3 24 14 5 20 -6 2 -8 10 -4 16 6 10 51 8 65 -4z m66 0 c15 -15 17 -15 34 0
26 24 51 20 51 -7 0 -35 -21 -57 -45 -47 -18 8 -18 9 5 9 23 1 23 2 7 18 -16
16 -18 16 -31 -2 -12 -17 -16 -17 -31 -5 -13 11 -18 11 -25 1 -5 -9 -10 -10
-14 -2 -4 6 -2 11 3 11 6 0 11 9 11 20 0 24 13 26 35 4z m115 -13 c0 -5 9 -11
21 -14 28 -8 16 -26 -14 -20 -22 4 -37 43 -16 43 5 0 9 -4 9 -9z m-460 -20 c0
-3 -4 -12 -9 -19 -6 -10 -10 -10 -20 2 -15 18 -6 37 14 29 8 -3 15 -8 15 -12z
m540 9 c0 -5 -4 -10 -10 -10 -5 0 -10 5 -10 10 0 6 5 10 10 10 6 0 10 -4 10
-10z m66 -1 c3 -6 19 -9 35 -7 22 3 29 0 29 -11 -1 -43 -42 -53 -57 -14 -4 10
-14 23 -22 30 -10 8 -11 12 -4 13 6 0 15 -5 19 -11z m232 -6 c-2 -10 -10 -18
-18 -18 -8 0 -20 -7 -27 -15 -7 -8 -13 -10 -13 -5 0 17 33 55 48 55 8 0 12 -8
10 -17z m92 7 c0 -5 -7 -10 -15 -10 -8 0 -15 5 -15 10 0 6 7 10 15 10 8 0 15
-4 15 -10z m-60 -12 c0 -17 -18 -44 -24 -37 -8 7 5 49 15 49 5 0 9 -6 9 -12z
m-120 -8 c0 -5 -4 -10 -10 -10 -5 0 -10 5 -10 10 0 6 5 10 10 10 6 0 10 -4 10
-10z m410 -2 c0 -16 -48 -39 -56 -27 -3 5 1 9 9 9 8 0 17 7 21 15 7 18 26 20
26 3z m-1274 -13 c-27 -21 -53 -20 -36 0 7 8 22 15 34 15 21 -1 21 -1 2 -15z
m1101 -5 c3 -11 9 -20 13 -20 4 0 10 -9 13 -21 4 -16 10 -19 28 -14 14 5 19 4
15 -4 -4 -6 -23 -11 -42 -11 -19 0 -34 -5 -34 -11 0 -8 -4 -8 -14 0 -12 10
-15 58 -7 99 3 11 24 -2 28 -18z m-1023 1 c3 -5 -1 -12 -10 -15 -22 -9 -24 -8
-24 9 0 16 25 21 34 6z m1256 -48 l-23 -16 24 -13 c13 -7 18 -13 11 -14 -7 0
-25 12 -40 27 -15 15 -34 26 -42 24 -27 -5 1 14 43 30 41 16 42 16 45 -3 2
-12 -5 -26 -18 -35z m-460 37 c0 -5 -4 -10 -10 -10 -5 0 -10 5 -10 10 0 6 5
10 10 10 6 0 10 -4 10 -10z m143 -21 c-3 -11 -11 -18 -18 -15 -7 2 -22 -2 -34
-10 -18 -13 -21 -13 -21 0 0 14 60 56 72 50 3 -2 4 -13 1 -25z m147 21 c0 -5
-4 -10 -10 -10 -5 0 -10 5 -10 10 0 6 5 10 10 10 6 0 10 -4 10 -10z m-672 -20
c-11 -17 -10 -22 0 -29 11 -7 10 -9 -3 -14 -11 -5 -18 1 -24 16 -10 24 3 47
25 47 12 0 12 -4 2 -20z m442 10 c0 -5 -4 -10 -10 -10 -5 0 -10 5 -10 10 0 6
5 10 10 10 6 0 10 -4 10 -10z m510 6 c0 -2 -9 -6 -20 -9 -11 -3 -20 -1 -20 4
0 5 9 9 20 9 11 0 20 -2 20 -4z m-1567 -23 c-3 -10 -20 -30 -37 -45 -24 -21
-27 -27 -13 -28 18 0 25 -40 7 -40 -5 0 -10 -6 -10 -13 0 -8 -9 -22 -20 -32
-11 -10 -17 -22 -14 -27 3 -5 -7 -6 -23 -3 l-28 6 23 -19 c22 -21 28 -37 15
-45 -5 -2 -1 -1 7 1 8 3 32 7 54 8 21 1 43 7 49 13 24 24 35 10 12 -15 -13
-14 -29 -23 -35 -19 -6 4 -34 4 -62 0 -30 -4 -46 -10 -38 -15 7 -4 9 -13 6
-19 -10 -15 -26 -14 -26 3 0 7 -9 16 -20 19 -11 3 -20 12 -20 21 0 14 -4 13
-29 -5 -16 -12 -34 -18 -40 -15 -14 9 -14 46 0 46 5 0 7 -4 4 -10 -3 -5 3 -10
15 -10 12 0 19 4 16 9 -3 5 8 11 24 15 17 3 30 11 30 17 0 6 -9 9 -20 6 -22
-6 -28 8 -7 16 6 3 3 6 -8 6 -12 1 -26 -4 -32 -10 -6 -6 -25 -8 -46 -4 -28 6
-36 11 -34 26 4 26 17 36 26 21 4 -7 36 -14 74 -17 l66 -4 3 32 c2 26 7 32 26
31 12 0 22 3 22 8 0 4 -4 8 -10 8 -21 0 -9 38 14 44 27 7 44 36 20 36 -8 0
-17 -6 -20 -14 -3 -8 -15 -11 -30 -8 -32 6 -23 14 29 28 66 18 87 17 80 -3z
m104 -8 c2 -11 0 -14 -3 -7 -8 17 -24 15 -24 -3 0 -8 -9 -15 -20 -15 -11 0
-20 7 -20 15 0 8 7 15 15 15 8 0 15 5 15 11 0 19 35 4 37 -16z m285 3 c-6 -6
-15 -8 -19 -4 -4 4 -1 11 7 16 19 12 27 3 12 -12z m451 15 c-7 -2 -19 -2 -25
0 -7 3 -2 5 12 5 14 0 19 -2 13 -5z m-353 -13 c0 -5 -7 -10 -15 -10 -8 0 -15
5 -15 10 0 6 7 10 15 10 8 0 15 -4 15 -10z m470 -27 c0 -8 -13 -13 -31 -13
-24 0 -30 3 -25 16 3 9 6 19 6 24 0 4 11 3 25 -3 14 -7 25 -18 25 -24z m50 27
c0 -5 -4 -10 -10 -10 -5 0 -10 5 -10 10 0 6 5 10 10 10 6 0 10 -4 10 -10z
m170 6 c0 -3 -4 -8 -10 -11 -5 -3 -10 -1 -10 4 0 6 5 11 10 11 6 0 10 -2 10
-4z m-748 -38 c-4 -17 -2 -20 11 -15 13 5 17 1 17 -18 0 -14 5 -25 10 -25 6 0
10 7 10 15 0 9 9 15 25 15 18 0 25 5 25 20 0 14 6 20 23 19 19 0 20 -2 6 -11
-14 -10 -14 -14 -2 -40 10 -20 20 -27 32 -23 11 3 22 -4 34 -24 12 -21 22 -28
37 -24 14 4 20 0 20 -12 0 -10 -5 -15 -14 -12 -7 3 -18 1 -24 -5 -8 -8 -13 -7
-18 5 -3 9 -10 14 -15 11 -5 -3 -9 -1 -9 4 0 5 -23 8 -50 8 -37 -1 -49 2 -45
12 6 17 -23 28 -37 14 -11 -11 -66 -5 -81 8 -5 4 -4 17 2 29 10 17 9 21 -4 21
-20 0 -19 12 5 38 24 26 50 20 42 -10z m-577 12 c-3 -6 4 -14 16 -18 14 -5 18
-11 11 -16 -6 -3 -14 -1 -17 4 -5 7 -11 6 -19 -5 -14 -20 -48 -10 -44 13 2 9
14 19 28 23 14 4 26 7 28 8 2 1 0 -4 -3 -9z m427 1 l28 -6 -26 -54 c-14 -30
-29 -49 -33 -44 -3 5 -14 12 -23 16 -20 7 -24 32 -7 43 6 3 15 0 20 -7 10 -17
23 -5 15 16 -5 14 -8 14 -35 0 -38 -19 -41 -19 -41 3 0 38 34 49 102 33z m598
-5 c0 -2 -3 -11 -6 -20 -7 -17 -34 -22 -34 -6 0 6 5 10 11 10 5 0 7 5 4 10 -3
6 1 10 9 10 9 0 16 -2 16 -4z m-80 -27 c0 -5 -6 -9 -14 -9 -8 0 -21 -9 -29
-21 -10 -14 -17 -17 -22 -9 -5 8 -13 6 -26 -6 -12 -11 -19 -13 -19 -5 0 14
-31 11 -42 -4 -5 -6 -12 -4 -18 5 -6 10 -6 16 3 18 7 2 19 6 27 9 8 3 33 7 54
9 23 1 43 9 48 18 9 15 38 12 38 -5z m-3271 -15 c23 -29 28 -64 9 -64 -6 0 -1
-11 12 -25 20 -21 25 -23 30 -10 5 13 8 12 23 -5 16 -19 16 -20 -4 -20 -11 0
-28 -4 -38 -10 -10 -5 -65 -16 -122 -25 -57 -8 -142 -22 -189 -30 -91 -16
-327 -52 -560 -85 -80 -11 -155 -22 -168 -24 -36 -5 -40 23 -6 49 16 13 43 35
59 50 17 15 49 36 71 46 23 10 44 25 47 32 7 18 105 44 197 52 41 4 92 11 113
16 21 6 71 14 110 19 88 11 266 38 327 49 25 5 50 9 57 10 6 0 21 -11 32 -25z
m2241 0 c0 -14 11 -18 44 -14 10 1 16 -3 12 -8 -9 -14 -45 -22 -52 -11 -4 6
-11 6 -19 -1 -14 -11 -65 3 -65 18 0 10 62 40 73 34 4 -2 7 -10 7 -18z m330
17 c0 -5 -9 -11 -21 -14 -16 -4 -18 -3 -8 9 13 16 29 19 29 5z m40 -1 c0 -5
-4 -10 -10 -10 -5 0 -10 5 -10 10 0 6 5 10 10 10 6 0 10 -4 10 -10z m-457 -12
c-4 -7 -8 -17 -8 -22 0 -19 -23 -16 -28 3 -3 15 1 21 17 24 11 2 22 5 24 6 2
0 0 -5 -5 -11z m317 2 c0 -5 -4 -10 -10 -10 -5 0 -10 5 -10 10 0 6 5 10 10 10
6 0 10 -4 10 -10z m365 -26 c5 -16 14 -32 19 -35 5 -4 5 -12 2 -18 -5 -7 2
-11 18 -11 14 0 28 -5 32 -12 5 -8 -5 -10 -37 -6 -24 3 -38 3 -30 1 11 -5 11
-7 0 -15 -11 -8 -10 -9 4 -4 12 4 17 0 18 -17 1 -17 2 -18 6 -4 6 23 25 22 41
-4 12 -18 11 -23 -7 -36 -12 -8 -21 -18 -21 -24 0 -13 37 -11 46 2 4 7 10 7
16 1 5 -5 18 -8 28 -5 15 4 16 10 9 41 -5 24 -4 40 3 47 8 7 9 6 4 -2 -4 -8 3
-15 21 -18 15 -4 38 -10 51 -15 17 -7 22 -6 22 5 0 8 6 15 14 15 16 0 30 -43
16 -48 -6 -2 -7 -8 -4 -14 3 -5 -2 -16 -12 -23 -14 -11 -15 -14 -4 -15 10 0
11 -3 3 -11 -13 -13 -63 -19 -63 -8 0 5 6 9 13 9 8 0 14 12 14 30 0 22 -5 30
-19 30 -10 0 -18 -7 -18 -15 0 -9 -9 -15 -21 -15 -16 0 -19 -3 -11 -13 7 -8 7
-17 -1 -28 -13 -17 -60 -32 -70 -23 -9 10 16 44 33 44 13 0 13 2 1 9 -8 5 -24
6 -36 1 -15 -6 -28 -3 -46 11 -13 10 -32 19 -41 19 -9 0 -20 5 -23 10 -3 6 -1
10 4 10 6 0 11 5 11 10 0 6 -9 10 -20 10 -22 0 -26 -10 -8 -28 8 -8 8 -15 -2
-27 -18 -21 -25 -19 -40 13 -12 26 -12 26 -20 5 -5 -12 -21 -24 -39 -28 -17
-4 -31 -10 -31 -15 0 -4 -22 -11 -50 -15 -52 -7 -64 -19 -30 -30 23 -7 26 -23
6 -31 -8 -3 -12 -13 -9 -25 3 -10 2 -19 -2 -19 -11 0 -34 27 -28 34 3 3 -3 8
-13 12 -10 3 -29 10 -41 16 -24 12 -43 4 -43 -18 0 -8 -4 -14 -9 -14 -6 0 -22
-12 -38 -26 -15 -14 -29 -21 -31 -15 -2 6 -13 11 -25 12 -22 0 -22 0 1 9 29
12 30 50 1 50 -12 0 -19 5 -16 13 2 6 14 12 26 11 16 0 20 4 16 17 -3 9 0 21
7 25 6 4 14 2 16 -4 5 -15 42 -16 42 -2 0 6 -6 10 -14 10 -16 0 -31 18 -22 27
3 3 16 -1 29 -10 15 -10 29 -12 38 -6 24 15 29 10 18 -15 -13 -27 -52 -48 -74
-40 -11 5 -15 -1 -15 -22 0 -16 4 -24 8 -18 15 22 74 43 103 37 18 -3 29 -1
29 6 0 6 -7 11 -15 11 -19 0 -20 46 -1 53 9 4 12 14 9 26 -4 15 2 24 21 32 30
14 32 25 9 51 -22 24 -5 41 31 32 26 -6 37 -24 15 -24 -7 0 -9 -10 -7 -25 3
-14 1 -25 -6 -25 -20 0 -34 -15 -41 -43 -6 -23 -5 -26 9 -21 10 4 15 12 12 19
-5 15 45 26 66 14 14 -7 148 31 148 43 0 4 -12 14 -26 21 l-27 14 33 7 c18 3
35 4 38 1 3 -3 -2 -5 -11 -5 -9 0 -17 -4 -17 -10 0 -11 39 -14 41 -2 4 23 6
72 3 72 -1 0 -14 -4 -27 -9 -34 -13 -39 -5 -13 24 26 30 38 27 51 -11z m755
26 c0 -5 -2 -10 -4 -10 -3 0 -8 5 -11 10 -3 6 -1 10 4 10 6 0 11 -4 11 -10z
m408 4 c24 -7 31 -24 9 -24 -15 0 -57 29 -42 30 6 0 20 -3 33 -6z m-1898 -30
c0 -12 -6 -15 -26 -10 -25 7 -54 -7 -54 -24 0 -5 8 -11 18 -13 13 -4 12 -5 -5
-6 -19 -1 -21 -4 -13 -31 8 -28 7 -30 -16 -30 -21 0 -23 3 -14 19 16 32 12 42
-14 35 -21 -5 -24 -3 -19 15 5 21 23 30 23 11 0 -5 5 -10 11 -10 6 0 9 8 7 18
-3 12 6 20 32 28 51 17 70 16 70 -2z m1707 10 c-3 -3 -12 -4 -19 -1 -8 3 -5 6
6 6 11 1 17 -2 13 -5z m130 0 c-3 -3 -12 -4 -19 -1 -8 3 -5 6 6 6 11 1 17 -2
13 -5z m223 -4 c-8 -5 -19 -10 -25 -10 -5 0 -3 5 5 10 8 5 20 10 25 10 6 0 3
-5 -5 -10z m-3843 -96 c-22 -55 -29 -63 -85 -91 -2 -1 1 -11 8 -22 16 -30 1
-26 -37 11 -49 47 -44 64 18 63 46 0 52 3 69 30 9 17 24 48 31 70 10 31 14 35
17 19 2 -12 -8 -48 -21 -80z m2353 80 c0 -11 -5 -14 -17 -10 -9 4 -20 1 -25
-6 -6 -10 -8 -8 -8 5 0 20 -11 22 -28 5 -6 -6 -15 -8 -19 -4 -12 12 19 26 60
26 27 0 37 -4 37 -16z m1403 9 c-7 -2 -19 -2 -25 0 -7 3 -2 5 12 5 14 0 19 -2
13 -5z m-777 -40 c-10 -10 -19 5 -10 18 6 11 8 11 12 0 2 -7 1 -15 -2 -18z
m874 18 c0 -15 -42 -41 -67 -41 -12 0 -25 -5 -28 -11 -4 -6 -13 -8 -20 -5 -7
2 -18 -1 -24 -7 -8 -8 -11 -8 -11 1 0 7 -15 12 -36 12 -28 0 -35 -3 -32 -17 2
-13 11 -17 31 -15 15 2 27 -1 27 -7 0 -6 -18 -11 -41 -11 -24 0 -38 4 -34 10
3 6 -1 10 -9 10 -21 0 -21 16 0 24 8 3 13 10 10 15 -5 8 33 15 147 25 21 2 43
8 50 15 13 13 37 15 37 2z m-3790 -16 c0 -8 -7 -15 -15 -15 -9 0 -12 6 -9 15
4 8 10 15 15 15 5 0 9 -7 9 -15z m2960 5 c0 -5 -5 -10 -11 -10 -5 0 -7 5 -4
10 3 6 8 10 11 10 2 0 4 -4 4 -10z m93 3 c-18 -7 -16 -23 2 -23 8 0 15 -4 15
-10 0 -5 -10 -10 -22 -10 -12 0 -18 3 -15 7 4 3 0 15 -10 25 -15 17 -15 18 13
17 16 0 23 -3 17 -6z m-164 -19 c2 -2 1 -10 -2 -19 -11 -28 -97 -14 -97 16 0
16 82 18 99 3z m-1329 -4 c0 -5 -15 -10 -32 -10 -25 0 -29 3 -18 10 20 13 50
13 50 0z m728 -12 c-19 -28 -38 -35 -38 -13 0 9 4 14 9 11 5 -3 11 1 15 9 3 8
11 15 17 15 8 0 7 -7 -3 -22z m847 2 c3 -5 13 -6 23 -4 22 5 53 -15 35 -23 -7
-2 -13 -11 -13 -19 0 -8 -3 -14 -8 -14 -4 0 -30 -21 -57 -46 l-50 -45 38 3
c20 2 37 0 37 -4 0 -4 -11 -8 -25 -8 -13 0 -28 -8 -34 -17 -8 -15 -11 -15 -27
-3 -11 10 -34 14 -68 12 -37 -3 -48 -1 -40 7 6 6 32 13 57 14 49 2 61 14 34
31 -11 7 -23 6 -41 -3 -14 -8 -35 -11 -50 -7 -16 4 -38 0 -55 -9 -26 -13 -33
-13 -57 0 -15 8 -40 11 -56 8 -17 -3 -28 -1 -28 5 0 12 15 15 157 33 51 6 108
9 127 6 39 -6 51 0 34 20 -9 11 -7 15 10 19 23 7 39 37 23 42 -6 2 -11 7 -11
12 0 10 38 1 45 -10z m-1721 -15 c-5 -21 -3 -24 11 -18 12 4 23 0 31 -12 13
-17 14 -18 14 -1 0 13 5 16 23 11 30 -10 39 -19 32 -37 -8 -19 -95 -21 -95 -1
0 16 -5 16 -29 1 -14 -9 -23 -8 -42 5 -13 10 -18 17 -11 17 6 0 12 5 12 10 0
6 -6 10 -14 10 -16 0 -31 18 -23 26 3 3 15 1 26 -6 12 -6 21 -7 20 -3 -3 18 2
23 26 23 22 0 25 -3 19 -25z m350 8 c-15 -5 12 -62 32 -70 21 -8 17 -33 -5
-33 -15 0 -18 5 -14 21 5 19 4 20 -15 10 -28 -15 -37 -31 -18 -31 10 0 16 -9
16 -21 0 -14 -5 -19 -14 -16 -11 5 -13 0 -5 -25 4 -17 7 -34 6 -38 -1 -4 3 -8
8 -9 19 -2 45 10 45 20 0 6 9 7 22 4 16 -6 20 -4 15 8 -7 19 34 41 62 32 12
-4 21 -2 21 4 0 6 4 11 9 11 21 0 -4 -43 -30 -52 -16 -5 -29 -15 -29 -20 0 -6
6 -6 14 1 11 10 16 8 24 -5 6 -11 17 -15 31 -11 13 3 21 0 21 -8 0 -9 -19 -14
-62 -17 -52 -2 -62 0 -66 15 -2 9 -9 17 -14 17 -6 0 -8 -6 -5 -13 2 -7 -6 -18
-19 -24 -20 -9 -27 -7 -47 11 -18 17 -26 19 -35 10 -12 -13 -52 -8 -52 7 0 5
9 9 19 9 14 0 18 5 14 20 -3 11 -10 20 -16 20 -5 0 -21 12 -34 26 -19 20 -21
29 -12 40 6 8 20 14 31 14 16 0 18 -3 10 -13 -8 -10 -6 -16 9 -25 18 -11 19
-9 19 29 0 24 -6 47 -14 53 -10 8 -12 18 -5 34 7 20 14 23 38 17 17 -4 32 -2
36 5 4 6 10 8 14 4 3 -4 1 -9 -5 -11z m303 -8 c-10 -7 -15 -19 -11 -29 4 -12
0 -16 -15 -16 -12 0 -21 5 -21 11 0 14 52 60 60 53 3 -3 -3 -11 -13 -19z m65
10 c0 -5 -5 -11 -11 -13 -6 -2 -11 4 -11 13 0 9 5 15 11 13 6 -2 11 -8 11 -13z
m204 0 c7 -17 -14 -48 -26 -40 -10 6 0 55 11 55 6 0 12 -7 15 -15z m904 7 c0
-13 -12 -22 -22 -16 -10 6 -1 24 13 24 5 0 9 -4 9 -8z m-584 -29 c-10 -10 -19
5 -10 18 6 11 8 11 12 0 2 -7 1 -15 -2 -18z m829 17 c-3 -5 -19 -10 -35 -10
-16 0 -32 5 -35 10 -4 6 10 10 35 10 25 0 39 -4 35 -10z m-528 -6 c-3 -3 -12
-4 -19 -1 -8 3 -5 6 6 6 11 1 17 -2 13 -5z m-4223 -18 c-6 -16 -87 -76 -103
-76 -19 0 -12 11 32 51 42 38 81 52 71 25z m2581 -47 c-4 -32 -2 -39 12 -39
13 0 14 -3 5 -12 -27 -27 -5 -71 23 -48 8 7 19 10 26 8 16 -5 -21 -46 -46 -50
-17 -3 -20 3 -23 40 -2 28 -7 42 -15 39 -7 -2 -11 -14 -10 -26 3 -27 -23 -28
-32 -2 -3 11 -3 31 1 46 7 27 -20 70 -37 59 -5 -3 -9 0 -9 5 0 14 11 14 44 1
21 -8 27 -6 35 9 6 10 7 22 3 27 -4 5 1 2 10 -5 13 -10 16 -23 13 -52z m1395
57 c0 -3 -4 -8 -10 -11 -5 -3 -10 -1 -10 4 0 6 5 11 10 11 6 0 10 -2 10 -4z
m-590 -21 c-7 -8 -16 -15 -21 -15 -5 0 -9 7 -9 15 0 9 9 15 21 15 18 0 19 -2
9 -15z m460 5 c0 -5 -4 -10 -10 -10 -5 0 -10 5 -10 10 0 6 5 10 10 10 6 0 10
-4 10 -10z m744 -14 c-9 -23 -33 -28 -27 -5 3 10 11 19 19 19 7 0 11 -6 8 -14z
m-444 -6 c0 -5 -9 -10 -20 -10 -11 0 -20 5 -20 10 0 6 9 10 20 10 11 0 20 -4
20 -10z m337 4 c-3 -3 -12 -4 -19 -1 -8 3 -5 6 6 6 11 1 17 -2 13 -5z m-4827
-23 c0 -5 -7 -14 -15 -21 -8 -7 -27 -34 -42 -61 -32 -60 -57 -65 -61 -11 -1
20 -3 48 -5 61 -1 19 4 26 23 32 36 10 100 10 100 0z m4190 -12 c0 -18 -2 -19
-15 -9 -15 12 -12 30 6 30 5 0 9 -10 9 -21z m250 5 c0 -2 -16 -4 -36 -4 -19 0
-33 4 -30 8 5 8 66 4 66 -4z m-1610 -9 c0 -8 -7 -15 -16 -15 -13 0 -14 -3 -5
-14 9 -11 7 -15 -9 -19 -13 -3 -20 0 -20 8 0 7 -3 20 -6 28 -4 11 2 17 23 20
15 2 29 5 31 6 1 0 2 -6 2 -14z m140 5 c0 -5 -4 -10 -10 -10 -5 0 -10 5 -10
10 0 6 5 10 10 10 6 0 10 -4 10 -10z m1840 0 c0 -5 -4 -10 -10 -10 -5 0 -10 5
-10 10 0 6 5 10 10 10 6 0 10 -4 10 -10z m120 0 c0 -5 -5 -10 -11 -10 -5 0 -7
5 -4 10 3 6 8 10 11 10 2 0 4 -4 4 -10z m-2365 -10 c3 -5 -3 -10 -14 -10 -11
0 -23 -5 -26 -10 -4 -6 -11 -7 -17 -4 -6 4 -1 12 13 20 29 16 36 17 44 4z
m116 -16 c-20 -14 -51 -9 -51 8 0 6 7 8 15 4 8 -3 15 -1 15 3 0 5 9 7 20 4 21
-5 21 -6 1 -19z m363 11 c4 -10 -1 -15 -14 -15 -20 0 -26 11 -13 23 10 11 20
8 27 -8z m126 11 c0 -2 -7 -9 -15 -16 -13 -11 -14 -10 -9 4 5 14 24 23 24 12z
m1605 -6 c3 -5 -1 -10 -10 -10 -9 0 -13 5 -10 10 3 6 8 10 10 10 2 0 7 -4 10
-10z m432 4 c-3 -3 -12 -4 -19 -1 -8 3 -5 6 6 6 11 1 17 -2 13 -5z m-147 -14
c0 -5 -4 -10 -10 -10 -5 0 -10 5 -10 10 0 6 5 10 10 10 6 0 10 -4 10 -10z
m-1535 -10 c3 -5 -1 -10 -9 -10 -9 0 -16 5 -16 10 0 6 4 10 9 10 6 0 13 -4 16
-10z m1665 0 c0 -5 -5 -10 -11 -10 -5 0 -7 5 -4 10 3 6 8 10 11 10 2 0 4 -4 4
-10z m-1158 -32 c20 6 43 6 58 0 24 -9 24 -10 6 -24 -23 -16 -40 -19 -31 -4
10 16 -27 25 -39 9 -14 -17 -68 -19 -73 -1 -3 6 1 12 7 12 7 0 9 9 5 23 l-6
22 20 -23 c17 -20 25 -22 53 -14z m-592 18 c0 -9 -40 -13 -46 -5 -3 5 6 9 20
9 14 0 26 -2 26 -4z m-355 -16 c-3 -5 -11 -10 -16 -10 -6 0 -7 5 -4 10 3 6 11
10 16 10 6 0 7 -4 4 -10z m310 -20 c0 -7 -6 -15 -12 -17 -8 -3 -13 4 -13 17 0
13 5 20 13 18 6 -3 12 -11 12 -18z m1865 -1 c0 -11 -45 -23 -62 -16 -7 3 -3 6
10 6 12 1 22 7 22 16 0 9 6 12 15 9 8 -4 15 -10 15 -15z m-2970 7 c0 -3 -4 -8
-10 -11 -5 -3 -10 -1 -10 4 0 6 5 11 10 11 6 0 10 -2 10 -4z m190 0 c0 -2 -7
-7 -16 -10 -8 -3 -12 -2 -9 4 6 10 25 14 25 6z m140 -6 c0 -5 -5 -10 -11 -10
-5 0 -7 5 -4 10 3 6 8 10 11 10 2 0 4 -4 4 -10z m430 6 c0 -2 3 -12 7 -21 5
-14 2 -16 -17 -10 -20 6 -22 4 -18 -18 6 -31 -15 -43 -33 -20 -11 13 -10 18 9
33 12 10 22 23 22 29 0 6 7 11 15 11 8 0 15 -2 15 -4z m1819 -32 c-15 -18 -22
-13 -13 10 3 9 10 13 16 10 5 -3 4 -12 -3 -20z m-2069 3 c0 -7 -5 -18 -10 -23
-7 -7 -6 -11 5 -11 8 0 15 4 15 9 0 19 28 6 41 -19 8 -16 20 -34 27 -42 15
-15 80 -23 88 -9 3 4 18 8 34 8 17 0 33 7 39 18 8 14 13 15 30 5 16 -10 25
-10 47 2 19 9 33 11 45 4 23 -12 39 -12 19 1 -8 5 -11 12 -7 16 4 4 12 3 18
-3 15 -15 1 -56 -17 -49 -7 3 -16 1 -19 -3 -7 -12 -55 -20 -55 -10 0 14 -27
10 -40 -6 -10 -12 -16 -13 -27 -3 -10 8 -17 8 -21 1 -10 -15 -60 -25 -67 -13
-7 11 -45 13 -69 4 -24 -9 -19 -26 5 -19 19 6 20 4 15 -23 -6 -26 -4 -31 25
-43 l33 -13 -27 -7 c-30 -8 -67 -1 -67 12 0 5 -7 9 -15 9 -8 0 -15 5 -15 10 0
6 7 10 15 10 21 0 19 13 -6 28 -14 9 -24 10 -33 3 -7 -6 -29 -8 -49 -4 -23 3
-42 1 -52 -7 -24 -20 -29 -4 -11 34 15 32 20 35 53 33 22 -1 38 3 40 11 4 9
-2 11 -20 7 -16 -4 -30 -1 -41 10 -21 21 -22 59 -1 51 8 -3 14 -2 14 2 -3 19
2 23 16 12 12 -10 15 -10 15 4 0 9 7 16 15 16 8 0 15 -6 15 -13z m340 9 c0
-11 -19 -15 -25 -6 -3 5 1 10 9 10 9 0 16 -2 16 -4z m78 -14 c3 -9 -2 -13 -14
-10 -9 1 -19 9 -22 16 -3 9 2 13 14 10 9 -1 19 -9 22 -16z m840 3 c4 -9 23
-16 45 -17 35 -1 43 -18 9 -18 -9 0 -26 -7 -36 -15 -27 -21 -39 -19 -31 5 7
23 8 23 -33 9 -18 -6 -29 -15 -26 -20 3 -5 10 -7 15 -4 12 8 40 -20 31 -30 -4
-5 3 -5 16 -2 35 8 22 -15 -13 -25 -17 -4 -34 -3 -39 2 -5 5 -16 5 -25 0 -10
-5 -23 -3 -36 6 -19 14 -19 14 1 14 13 0 20 7 21 20 1 11 -2 20 -6 20 -5 0
-11 8 -13 18 -5 17 0 18 43 14 45 -4 49 -3 49 17 0 24 15 28 28 6z m-135 -15
c3 -11 1 -23 -5 -26 -5 -3 -8 -15 -5 -25 4 -15 0 -19 -21 -19 -43 0 -72 11
-72 27 0 12 8 14 36 8 25 -4 34 -3 29 4 -9 16 4 51 20 51 7 0 15 -9 18 -20z
m-1234 -5 c-9 -9 -23 -13 -32 -9 -28 10 -19 24 15 24 29 0 31 -2 17 -15z
m1579 -22 c-2 -17 -9 -28 -18 -28 -9 0 -14 7 -12 18 3 16 -2 17 -35 11 -26 -4
-35 -3 -28 4 10 10 39 18 78 21 14 1 18 -5 15 -26z m78 21 c15 -4 20 -11 17
-25 -6 -23 -23 -26 -23 -4 0 8 -9 15 -20 15 -11 0 -20 5 -20 10 0 11 15 12 46
4z m-1089 -30 c14 -13 14 -17 2 -25 -18 -12 -26 -11 -34 1 -7 12 0 40 10 40 4
0 14 -7 22 -16z m1713 6 c0 -5 -5 -10 -11 -10 -5 0 -7 5 -4 10 3 6 8 10 11 10
2 0 4 -4 4 -10z m-2404 -18 c-2 -10 -7 -32 -11 -49 -4 -19 -13 -33 -21 -33 -8
0 -14 4 -14 8 0 4 -16 15 -35 24 -19 8 -35 12 -35 7 0 -5 4 -9 8 -9 18 0 -6
-82 -28 -95 -20 -12 -23 4 -6 29 18 28 22 76 6 76 -5 0 -10 7 -10 15 0 9 9 15
23 15 12 0 30 7 40 14 10 8 34 14 53 14 27 0 34 -3 30 -16z m49 8 c3 -5 15
-10 25 -10 16 0 18 -4 11 -22 -5 -13 -5 -32 -1 -43 9 -24 -8 -55 -27 -48 -8 3
-11 14 -7 28 4 15 0 24 -10 28 -10 4 -16 19 -16 42 0 34 12 46 25 25z m-500
-10 c-3 -5 -13 -10 -21 -10 -8 0 -14 5 -14 10 0 6 9 10 21 10 11 0 17 -4 14
-10z m1605 6 c0 -2 -7 -6 -15 -10 -8 -3 -15 -1 -15 4 0 6 7 10 15 10 8 0 15
-2 15 -4z m700 -6 c0 -14 134 -13 181 1 30 9 42 9 53 0 11 -9 20 -10 35 -2 11
6 30 11 43 10 19 0 16 -3 -12 -13 -19 -7 -35 -18 -34 -24 3 -38 5 -40 25 -35
17 5 20 2 17 -13 -2 -11 -13 -20 -26 -22 -24 -4 -31 -22 -7 -22 22 0 18 -21
-5 -27 -21 -6 -24 -32 -5 -45 6 -4 1 -8 -10 -8 -11 1 -29 7 -39 15 -11 8 -14
15 -8 15 14 0 16 46 2 55 -18 11 -11 22 21 35 28 12 29 14 12 24 -23 13 -61
17 -68 7 -7 -12 -55 -1 -55 13 0 7 -22 11 -60 11 -50 0 -60 -3 -60 -17 0 -12
8 -18 21 -18 11 0 17 -4 14 -10 -3 -5 -38 -10 -77 -10 -57 0 -68 2 -59 13 6 8
23 12 41 9 23 -3 30 0 30 12 0 12 -11 16 -42 18 l-43 1 43 4 c25 3 45 10 49
19 6 16 23 19 23 4z m-668 -15 c0 -5 -5 -11 -11 -13 -6 -2 -11 4 -11 13 0 9 5
15 11 13 6 -2 11 -8 11 -13z m-442 -12 c0 -2 -7 -18 -16 -34 -12 -24 -20 -30
-38 -25 -13 3 -32 -1 -45 -10 -17 -12 -25 -13 -36 -4 -8 6 -23 9 -35 5 -14 -5
-20 -2 -20 10 0 22 25 29 61 16 27 -9 37 -7 73 14 22 14 35 25 28 25 -7 0 -11
4 -7 10 5 8 35 3 35 -7z m70 2 c11 4 20 2 20 -4 0 -5 -8 -11 -19 -13 -15 -2
-17 -7 -10 -27 9 -22 13 -23 62 -18 52 5 43 -5 -15 -17 -22 -5 -28 -12 -28
-31 0 -33 29 -33 67 -2 15 13 36 26 46 30 19 7 23 27 5 27 -7 0 -6 6 4 18 8 9
18 25 21 35 7 19 15 21 36 8 10 -7 11 -13 2 -30 -7 -12 -9 -26 -6 -31 3 -6 1
-10 -4 -10 -6 0 -11 -7 -11 -16 0 -11 -6 -15 -20 -11 -21 5 -78 -39 -65 -51 4
-4 15 3 25 15 16 20 21 21 54 11 20 -6 36 -15 36 -20 0 -4 10 -7 23 -7 16 1
18 2 5 6 -19 5 -26 53 -8 53 6 0 10 -5 10 -11 0 -7 12 -9 32 -7 18 3 46 1 62
-3 33 -10 55 -1 35 13 -10 7 -9 8 5 4 10 -4 25 -1 32 5 15 13 17 9 8 -15 -3
-9 -12 -16 -18 -16 -7 0 -21 -7 -32 -15 -18 -15 -18 -15 9 -9 18 4 27 2 27 -6
0 -9 6 -8 18 3 25 23 28 22 41 -14 14 -40 14 -39 -3 -39 -8 0 -16 -6 -19 -12
-3 -7 -10 -1 -16 15 -6 16 -15 26 -19 23 -5 -3 -26 -1 -47 5 -21 6 -63 8 -97
4 -63 -8 -71 -16 -17 -17 19 -1 49 -9 66 -19 32 -18 33 -18 52 2 20 22 38 11
27 -16 -4 -12 -22 -14 -85 -10 -63 3 -80 1 -85 -10 -6 -17 -42 -20 -51 -6 -3
5 5 11 17 13 12 2 24 9 26 17 4 11 0 12 -14 6 -11 -4 -33 -10 -51 -13 -22 -3
-30 -8 -26 -18 6 -17 2 -17 -31 -4 -19 7 -29 6 -40 -5 -17 -18 -99 -20 -166
-4 -39 9 -46 8 -58 -8 -8 -12 -15 -14 -20 -7 -11 17 -52 24 -52 9 0 -7 6 -15
12 -17 7 -3 -7 -8 -31 -12 -28 -4 -50 -15 -59 -27 -8 -11 -20 -18 -26 -16 -7
3 -21 -8 -31 -23 -20 -30 -50 -44 -69 -33 -19 12 -57 9 -52 -4 4 -9 -5 -13
-29 -13 -19 0 -35 4 -35 9 0 5 -28 8 -61 6 -45 -1 -64 -6 -71 -19 -14 -25 -78
-49 -94 -35 -20 17 -17 28 11 41 30 14 23 28 -15 28 -16 0 -31 4 -34 9 -10 16
21 32 48 25 22 -5 26 -3 26 14 0 19 6 21 60 19 33 -1 60 -5 60 -9 0 -4 -8 -8
-18 -8 -9 0 -23 -9 -30 -20 -11 -18 -10 -20 17 -20 16 0 36 7 45 15 16 17 37
19 52 6 16 -15 50 6 67 42 11 23 28 39 48 46 19 6 28 15 23 22 -4 7 -2 10 7 7
8 -3 13 -13 13 -22 -2 -13 1 -14 11 -6 9 8 15 8 20 0 8 -13 -3 -30 -20 -30 -8
0 -16 -4 -20 -9 -3 -5 11 -5 32 1 21 6 41 15 45 22 4 6 13 11 19 11 27 0 18
24 -11 30 -22 5 -30 11 -26 22 3 8 6 19 6 24 0 5 7 9 16 9 14 0 14 -3 4 -15
-7 -8 -9 -15 -4 -15 5 0 19 -3 32 -6 16 -5 22 -2 22 9 0 9 5 19 12 23 7 4 8 3
4 -5 -10 -16 18 -41 47 -41 14 0 28 7 31 16 5 14 8 14 21 0 16 -16 81 -12 100
7 7 6 -3 7 -27 3 -31 -6 -38 -4 -38 9 0 8 5 15 12 15 6 0 31 10 56 21 37 18
43 25 38 44 -4 15 -1 25 8 28 17 7 11 41 -10 58 -21 18 -17 31 6 19 12 -6 30
-8 40 -5z m85 5 c-3 -5 -10 -10 -16 -10 -5 0 -9 5 -9 10 0 6 7 10 16 10 8 0
12 -4 9 -10z m670 0 c-3 -5 -13 -10 -21 -10 -8 0 -12 5 -9 10 3 6 13 10 21 10
8 0 12 -4 9 -10z m-1762 -11 c29 -16 28 -14 21 -33 -8 -20 -54 -22 -54 -2 0 8
-5 16 -12 18 -13 5 -2 28 13 28 6 0 20 -5 32 -11z m1142 1 c-3 -5 -16 -10 -28
-9 -21 0 -21 1 -2 9 28 12 37 12 30 0z m318 -10 c-6 -21 -18 -26 -28 -11 -4 7
17 28 32 31 0 0 -1 -9 -4 -20z m27 -4 c0 -3 -4 -8 -10 -11 -5 -3 -10 -1 -10 4
0 6 5 11 10 11 6 0 10 -2 10 -4z m425 -6 c3 -5 1 -10 -4 -10 -6 0 -11 5 -11
10 0 6 2 10 4 10 3 0 8 -4 11 -10z m-1595 -10 c0 -5 -4 -10 -10 -10 -5 0 -10
5 -10 10 0 6 5 10 10 10 6 0 10 -4 10 -10z m765 0 c-3 -5 -17 -10 -31 -10 -13
0 -24 5 -24 10 0 6 14 10 31 10 17 0 28 -4 24 -10z m335 0 c0 -5 -14 -10 -31
-10 -17 0 -28 4 -24 10 3 6 17 10 31 10 13 0 24 -4 24 -10z m250 -20 c23 15
50 12 50 -5 0 -8 9 -15 19 -15 26 0 51 -10 51 -21 0 -5 -22 -9 -50 -9 -38 0
-50 4 -50 15 0 20 -26 19 -34 -1 -11 -29 -6 -54 14 -66 32 -20 23 -27 -19 -16
-29 7 -38 14 -34 25 5 13 2 13 -15 4 -15 -8 -22 -8 -22 -1 0 5 6 10 13 10 6 0
18 4 26 9 12 8 12 12 2 25 -9 11 -10 16 -2 16 6 0 11 5 11 11 0 5 -6 7 -12 3
-9 -5 -8 -2 1 9 9 12 17 14 25 8 7 -6 17 -6 26 -1z m510 -10 c-33 -26 -94 -44
-155 -44 -27 -1 -55 -4 -61 -8 -7 -5 -14 -1 -18 7 -7 20 30 40 48 26 26 -22
124 -9 169 23 32 22 46 19 17 -4z m-874 -10 c-21 -11 -44 -16 -50 -13 -6 4 7
13 29 19 58 18 65 16 21 -6z m-2276 0 c0 -5 -7 -10 -16 -10 -8 0 -12 5 -9 10
3 6 10 10 16 10 5 0 9 -4 9 -10z m2842 -20 c14 0 19 -3 12 -10 -5 -5 -26 -7
-47 -3 -28 4 -37 10 -37 25 0 19 1 19 25 4 13 -9 34 -16 47 -16z m344 0 c-1
-16 -6 -30 -12 -30 -6 0 -9 13 -6 30 6 39 19 39 18 0z m-2475 -3 c-13 -13 -26
-3 -16 12 3 6 11 8 17 5 6 -4 6 -10 -1 -17z m289 19 c0 -3 -4 -8 -10 -11 -5
-3 -10 -1 -10 4 0 6 5 11 10 11 6 0 10 -2 10 -4z m636 -11 c18 -14 17 -14 -12
-15 -17 0 -46 -3 -64 -7 -25 -5 -32 -3 -28 8 3 8 15 15 27 15 12 1 24 4 28 8
10 10 28 7 49 -9z m273 -8 c12 -15 5 -27 -15 -27 -7 0 -12 9 -11 20 2 23 10
25 26 7z m-579 -12 c0 -8 -4 -15 -10 -15 -5 0 -10 7 -10 15 0 8 5 15 10 15 6
0 10 -7 10 -15z m-1129 -48 c-7 -7 -12 -5 -17 6 -5 13 -10 14 -25 6 -18 -9
-19 -8 -7 10 17 27 52 32 56 7 2 -10 -1 -23 -7 -29z m2293 32 c-18 -6 -18 -7
-2 -14 10 -4 15 -11 12 -17 -3 -5 -14 -2 -26 8 -18 17 -18 19 -2 31 9 7 22 9
27 6 6 -4 2 -10 -9 -14z m-789 5 c14 -6 13 -8 -5 -21 -17 -12 -23 -12 -40 0
-31 22 2 37 45 21z m1395 -4 c0 -5 -7 -10 -16 -10 -8 0 -12 5 -9 10 3 6 10 10
16 10 5 0 9 -4 9 -10z m-1275 -10 c3 -5 -3 -10 -14 -10 -12 0 -21 5 -21 10 0
6 6 10 14 10 8 0 18 -4 21 -10z m-1136 -9 c8 -5 9 -11 3 -15 -6 -3 -13 -2 -17
3 -4 7 -15 7 -32 0 -29 -11 -45 -3 -23 11 19 12 51 12 69 1z m231 -1 c0 -5 -7
-10 -15 -10 -8 0 -15 5 -15 10 0 6 7 10 15 10 8 0 15 -4 15 -10z m-1215 -14
c13 5 16 3 13 -7 -5 -14 -78 -27 -78 -13 0 13 35 33 41 23 3 -5 14 -7 24 -3z
m345 6 c0 -11 -61 -32 -92 -32 -14 0 -31 -7 -38 -15 -7 -8 -21 -15 -32 -15
-29 0 -18 33 12 37 14 2 34 5 45 7 11 1 27 5 35 8 46 19 70 22 70 10z m1288 2
c12 -4 22 -12 22 -19 0 -8 6 -15 13 -18 6 -2 4 -3 -6 -1 -10 1 -25 -8 -33 -22
-17 -25 -39 -23 -29 3 4 12 3 13 -8 5 -8 -7 -16 -10 -19 -7 -8 8 -33 -25 -33
-44 0 -10 -10 -17 -27 -19 -32 -4 -39 17 -8 25 11 3 20 14 20 24 0 11 5 19 11
19 8 0 8 4 0 14 -10 12 -7 18 16 30 31 17 47 19 81 10z m100 -12 c-6 -20 27
-48 50 -44 6 2 12 -2 12 -8 0 -5 -6 -10 -14 -10 -8 0 -21 -2 -28 -5 -9 -4 -20
8 -31 33 -21 48 -21 52 -1 52 11 0 15 -6 12 -18z m77 -22 l19 -21 -29 7 c-35
9 -59 30 -50 44 8 12 33 0 60 -30z m1444 10 c-15 -10 -41 -1 -34 10 3 5 14 6
26 3 15 -4 17 -8 8 -13z m231 -15 c-15 -19 -50 -20 -50 -2 0 18 42 38 54 26 5
-5 4 -14 -4 -24z m-2440 15 c0 -5 -4 -10 -10 -10 -5 0 -10 5 -10 10 0 6 5 10
10 10 6 0 10 -4 10 -10z m341 -13 c-13 -13 -26 -3 -16 12 3 6 11 8 17 5 6 -4
6 -10 -1 -17z m658 2 c-16 -10 -23 -4 -14 10 3 6 11 8 17 5 6 -4 5 -9 -3 -15z
m-1715 -34 c-10 -19 -25 -37 -33 -40 -18 -7 -45 25 -33 37 14 14 77 46 81 42
2 -2 -4 -20 -15 -39z m2546 35 c0 -5 -4 -10 -10 -10 -5 0 -10 5 -10 10 0 6 5
10 10 10 6 0 10 -4 10 -10z m-3144 -35 c-3 -8 -10 -15 -15 -15 -5 0 -4 11 2
25 12 25 23 16 13 -10z m-66 -3 c0 -14 -2 -14 -17 0 -10 9 -25 13 -33 11 -12
-4 -12 -3 -1 5 18 13 51 3 51 -16z m1830 14 c0 -20 -23 -26 -37 -10 -10 10
-10 14 0 17 23 10 37 7 37 -7z m1654 -1 c-17 -14 -14 -15 36 -8 30 3 60 6 65
5 6 -1 32 -4 58 -8 40 -6 50 -4 62 12 13 18 15 18 31 2 16 -16 16 -17 -7 -22
-66 -13 -118 -15 -122 -3 -3 9 -10 7 -24 -5 -11 -10 -25 -18 -31 -18 -8 0 -10
-9 -6 -25 6 -25 5 -25 -20 -14 -17 8 -26 20 -26 36 0 18 -4 22 -14 16 -17 -9
-156 -5 -156 5 0 4 26 8 58 9 39 1 60 7 67 17 5 9 19 16 29 16 20 0 20 0 0
-15z m-3140 -14 c4 -5 0 -11 -6 -14 -19 -6 -49 4 -42 14 7 12 41 12 48 0z
m146 -1 c0 -5 -2 -10 -4 -10 -3 0 -8 5 -11 10 -3 6 -1 10 4 10 6 0 11 -4 11
-10z m1015 0 c8 -13 -20 -24 -41 -16 -20 8 -9 26 16 26 10 0 22 -5 25 -10z
m555 -5 c0 -7 8 -19 18 -24 16 -10 16 -12 -2 -26 -15 -11 -23 -12 -30 -4 -8 8
-7 13 2 16 17 6 15 23 -3 23 -9 0 -12 6 -9 15 8 19 24 20 24 0z m-1482 -28
c-7 -14 -13 -17 -16 -9 -6 19 6 44 18 37 7 -4 6 -14 -2 -28z m207 23 c-3 -5
-13 -10 -21 -10 -8 0 -14 -7 -14 -15 0 -8 -7 -15 -15 -15 -8 0 -15 5 -15 11 0
8 -5 7 -16 -2 -13 -10 -17 -10 -25 2 -12 19 -11 29 1 29 6 0 10 -6 10 -12 0
-10 3 -9 9 1 5 8 16 11 30 6 12 -4 21 -2 21 4 0 6 9 11 21 11 11 0 17 -4 14
-10z m623 -10 c-7 -11 -16 -20 -20 -20 -11 0 -10 9 5 25 18 21 29 18 15 -5z
m1636 7 c17 -12 17 -14 2 -20 -9 -4 -16 -2 -16 3 0 6 -4 10 -10 10 -5 0 -10
-7 -10 -16 0 -9 -7 -14 -17 -12 -25 5 -26 22 -1 34 31 16 32 16 52 1z m206 4
c0 -5 10 -7 23 -4 21 4 22 4 3 -11 -27 -22 -41 -20 -43 4 -1 11 2 20 8 20 5 0
9 -4 9 -9z m70 5 c0 -3 -4 -8 -10 -11 -5 -3 -10 -1 -10 4 0 6 5 11 10 11 6 0
10 -2 10 -4z m515 -6 c4 -6 -5 -9 -19 -8 -15 1 -26 6 -26 10 0 12 38 10 45 -2z
m-2199 -15 l29 -15 -32 0 c-23 0 -33 5 -33 15 0 18 1 18 36 0z m309 5 c3 -6
-1 -13 -10 -16 -19 -8 -30 0 -20 15 8 14 22 14 30 1z m1239 2 c2 -4 -4 -13
-15 -20 -15 -10 -19 -10 -19 1 0 24 23 36 34 19z m-2364 -12 c0 -21 -24 -60
-37 -60 -8 0 -21 7 -29 15 -14 13 -12 15 11 15 18 0 29 6 32 20 5 20 23 28 23
10z m2070 2 c0 -20 -34 -53 -50 -49 -13 3 -17 0 -13 -9 3 -8 -1 -14 -11 -14
-12 0 -14 7 -9 33 3 17 11 35 17 39 15 10 66 10 66 0z m45 -2 c3 -5 -1 -10 -9
-10 -9 0 -16 5 -16 10 0 6 4 10 9 10 6 0 13 -4 16 -10z m-1472 -12 c-16 -21
-23 -48 -13 -48 6 0 10 8 10 19 0 14 10 20 42 24 53 7 60 3 48 -29 -15 -39
-12 -84 5 -84 17 0 17 5 5 35 -8 22 13 55 35 55 15 0 28 -28 19 -41 -3 -6 0
-16 6 -24 10 -12 9 -15 -5 -15 -14 0 -16 -6 -11 -35 4 -22 3 -35 -4 -35 -5 0
-10 5 -10 10 0 7 -20 9 -60 4 -52 -6 -60 -4 -60 10 0 10 -4 15 -9 11 -5 -3
-12 -1 -15 4 -7 11 -84 -3 -99 -18 -8 -8 -16 -6 -28 5 -31 28 -46 12 -42 -43
8 -119 8 -143 2 -143 -4 0 -10 35 -14 78 -4 43 -14 84 -22 93 -12 15 -12 19 2
33 9 9 25 16 35 16 28 0 51 11 44 21 -3 6 2 21 11 35 9 13 13 29 10 34 -12 19
26 22 46 4 19 -17 20 -17 25 4 5 18 18 27 48 31 5 0 4 -5 -1 -11z m267 -2 c0
-8 6 -17 13 -19 6 -3 -5 -6 -25 -6 -56 -1 -52 29 5 38 4 0 7 -5 7 -13z m1715
4 c-3 -5 -10 -10 -16 -10 -5 0 -9 5 -9 10 0 6 7 10 16 10 8 0 12 -4 9 -10z
m335 6 c0 -2 -7 -9 -15 -16 -13 -11 -14 -10 -9 4 5 14 24 23 24 12z m-1214
-36 c19 0 18 -14 -4 -33 -23 -21 -52 -7 -33 16 9 12 9 16 -1 20 -10 4 -10 8 2
16 11 8 16 7 18 -4 2 -8 10 -15 18 -15z m-896 5 c0 -8 -7 -15 -15 -15 -16 0
-20 12 -8 23 11 12 23 8 23 -8z m755 4 c-4 -6 2 -13 13 -16 18 -4 19 -7 6 -31
-7 -14 -11 -29 -9 -33 3 -4 -2 -9 -10 -13 -15 -5 -21 -36 -7 -36 4 0 22 4 40
9 20 6 32 6 32 0 0 -5 9 -9 20 -9 11 0 20 -5 20 -10 0 -7 -25 -10 -64 -8 -59
2 -67 0 -90 -25 -15 -16 -26 -32 -26 -38 0 -5 -4 -9 -10 -9 -5 0 -10 5 -10 10
0 6 -4 10 -10 10 -5 0 -10 -6 -10 -14 0 -20 -61 -40 -71 -24 -10 15 -2 28 16
28 34 0 0 29 -41 35 -25 3 -48 13 -51 21 -3 8 -19 14 -41 14 -19 0 -33 3 -29
6 3 3 54 6 113 7 68 0 117 5 133 13 18 10 29 10 38 2 9 -7 13 -7 13 0 0 6 3
18 6 27 5 12 2 16 -12 14 -10 -2 -25 0 -33 5 -8 5 -16 4 -21 -3 -4 -7 -27 -14
-51 -17 l-44 -4 32 12 c18 7 38 22 46 32 8 10 19 16 25 12 6 -3 13 -2 17 4 9
15 25 12 25 -5 0 -17 9 -19 30 -5 12 8 12 10 -3 16 -22 8 -22 21 1 27 9 3 18
5 20 6 2 0 0 -4 -3 -10z m290 1 c3 -5 -3 -10 -15 -10 -12 0 -18 5 -15 10 3 6
10 10 15 10 5 0 12 -4 15 -10z m670 0 c-3 -5 -13 -10 -21 -10 -21 0 -17 -18 7
-25 16 -6 18 -9 8 -22 -7 -8 -23 -13 -36 -10 -24 4 -32 -8 -10 -16 6 -3 2 -6
-10 -6 -12 -1 -25 -6 -29 -12 -3 -6 -19 -9 -34 -6 -15 3 -31 2 -36 -3 -5 -5
-22 -6 -38 -2 l-28 8 21 24 c17 21 22 23 30 10 8 -12 13 -10 31 13 12 15 27
27 33 26 8 0 8 -2 0 -6 -16 -6 -17 -29 -2 -39 13 -8 60 40 57 57 -2 7 8 16 22
20 36 10 42 10 35 -1z m-2723 -33 c-7 -8 -9 -17 -5 -20 7 -8 -15 -37 -29 -37
-5 0 -6 5 -3 10 3 6 -2 13 -12 17 -10 3 -24 11 -31 16 -17 14 2 27 41 27 15 0
27 5 27 12 0 9 3 9 12 0 8 -8 8 -15 0 -25z m58 23 c0 -12 -28 -25 -36 -17 -9
9 6 27 22 27 8 0 14 -5 14 -10z m1308 -2 c-6 -18 -28 -21 -28 -4 0 9 7 16 16
16 9 0 14 -5 12 -12z m472 2 c-8 -5 -19 -10 -25 -10 -5 0 -3 5 5 10 8 5 20 10
25 10 6 0 3 -5 -5 -10z m430 0 c0 -5 -4 -10 -9 -10 -6 0 -13 5 -16 10 -3 6 1
10 9 10 9 0 16 -4 16 -10z m160 -10 l20 -20 -25 0 c-18 0 -25 5 -25 20 0 11 2
20 5 20 3 0 14 -9 25 -20z m120 -1 c0 -5 -7 -9 -15 -9 -15 0 -20 12 -9 23 8 8
24 -1 24 -14z m-210 1 c-8 -5 -19 -10 -25 -10 -5 0 -3 5 5 10 8 5 20 10 25 10
6 0 3 -5 -5 -10z m-3400 -10 c0 -5 -5 -10 -11 -10 -5 0 -7 5 -4 10 3 6 8 10
11 10 2 0 4 -4 4 -10z m481 -33 c-8 -8 -11 -3 -11 19 1 25 2 27 11 11 8 -14 8
-22 0 -30z m2629 28 c0 -8 -7 -15 -15 -15 -8 0 -15 7 -15 15 0 8 7 15 15 15 8
0 15 -7 15 -15z m80 3 c0 -7 -5 -20 -10 -28 -8 -12 -10 -9 -10 13 0 15 5 27
10 27 6 0 10 -6 10 -12z m370 2 c0 -5 -5 -10 -11 -10 -5 0 -7 5 -4 10 3 6 8
10 11 10 2 0 4 -4 4 -10z m-553 -30 c-5 -23 -3 -30 10 -30 11 0 7 -7 -12 -22
-26 -20 -28 -21 -40 -4 -11 14 -11 22 0 43 12 23 32 42 44 43 2 0 1 -13 -2
-30z m333 26 c0 -3 -4 -8 -10 -11 -5 -3 -10 -1 -10 4 0 6 5 11 10 11 6 0 10
-2 10 -4z m550 -6 c0 -5 -4 -10 -10 -10 -5 0 -10 5 -10 10 0 6 5 10 10 10 6 0
10 -4 10 -10z m-600 -20 c0 -14 -24 -22 -52 -18 l-23 5 25 11 c32 14 50 15 50
2z m170 6 c0 -3 -4 -8 -10 -11 -5 -3 -10 -1 -10 4 0 6 5 11 10 11 6 0 10 -2
10 -4z m-3670 -16 c0 -5 -8 -10 -17 -10 -15 0 -16 2 -3 10 19 12 20 12 20 0z
m2325 0 c3 -5 -1 -10 -9 -10 -9 0 -16 5 -16 10 0 6 4 10 9 10 6 0 13 -4 16
-10z m999 -37 c-10 -7 -22 -13 -26 -13 -13 0 -21 28 -14 45 5 14 9 14 32 -2
25 -16 25 -17 8 -30z m426 37 c0 -5 -4 -10 -10 -10 -5 0 -10 5 -10 10 0 6 5
10 10 10 6 0 10 -4 10 -10z m-150 -10 c0 -5 -4 -10 -10 -10 -5 0 -10 5 -10 10
0 6 5 10 10 10 6 0 10 -4 10 -10z m143 -17 c16 -9 -6 -23 -39 -23 -32 0 -45
16 -28 33 7 6 50 0 67 -10z m-1477 -8 c-8 -8 -18 -15 -22 -15 -3 0 -1 7 6 15
7 8 17 15 22 15 5 0 3 -7 -6 -15z m1124 5 c-8 -5 -22 -10 -30 -10 -13 0 -13 1
0 10 8 5 22 10 30 10 13 0 13 -1 0 -10z m117 -1 c-14 -8 -22 -8 -30 0 -8 8 -3
11 19 11 25 -1 27 -2 11 -11z m494 -3 c-14 -17 -51 -28 -51 -15 0 5 10 14 23
19 32 13 41 12 28 -4z m-3404 -2 c-3 -3 -12 -4 -19 -1 -8 3 -5 6 6 6 11 1 17
-2 13 -5z m763 -19 c0 -8 -3 -15 -7 -15 -5 0 -18 -3 -30 -6 -17 -5 -23 -2 -23
9 0 14 16 23 48 26 6 0 12 -6 12 -14z m2760 5 c8 -5 11 -10 5 -10 -5 0 -17 5
-25 10 -8 5 -10 10 -5 10 6 0 17 -5 25 -10z m-1502 -20 c3 -9 -1 -11 -12 -7
-10 4 -16 1 -16 -9 0 -8 4 -13 9 -9 5 3 21 0 36 -7 19 -9 28 -9 37 0 13 13 58
16 58 5 0 -5 -12 -19 -27 -33 -18 -17 -28 -21 -30 -12 -7 20 -23 14 -33 -13
-10 -26 -35 -34 -44 -12 -3 8 -8 7 -16 -5 -6 -10 -18 -18 -26 -18 -8 0 -12 -5
-9 -10 4 -6 10 -8 15 -5 5 3 11 1 14 -4 3 -5 -8 -11 -24 -13 l-29 -4 6 59 c6
57 5 60 -13 53 -33 -13 -39 -12 -39 9 0 17 6 20 38 18 27 -2 43 3 58 18 22 22
40 21 47 -1z m797 10 c3 -5 -1 -10 -10 -10 -9 0 -13 5 -10 10 3 6 8 10 10 10
2 0 7 -4 10 -10z m-2285 -27 c0 -3 -13 -3 -30 1 -18 3 -30 1 -30 -5 0 -6 -5
-7 -10 -4 -8 5 -8 11 0 20 9 10 18 11 41 3 16 -5 29 -12 29 -15z m1230 20 c0
-5 -7 -16 -14 -26 -12 -16 -18 -17 -38 -6 l-23 12 30 13 c35 15 45 17 45 7z
m1157 -4 c9 -9 24 -9 59 0 46 12 70 7 45 -8 -7 -5 -11 -14 -7 -19 4 -6 -2 -16
-13 -21 -26 -14 -23 -15 -57 14 -32 28 -64 33 -64 10 0 -8 -7 -15 -15 -15 -22
0 -18 15 8 33 27 20 30 20 44 6z m-3207 -9 c0 -5 -4 -10 -10 -10 -5 0 -10 5
-10 10 0 6 5 10 10 10 6 0 10 -4 10 -10z m2958 -4 c-10 -7 -18 -22 -18 -32 1
-18 1 -18 18 1 18 21 89 51 99 41 3 -3 -2 -12 -11 -21 -9 -9 -16 -24 -16 -33
0 -13 -2 -13 -15 4 -15 19 -15 19 -30 0 -8 -11 -15 -26 -15 -33 0 -7 -7 -13
-15 -13 -8 0 -15 -7 -15 -15 0 -17 -16 -20 -25 -5 -5 8 -11 7 -21 -1 -8 -6
-14 -9 -14 -5 0 15 -2 22 -12 34 -8 9 -8 16 1 25 9 9 13 7 17 -11 4 -12 10
-19 16 -16 5 3 6 15 2 26 -4 15 1 27 22 44 16 13 34 23 39 23 6 0 2 -6 -7 -13z
m-988 -6 c0 -5 -4 -10 -10 -10 -5 0 -10 5 -10 10 0 6 5 10 10 10 6 0 10 -4 10
-10z m-903 -6 c-3 -3 -12 -4 -19 -1 -8 3 -5 6 6 6 11 1 17 -2 13 -5z m706 -4
c-16 -16 -173 -16 -173 0 0 5 38 9 91 9 50 -1 87 -5 82 -9z m1077 6 c0 -2 -9
-6 -20 -9 -11 -3 -18 -1 -14 4 5 9 34 13 34 5z m-2524 -14 c-5 -8 -66 -4 -66
4 0 2 16 4 36 4 19 0 33 -4 30 -8z m353 -2 c18 7 34 10 38 6 8 -7 -1 -17 -19
-20 -31 -7 -48 -19 -48 -36 0 -10 -7 -20 -15 -24 -18 -7 -20 15 -3 32 10 10
10 15 -1 21 -8 5 -10 14 -6 21 6 9 9 9 15 -1 7 -10 14 -10 39 1z m154 4 c3 -4
-1 -17 -10 -31 -20 -30 -41 -15 -21 16 13 22 20 25 31 15z m102 -23 c-7 -35
13 -43 86 -34 36 4 49 2 49 -7 0 -17 -146 -9 -180 11 l-25 14 24 3 c13 2 26
12 28 23 8 31 25 22 18 -10z m2684 25 c-2 -2 -15 -9 -29 -16 -23 -12 -24 -12
-11 3 7 10 20 17 29 17 8 0 13 -2 11 -4z m-3079 -10 c0 -3 -4 -8 -10 -11 -5
-3 -10 -1 -10 4 0 6 5 11 10 11 6 0 10 -2 10 -4z m1610 -5 c0 -11 -49 -21 -55
-10 -3 4 3 10 12 12 30 8 43 7 43 -2z m584 -20 c-8 -14 -17 -26 -21 -26 -4 0
-8 12 -10 26 -1 22 3 27 21 27 22 0 23 -2 10 -27z m483 8 c-5 -18 -2 -20 20
-14 18 4 24 2 21 -7 -3 -7 -23 -14 -46 -16 l-41 -3 15 30 c17 35 39 42 31 10z
m-2747 -4 c0 -11 -10 -15 -37 -14 -28 1 -31 3 -13 6 14 3 29 9 35 14 12 12 15
11 15 -6z m3010 5 c11 -7 6 -10 -20 -10 -26 0 -31 3 -20 10 8 5 17 10 20 10 3
0 12 -5 20 -10z m-950 -4 c0 -2 -11 -6 -25 -8 -14 -3 -25 -1 -25 3 0 5 11 9
25 9 14 0 25 -2 25 -4z m156 -23 c-10 -10 -19 5 -10 18 6 11 8 11 12 0 2 -7 1
-15 -2 -18z m141 7 c-1 -11 -5 -20 -9 -20 -11 0 -20 19 -13 30 11 17 24 11 22
-10z m-2817 3 c0 -5 -27 -8 -60 -8 -33 0 -60 3 -60 8 0 4 27 7 60 7 33 0 60
-3 60 -7z m593 -33 c-13 -32 -19 -38 -29 -29 -8 6 -11 15 -8 20 3 5 -11 9 -30
9 -27 0 -36 4 -36 16 0 14 7 16 45 11 25 -4 47 -2 50 3 16 26 22 5 8 -30z
m1312 30 c7 -12 -32 -100 -45 -100 -6 0 -10 -7 -10 -15 0 -10 11 -15 33 -16
26 0 28 -2 12 -8 -11 -5 -39 -11 -63 -14 -35 -4 -42 -2 -38 9 7 17 2 18 -25 2
-17 -10 -23 -10 -26 -1 -3 8 -14 11 -26 8 -12 -3 -31 1 -42 9 l-20 15 20 2
c11 1 31 3 45 5 14 2 48 5 77 7 46 2 53 5 58 27 4 14 2 26 -4 28 -17 6 -13 30
7 41 22 13 39 14 47 1z m-1147 -29 c2 -13 -1 -28 -7 -34 -13 -13 -41 15 -41
43 0 31 44 24 48 -9z m1382 13 c0 -5 -6 -18 -13 -28 -13 -17 -14 -17 -20 -2
-4 10 -18 16 -34 16 -28 1 -93 7 -103 10 -3 1 6 5 19 9 38 10 151 7 151 -5z
m-2585 -15 c-4 -5 -13 -9 -22 -9 -13 0 -13 3 -3 15 13 15 35 11 25 -6z m2915
6 c0 -8 -11 -12 -32 -10 -44 3 -47 23 -3 23 22 0 35 -5 35 -13z m-1600 -25
c19 -2 50 -4 68 -4 40 -1 42 -12 2 -18 -16 -3 -30 -2 -30 2 0 3 -21 6 -47 6
-44 -1 -48 1 -51 24 -2 22 -1 23 10 10 7 -9 29 -17 48 -20z m-895 10 c3 -5 -1
-10 -10 -10 -9 0 -13 5 -10 10 3 6 8 10 10 10 2 0 7 -4 10 -10z m1845 -2 c0
-12 -40 -30 -55 -25 -7 3 -16 2 -21 -2 -12 -11 -95 -1 -88 10 3 5 22 9 42 9
20 0 44 4 52 10 16 10 70 9 70 -2z m884 -10 c-4 -6 0 -14 7 -19 11 -7 9 -13
-11 -28 -17 -14 -28 -17 -37 -10 -15 13 -71 16 -102 5 -16 -6 -21 -5 -17 3 4
6 1 11 -6 11 -8 0 -23 7 -34 15 -18 14 -18 14 8 15 15 0 34 -7 43 -16 20 -20
45 -11 45 16 0 17 5 19 45 15 26 -2 45 0 45 6 0 6 5 7 10 4 6 -4 7 -11 4 -17z
m-654 3 c0 -5 -7 -16 -15 -25 -23 -23 -18 -28 13 -12 18 9 34 11 51 5 37 -14
174 -15 179 -1 4 14 32 16 32 3 0 -19 -31 -33 -60 -28 -16 4 -31 3 -34 -1 -3
-5 -26 -6 -53 -3 -52 6 -110 -7 -117 -26 -3 -7 1 -10 8 -7 19 7 29 -11 13 -24
-7 -6 -27 -7 -47 -3 -26 5 -31 9 -17 14 9 3 17 16 17 27 0 17 -3 19 -19 10
-11 -5 -32 -10 -48 -10 -24 1 -25 2 -10 11 9 5 17 21 17 34 0 21 5 25 29 25
17 0 33 5 36 10 8 13 25 13 25 1z m690 -1 c0 -5 -5 -10 -11 -10 -5 0 -7 5 -4
10 3 6 8 10 11 10 2 0 4 -4 4 -10z m100 -5 c0 -8 -9 -19 -20 -25 -23 -12 -25
-7 -10 21 13 22 30 25 30 4z m-2040 -5 c0 -5 -7 -10 -16 -10 -8 0 -12 5 -9 10
3 6 10 10 16 10 5 0 9 -4 9 -10z m247 4 c-3 -3 -12 -4 -19 -1 -8 3 -5 6 6 6
11 1 17 -2 13 -5z m1340 -21 c-3 -3 -11 -2 -17 2 -9 6 -9 10 1 16 14 8 27 -7
16 -18z m638 15 c35 2 46 -1 38 -9 -6 -6 -37 -11 -69 -12 -43 -2 -59 -6 -59
-16 0 -8 -6 -16 -12 -18 -8 -3 -13 4 -13 16 0 12 -6 21 -12 21 -7 1 -2 7 12
15 14 8 34 11 45 8 11 -4 42 -6 70 -5z m-1084 -21 c-13 -13 -26 -3 -16 12 3 6
11 8 17 5 6 -4 6 -10 -1 -17z m529 13 c-8 -5 -19 -10 -25 -10 -5 0 -3 5 5 10
8 5 20 10 25 10 6 0 3 -5 -5 -10z m-2829 -20 c11 0 17 -4 14 -10 -8 -12 -25
-13 -44 -1 -8 5 -10 14 -5 22 6 10 9 10 12 1 2 -7 13 -12 23 -12z m1154 0 c3
-5 1 -10 -4 -10 -6 0 -11 5 -11 10 0 6 2 10 4 10 3 0 8 -4 11 -10z m855 0 c0
-5 -5 -10 -11 -10 -5 0 -7 5 -4 10 3 6 8 10 11 10 2 0 4 -4 4 -10z m-1610 -10
c0 -5 -7 -10 -15 -10 -8 0 -15 5 -15 10 0 6 7 10 15 10 8 0 15 -4 15 -10z m40
0 c0 -5 -8 -10 -17 -10 -15 0 -16 2 -3 10 19 12 20 12 20 0z m620 0 c0 -5 -10
-10 -22 -10 -19 0 -20 2 -8 10 19 13 30 13 30 0z m1769 -3 c29 -1 37 -4 30
-13 -12 -15 -1 -44 17 -44 8 0 14 -5 14 -12 0 -9 3 -9 12 0 7 7 22 12 34 12
12 0 24 6 27 13 2 6 8 9 12 5 10 -10 -13 -38 -32 -38 -7 0 -16 -7 -19 -15 -7
-18 -31 -20 -36 -4 -6 17 -48 -7 -48 -27 0 -10 7 -13 24 -8 18 4 27 1 34 -13
9 -16 4 -22 -38 -41 -48 -22 -106 -36 -197 -47 -26 -4 -63 -11 -80 -16 -18 -6
-41 -8 -51 -5 -10 4 -43 -2 -73 -12 -32 -12 -62 -16 -74 -12 -18 7 -19 8 -2
15 9 4 26 5 37 2 10 -3 27 1 37 9 10 7 29 14 43 14 14 0 34 6 45 14 23 15 107
37 145 37 23 0 22 2 -7 12 -44 16 -42 30 4 44 21 6 32 12 24 12 -7 1 -11 7 -7
16 7 18 2 19 -24 3 -10 -7 -22 -9 -26 -6 -9 10 21 38 41 38 25 0 50 29 37 42
-7 7 -14 4 -24 -11 -17 -28 -30 -27 -26 2 3 24 59 50 90 41 9 -3 35 -6 57 -7z
m305 -12 c-9 -14 -18 -25 -20 -25 -2 0 -4 11 -4 25 0 18 5 25 20 25 20 0 20
-1 4 -25z m-2984 -2 c0 -7 -11 -10 -27 -8 -16 2 -34 4 -40 4 -7 1 -13 5 -13
10 0 5 18 8 40 7 24 0 40 -6 40 -13z m40 13 c0 -11 -19 -15 -25 -6 -3 5 1 10
9 10 9 0 16 -2 16 -4z m307 -2 c-3 -3 -12 -4 -19 -1 -8 3 -5 6 6 6 11 1 17 -2
13 -5z m323 -8 c0 -19 -40 -32 -50 -16 -5 9 -42 13 -113 14 -157 2 -139 13 23
15 117 1 140 -1 140 -13z m2605 4 c-3 -5 -18 -10 -33 -9 l-27 1 25 8 c35 11
42 11 35 0z m-2551 -15 c19 -14 18 -15 -12 -15 -30 0 -40 9 -25 23 9 10 15 8
37 -8z m2214 -22 c-6 -8 -21 -13 -32 -11 -12 1 -27 -1 -33 -5 -8 -5 -13 -3
-13 5 1 20 62 48 78 35 9 -7 10 -13 0 -24z m132 27 c-34 -18 -60 -21 -60 -8 0
9 13 14 37 15 23 1 32 -2 23 -7z m117 4 c-3 -3 -12 -4 -19 -1 -8 3 -5 6 6 6
11 1 17 -2 13 -5z m-3043 -13 c3 -5 23 -12 43 -15 79 -14 93 -18 93 -28 0 -6
-29 -8 -77 -5 -43 3 -66 3 -50 1 15 -3 27 -10 27 -15 0 -14 -113 -7 -117 8 -3
8 6 11 23 10 15 -1 29 4 31 11 3 6 -3 12 -13 12 -16 0 -16 1 2 15 22 17 31 18
38 6z m1086 -1 c3 -1 8 -2 13 -1 14 2 7 -27 -8 -33 -24 -9 -64 12 -65 34 0 6
49 5 60 0z m1268 -5 c8 3 12 0 10 -7 -4 -11 -168 -19 -168 -7 0 11 95 25 119
17 14 -5 31 -6 39 -3z m-1956 -17 c-7 -7 -12 -8 -12 -2 0 14 12 26 19 19 2 -3
-1 -11 -7 -17z m273 12 c-3 -5 -13 -10 -21 -10 -8 0 -14 5 -14 10 0 6 9 10 21
10 11 0 17 -4 14 -10z m134 -12 c33 -1 61 -5 61 -9 0 -4 15 -9 33 -12 17 -4
48 -9 67 -12 19 -4 44 -10 55 -15 11 -5 27 -9 35 -8 48 4 72 -18 30 -29 -11
-3 -19 -13 -17 -23 1 -11 -2 -19 -8 -19 -5 -1 -10 7 -10 17 0 21 -15 33 -35
28 -8 -2 -28 -7 -45 -10 l-30 -6 24 20 c26 22 27 21 -66 25 -35 1 -69 8 -77
14 -9 7 -46 11 -102 9 -95 -3 -132 13 -54 23 25 3 41 7 35 8 -5 1 -3 5 5 11 9
5 19 5 26 -1 6 -5 39 -10 73 -11z m-1061 -3 c8 -8 -71 -4 -98 5 -17 6 -5 7 34
4 33 -2 62 -6 64 -9z m117 -5 c7 -12 -40 -24 -56 -14 -9 5 -7 10 7 15 27 11
42 11 49 -1z m1135 1 c0 -6 -4 -13 -10 -16 -5 -3 -10 1 -10 9 0 9 5 16 10 16
6 0 10 -4 10 -9z m2077 3 c-3 -3 -12 -4 -19 -1 -8 3 -5 6 6 6 11 1 17 -2 13
-5z m-2747 -15 c0 -11 -26 -18 -49 -12 -11 3 -19 9 -16 12 5 10 65 10 65 0z
m1373 -16 c-6 -14 0 -15 45 -10 29 3 52 2 52 -3 0 -10 -95 -24 -110 -15 -11 7
-14 38 -4 48 12 11 23 -3 17 -20z m1137 12 c0 -8 -4 -15 -10 -15 -5 0 -10 7
-10 15 0 8 5 15 10 15 6 0 10 -7 10 -15z m-3817 -2 c-7 -2 -21 -2 -30 0 -10 3
-4 5 12 5 17 0 24 -2 18 -5z m192 -2 c-15 -15 -65 -25 -65 -13 0 13 17 20 50
21 15 1 20 -3 15 -8z m1001 -1 c9 0 12 -4 9 -10 -9 -14 -18 -13 -41 6 -17 14
-17 15 -1 10 10 -3 25 -6 33 -6z m274 -8 c-30 -8 -60 -22 -65 -29 -13 -17 -92
-20 -108 -4 -8 8 3 11 41 11 53 0 74 19 25 22 -33 2 65 14 122 16 40 0 40 0
-15 -16z m1541 8 c25 -14 26 -53 2 -48 -12 2 -17 11 -15 24 2 17 -2 21 -20 20
-17 -1 -24 -8 -26 -28 -2 -16 -8 -28 -13 -28 -10 0 -13 53 -2 63 10 10 52 8
74 -3z m969 -5 l-25 -14 23 -1 c45 0 16 -25 -35 -30 -28 -3 -49 -2 -47 2 3 5
14 8 24 8 33 0 31 17 -3 25 l-32 8 40 7 c22 4 49 8 60 8 17 1 17 -1 -5 -13z
m-5453 -1 c-3 -3 -12 -4 -19 -1 -8 3 -5 6 6 6 11 1 17 -2 13 -5z m1092 -3 c9
-6 10 -11 2 -15 -6 -4 -18 0 -27 8 -12 12 -12 16 -2 16 7 0 19 -4 27 -9z
m3281 -1 c-8 -5 -22 -10 -30 -10 -13 0 -13 1 0 10 8 5 22 10 30 10 13 0 13 -1
0 -10z m430 -4 c0 -14 -36 -46 -52 -46 -14 0 -9 23 9 42 19 22 43 24 43 4z
m410 4 c0 -5 -7 -10 -15 -10 -8 0 -15 5 -15 10 0 6 7 10 15 10 8 0 15 -4 15
-10z m-4048 -12 c-17 -8 -26 -8 -34 0 -9 9 -4 12 23 11 32 0 33 -1 11 -11z
m3973 2 c-3 -5 -16 -10 -28 -9 -20 1 -20 2 3 9 14 4 26 8 28 9 2 1 0 -3 -3 -9z
m-1935 -10 c0 -5 -5 -10 -11 -10 -5 0 -7 5 -4 10 3 6 8 10 11 10 2 0 4 -4 4
-10z m2118 -9 c-2 -9 -15 -17 -32 -19 -24 -3 -28 -1 -22 15 6 14 5 16 -5 6
-15 -15 -49 -17 -49 -4 0 13 19 18 68 18 34 0 42 -4 40 -16z m-4375 2 c-13 -2
-33 -2 -45 0 -13 2 -3 4 22 4 25 0 35 -2 23 -4z m255 -5 c-3 -13 1 -13 82 -3
l45 5 -45 -13 c-25 -7 -55 -17 -68 -21 -16 -5 -24 -3 -29 9 -5 14 -14 16 -47
11 -50 -8 -44 0 10 13 54 13 54 13 52 -1z m3507 -20 c-5 -14 -1 -21 14 -25 36
-9 12 -23 -40 -23 -37 0 -49 4 -49 15 0 9 10 15 26 15 15 0 23 4 19 10 -8 14
14 42 27 34 5 -3 6 -15 3 -26z m-3320 12 c-3 -5 -12 -7 -20 -3 -21 7 -19 13 6
13 11 0 18 -4 14 -10z m1550 0 c-3 -5 -11 -10 -16 -10 -6 0 -7 5 -4 10 3 6 11
10 16 10 6 0 7 -4 4 -10z m-2445 -21 c0 -5 -7 -9 -15 -9 -8 0 -15 4 -15 10 0
5 -8 7 -17 4 -14 -5 -15 -4 -4 4 15 11 51 4 51 -9z m4640 11 c0 -5 -10 -10
-22 -10 -19 0 -20 2 -8 10 19 13 30 13 30 0z m-2760 -9 c0 -12 -25 -21 -58
-21 -42 0 -4 24 46 29 6 0 12 -3 12 -8z m1930 -1 c0 -5 -4 -10 -10 -10 -5 0
-10 5 -10 10 0 6 5 10 10 10 6 0 10 -4 10 -10z m190 -24 c0 -36 -25 -56 -68
-53 -20 1 -43 6 -49 10 -7 5 -17 5 -23 2 -5 -3 -10 3 -10 14 0 24 8 30 62 40
77 15 88 14 88 -13z m984 14 c43 0 2 -13 -44 -14 -44 -1 -48 0 -33 12 10 7 27
11 38 8 11 -3 29 -6 39 -6z m-4204 -4 c0 -9 -30 -14 -35 -6 -4 6 3 10 14 10
12 0 21 -2 21 -4z m1340 0 c0 -2 -7 -7 -16 -10 -8 -3 -12 -2 -9 4 6 10 25 14
25 6z m870 -6 c0 -5 -7 -10 -16 -10 -8 0 -12 5 -9 10 3 6 10 10 16 10 5 0 9
-4 9 -10z m637 -27 l-12 -38 -6 30 c-6 35 -3 45 16 45 11 0 11 -7 2 -37z
m1074 24 c-8 -10 -7 -14 7 -13 61 0 93 -6 106 -20 12 -11 16 -12 16 -2 0 8 15
14 40 16 57 4 50 -12 -12 -28 -61 -15 -118 -19 -118 -8 0 4 -9 8 -20 8 -18 0
-19 -2 -8 -20 7 -11 24 -20 37 -20 40 0 16 -11 -33 -16 -44 -4 -71 10 -47 26
7 4 -8 10 -35 14 -26 3 -50 4 -52 1 -3 -3 2 -5 12 -5 9 0 14 -4 11 -10 -3 -5
-21 -10 -38 -10 -30 1 -31 1 -13 15 19 15 19 15 -3 15 -16 0 -21 5 -19 18 5
22 67 21 84 -2 6 -9 22 -16 35 -16 22 0 22 0 3 15 -12 9 -14 14 -6 15 7 0 10
5 6 11 -8 13 13 29 40 29 14 0 16 -3 7 -13z m159 3 c0 -5 -4 -10 -10 -10 -5 0
-10 5 -10 10 0 6 5 10 10 10 6 0 10 -4 10 -10z m-4188 -7 c-6 -2 -10 -9 -6
-14 3 -5 -4 -9 -15 -9 -21 0 -35 13 -24 24 3 3 18 6 32 5 14 0 20 -3 13 -6z
m198 -3 c8 -5 12 -10 10 -12 -62 -40 -92 -48 -133 -38 -69 18 -72 19 -59 32 6
6 18 7 29 3 10 -5 23 -7 30 -6 6 1 14 -3 18 -9 8 -13 55 -13 55 0 0 6 -7 13
-15 16 -8 4 -15 10 -15 15 0 12 61 11 80 -1z m490 0 c13 -8 13 -10 -2 -10 -9
0 -20 5 -23 10 -8 13 5 13 25 0z m1075 0 c-3 -5 -10 -10 -16 -10 -5 0 -9 5 -9
10 0 6 7 10 16 10 8 0 12 -4 9 -10z m915 -22 c0 -5 -7 -8 -15 -8 -15 0 -20 21
-8 33 7 7 23 -11 23 -25z m725 13 c5 -16 14 -19 50 -16 25 1 45 -1 45 -6 0 -9
-36 -14 -72 -11 -10 1 -18 -3 -18 -8 0 -6 -7 -10 -16 -10 -9 0 -12 5 -8 12 4
6 -1 17 -10 24 -10 7 -15 17 -11 23 10 17 33 13 40 -8z m-2968 -9 c12 -7 32
-12 44 -12 38 0 12 -12 -33 -16 -25 -2 -48 -11 -55 -20 -9 -13 -20 -15 -50 -9
l-38 8 44 8 c43 8 58 15 50 23 -7 7 -109 -18 -109 -26 0 -4 -13 -8 -30 -8 -31
0 -43 19 -12 21 15 0 15 1 -2 8 -31 12 3 21 54 14 32 -5 45 -2 51 9 10 18 53
17 86 0z m473 -4 c39 3 140 -10 135 -17 -2 -5 -38 -7 -80 -6 -41 1 -75 -2 -75
-6 0 -11 22 -16 70 -14 57 3 86 -10 69 -31 -6 -8 -24 -14 -39 -14 -16 0 -30
-4 -32 -10 -2 -6 -15 -4 -32 5 -16 9 -31 13 -34 11 -2 -3 -17 1 -33 9 -15 8
-49 15 -74 15 -38 0 -45 3 -37 15 15 29 75 54 112 48 19 -3 42 -5 50 -5z m738
-15 c34 -3 62 -9 62 -14 0 -4 10 -10 23 -12 16 -3 14 -5 -10 -6 -20 0 -37 -9
-46 -22 -12 -17 -21 -19 -51 -14 -20 4 -36 13 -36 21 0 7 -18 19 -41 25 -38
12 -40 14 -23 26 11 8 28 11 39 8 11 -3 48 -8 83 -12z m-1052 -2 c-4 -5 0 -11
6 -13 7 -3 -2 -5 -21 -5 -30 0 -32 2 -15 14 20 15 38 17 30 4z m-1306 -11 c0
-5 -4 -10 -10 -10 -5 0 -10 5 -10 10 0 6 5 10 10 10 6 0 10 -4 10 -10z m183
-21 c32 -6 57 -12 55 -14 -2 -1 -50 -5 -108 -8 -79 -5 -100 -4 -86 4 15 9 16
13 5 20 -11 7 -11 9 -1 9 7 0 11 4 8 9 -4 5 10 5 32 0 20 -5 63 -14 95 -20z
m3597 21 c0 -5 -5 -10 -11 -10 -5 0 -7 5 -4 10 3 6 8 10 11 10 2 0 4 -4 4 -10z
m-4035 -10 c8 -13 -5 -13 -25 0 -13 8 -13 10 2 10 9 0 20 -4 23 -10z m1172 4
c-3 -3 -12 -4 -19 -1 -8 3 -5 6 6 6 11 1 17 -2 13 -5z m493 -4 c-36 -12 -60
-12 -60 0 0 6 19 10 43 9 36 -1 38 -2 17 -9z m-185 -10 c-3 -5 -13 -10 -21
-10 -8 0 -14 5 -14 10 0 6 9 10 21 10 11 0 17 -4 14 -10z m1875 1 c0 -16 -33
-22 -92 -15 -39 4 -55 10 -46 15 18 12 138 11 138 0z m-3135 -11 l50 -7 -50 0
c-27 -1 -63 3 -80 7 l-30 8 30 0 c17 0 53 -3 80 -8z m1210 0 c-3 -5 -15 -10
-25 -10 -10 0 -22 5 -25 10 -4 6 7 10 25 10 18 0 29 -4 25 -10z m1503 -10 c22
0 4 -17 -24 -23 -14 -2 -37 1 -51 8 l-25 13 23 5 c13 3 33 3 44 1 11 -2 26 -4
33 -4z m1695 0 c7 0 8 -3 1 -10 -12 -12 -56 -1 -48 12 3 5 13 7 21 4 8 -3 20
-6 26 -6z m-1618 -30 c-3 -5 -18 -10 -33 -9 l-27 1 25 8 c35 11 42 11 35 0z
m-2080 -11 c4 -6 5 -12 3 -14 -7 -7 -48 7 -48 16 0 13 37 11 45 -2z m-2190
-19 c18 -20 17 -20 -8 -20 -20 0 -27 5 -27 20 0 11 4 20 8 20 5 0 17 -9 27
-20z m1040 10 c3 -5 -1 -10 -9 -10 -9 0 -16 5 -16 10 0 6 4 10 9 10 6 0 13 -4
16 -10z m1048 3 c-7 -2 -21 -2 -30 0 -10 3 -4 5 12 5 17 0 24 -2 18 -5z m2777
-3 c0 -5 -4 -10 -10 -10 -5 0 -10 5 -10 10 0 6 5 10 10 10 6 0 10 -4 10 -10z
m-3885 -10 c-13 -5 -15 -9 -5 -9 10 -1 11 -4 3 -12 -14 -14 -135 -29 -147 -18
-6 5 -1 9 12 9 13 0 31 8 42 18 11 10 37 18 67 19 35 1 42 -1 28 -7z m2070 -6
c85 -6 105 -10 103 -22 -2 -9 12 -19 42 -27 25 -7 55 -16 68 -20 14 -5 22 -3
22 4 0 6 19 11 46 11 57 0 49 19 -9 22 -35 1 -32 2 18 7 97 10 205 2 205 -15
0 -8 7 -14 17 -14 21 0 93 -32 93 -41 0 -4 -16 -5 -35 -2 -19 3 -35 1 -35 -4
0 -5 -27 -15 -61 -22 -33 -8 -77 -20 -97 -27 -31 -11 -33 -13 -12 -13 14 -1
48 5 77 13 28 8 54 12 57 9 3 -3 26 2 51 10 25 9 52 14 60 10 8 -3 15 0 15 5
0 15 65 32 115 31 l40 -1 -30 -13 c-16 -8 -37 -12 -47 -9 -9 3 -19 1 -22 -4
-3 -6 -26 -13 -51 -16 -25 -4 -45 -11 -45 -15 0 -9 46 -8 56 2 9 9 56 9 78 1
29 -11 17 -23 -31 -29 -27 -4 -57 -10 -68 -16 -11 -5 -40 -9 -65 -10 -70 -3
-225 12 -228 22 -2 5 -15 6 -29 3 -14 -4 -28 -2 -32 4 -9 15 -61 27 -61 13 0
-7 -23 -11 -62 -11 -56 0 -60 1 -42 15 18 13 16 14 -24 15 -26 0 -41 -4 -37
-10 6 -10 -96 -6 -114 4 -5 3 -67 11 -138 16 -70 6 -145 16 -166 22 -27 8 -44
8 -60 1 -43 -21 -59 -23 -128 -12 -49 9 -69 16 -69 27 0 11 7 13 28 8 60 -14
132 -18 144 -9 12 9 87 5 216 -13 56 -7 74 8 25 21 -28 7 -28 7 12 19 43 13
115 10 115 -5 0 -5 20 -9 45 -9 49 0 61 -16 20 -26 -14 -4 -24 -11 -22 -18 5
-15 38 -14 59 2 11 9 27 11 50 6 77 -16 157 -16 180 0 12 9 20 16 18 17 -3 0
-43 4 -90 9 -47 5 -104 14 -127 20 -102 25 -132 29 -198 30 -79 0 -118 14 -69
25 16 4 38 10 49 15 11 5 32 7 47 5 15 -2 75 -7 133 -11z m1855 1 c0 -8 7 -15
15 -15 8 0 15 -4 15 -10 0 -5 -9 -10 -20 -10 -11 0 -20 -4 -20 -9 0 -5 9 -13
20 -16 25 -8 27 -25 2 -19 -9 3 -28 1 -42 -5 -22 -9 -19 -10 23 -10 61 -1 60
-16 -3 -28 -54 -11 -60 -6 -60 48 0 21 5 29 18 29 14 0 15 2 2 10 -12 8 -12
10 3 16 9 3 17 12 17 20 0 8 7 14 15 14 8 0 15 -7 15 -15z m1257 9 c-3 -3 -12
-4 -19 -1 -8 3 -5 6 6 6 11 1 17 -2 13 -5z m-5807 -45 c0 -11 -7 -11 -49 -3
-45 9 -38 20 9 16 22 -2 40 -8 40 -13z m827 10 c-14 -8 -22 -8 -30 0 -8 8 -3
11 19 11 25 -1 27 -2 11 -11z m-407 -9 c12 -8 11 -10 -7 -10 -12 0 -25 5 -28
10 -8 13 15 13 35 0z m316 -1 c-22 -5 -45 -14 -53 -20 -7 -6 -22 -9 -33 -6
-11 3 -20 2 -20 -3 0 -15 -27 -18 -68 -7 -60 16 -52 28 18 26 36 -1 65 2 72 9
7 7 37 12 68 11 l55 -1 -39 -9z m4591 5 c-3 -3 -12 -4 -19 -1 -8 3 -5 6 6 6
11 1 17 -2 13 -5z m-5026 -24 c24 -11 40 -20 36 -20 -18 0 -103 23 -111 31
-18 17 31 9 75 -11z m1593 -11 c27 -10 69 -21 93 -25 30 -4 41 -10 34 -17 -7
-7 -45 -3 -118 11 -59 11 -129 24 -155 27 -45 6 -56 13 -41 28 11 12 136 -4
187 -24z m2263 9 c-3 -8 -6 -5 -6 6 -1 11 2 17 5 13 3 -3 4 -12 1 -19z m-4539
-5 c-10 -2 -26 -2 -35 0 -10 3 -2 5 17 5 19 0 27 -2 18 -5z m415 0 c-7 -2 -19
-2 -25 0 -7 3 -2 5 12 5 14 0 19 -2 13 -5z m66 -17 c9 -7 66 -21 126 -31 61
-10 114 -22 120 -27 14 -13 -36 -10 -91 6 -27 8 -73 17 -102 20 -60 8 -104 25
-96 37 8 13 25 11 43 -5z m695 -23 c23 2 48 0 56 -4 37 -19 62 -26 98 -28 13
0 21 -5 18 -10 -10 -15 -197 -5 -238 13 -21 9 -44 16 -53 16 -15 0 -20 12 -10
22 4 3 24 2 47 -4 22 -5 59 -7 82 -5z m384 1 c56 -3 104 -10 107 -14 3 -5 -18
-7 -47 -5 -29 3 -120 7 -202 9 -82 3 -153 9 -159 15 -10 10 32 9 301 -5z
m-551 -10 c-3 -3 -12 -4 -19 -1 -8 3 -5 6 6 6 11 1 17 -2 13 -5z m3397 -3 c3
-5 -1 -14 -9 -21 -12 -10 -13 -16 -4 -26 9 -12 4 -14 -30 -14 -40 0 -53 11
-30 26 8 4 6 10 -6 17 -14 8 -15 11 -4 18 18 11 76 11 83 0z m-3534 -21 c0 -6
-28 -9 -67 -8 -65 1 -66 1 -23 8 70 11 90 11 90 0z m45 0 c3 -5 -3 -10 -15
-10 -12 0 -18 5 -15 10 3 6 10 10 15 10 5 0 12 -4 15 -10z m1071 -4 c22 -7 70
-17 108 -21 47 -5 65 -10 58 -17 -7 -7 -30 -7 -74 0 -118 21 -221 42 -226 47
-11 11 98 4 134 -9z m2581 8 c-3 -3 -12 -4 -19 -1 -8 3 -5 6 6 6 11 1 17 -2
13 -5z m-3557 -13 c0 -5 -14 -9 -31 -9 -20 1 -26 4 -17 9 18 12 48 11 48 0z
m385 -1 c19 -8 19 -9 -2 -9 -12 -1 -25 4 -28 9 -7 12 2 12 30 0z m335 1 c0
-16 -92 -31 -135 -22 l-40 9 55 1 c30 1 62 6 70 11 19 12 50 13 50 1z m590 -1
c0 -12 -37 -12 -65 0 -15 7 -10 9 23 9 23 1 42 -3 42 -9z m-1200 -10 c0 -5
-21 -10 -46 -10 -27 0 -43 4 -39 10 3 6 24 10 46 10 21 0 39 -4 39 -10z m720
0 c0 -5 -4 -10 -10 -10 -5 0 -10 5 -10 10 0 6 5 10 10 10 6 0 10 -4 10 -10z
m-595 -10 c3 -6 -5 -10 -19 -10 -14 0 -28 5 -31 10 -3 6 5 10 19 10 14 0 28
-4 31 -10z m530 0 c3 -5 -3 -10 -15 -10 -12 0 -18 5 -15 10 3 6 10 10 15 10 5
0 12 -4 15 -10z m144 -16 c2 -2 2 -7 -1 -10 -10 -9 -78 7 -72 18 5 8 62 2 73
-8z m448 0 c-3 -3 -12 -4 -19 -1 -8 3 -5 6 6 6 11 1 17 -2 13 -5z m150 -10
c-3 -3 -12 -4 -19 -1 -8 3 -5 6 6 6 11 1 17 -2 13 -5z"/>
<path d="M3020 5989 c0 -7 89 -23 96 -17 2 2 -19 9 -46 14 -28 6 -50 7 -50 3z"/>
<path d="M5703 1913 c-15 -5 -18 -43 -4 -43 9 0 26 39 19 44 -1 2 -9 1 -15 -1z"/>
<path d="M5437 1555 c-37 -7 -70 -14 -72 -17 -8 -8 19 -81 30 -85 12 -4 125
94 125 108 0 5 -3 8 -7 8 -5 -1 -39 -7 -76 -14z"/>
<path d="M6298 2463 c7 -3 16 -2 19 1 4 3 -2 6 -13 5 -11 0 -14 -3 -6 -6z"/>
<path d="M4790 2353 c0 -5 14 -9 30 -10 17 -1 30 2 30 7 0 6 -13 10 -30 10
-16 0 -30 -3 -30 -7z"/>
<path d="M4300 1917 c0 -8 7 -21 16 -28 14 -11 15 -10 12 11 -3 26 -28 41 -28
17z"/>
<path d="M4218 1873 c6 -2 18 -2 25 0 6 3 1 5 -13 5 -14 0 -19 -2 -12 -5z"/>
<path d="M7040 1300 c0 -5 9 -10 21 -10 11 0 17 5 14 10 -3 6 -13 10 -21 10
-8 0 -14 -4 -14 -10z"/>
<path d="M6810 1180 c0 -5 5 -10 10 -10 6 0 10 5 10 10 0 6 -4 10 -10 10 -5 0
-10 -4 -10 -10z"/>
<path d="M6010 1190 c-13 -8 -12 -10 3 -10 20 0 21 -4 6 -32 -10 -18 -9 -20 6
-15 9 4 21 7 26 7 5 0 9 7 9 15 0 8 -4 15 -10 15 -5 0 -10 7 -10 15 0 17 -9
19 -30 5z"/>
<path d="M6720 1009 l-25 -20 25 7 c31 8 33 10 29 23 -2 5 -15 1 -29 -10z"/>
<path d="M6625 1000 c-3 -5 -19 -10 -35 -10 -37 0 -61 -10 -54 -21 9 -15 114
15 114 32 0 12 -17 11 -25 -1z"/>
<path d="M6728 963 c7 -3 16 -2 19 1 4 3 -2 6 -13 5 -11 0 -14 -3 -6 -6z"/>
<path d="M6635 950 c3 -5 10 -10 16 -10 5 0 9 5 9 10 0 6 -7 10 -16 10 -8 0
-12 -4 -9 -10z"/>
<path d="M6107 847 c-3 -8 -1 -20 4 -28 8 -12 10 -12 18 0 10 15 4 41 -9 41
-4 0 -10 -6 -13 -13z"/>
<path d="M5443 792 c-7 -18 3 -26 19 -16 7 5 21 7 32 5 15 -2 16 0 6 11 -17
17 -51 18 -57 0z"/>
<path d="M5327 793 c-15 -14 -5 -18 43 -19 62 -1 68 20 7 23 -24 2 -47 0 -50
-4z"/>
<path d="M6120 479 c0 -14 29 -17 40 -4 8 10 5 13 -15 11 -14 0 -25 -4 -25 -7z"/>
<path d="M6060 420 c0 -5 4 -10 9 -10 6 0 13 5 16 10 3 6 -1 10 -9 10 -9 0
-16 -4 -16 -10z"/>
<path d="M6040 396 c0 -2 7 -6 15 -10 8 -3 15 -1 15 4 0 6 -7 10 -15 10 -8 0
-15 -2 -15 -4z"/>
<path d="M6140 380 c0 -5 9 -10 19 -10 11 0 23 5 26 10 4 6 -5 10 -19 10 -14
0 -26 -4 -26 -10z"/>
<path d="M3138 303 c7 -3 16 -2 19 1 4 3 -2 6 -13 5 -11 0 -14 -3 -6 -6z"/>
<path d="M3265 280 c-3 -5 1 -10 9 -10 9 0 16 5 16 10 0 6 -4 10 -9 10 -6 0
-13 -4 -16 -10z"/>
<path d="M3180 190 c0 -5 5 -10 10 -10 6 0 10 5 10 10 0 6 -4 10 -10 10 -5 0
-10 -4 -10 -10z"/>
<path d="M3550 160 c0 -5 4 -10 9 -10 6 0 13 5 16 10 3 6 -1 10 -9 10 -9 0
-16 -4 -16 -10z"/>
<path d="M3665 120 c-3 -5 -1 -10 4 -10 6 0 11 5 11 10 0 6 -2 10 -4 10 -3 0
-8 -4 -11 -10z"/>
<path d="M3533 113 c-13 -2 -23 -8 -23 -13 0 -10 56 -2 80 11 11 6 8 8 -10 7
-14 0 -35 -3 -47 -5z"/>
<path d="M3658 43 c12 -2 30 -2 40 0 9 3 -1 5 -23 4 -22 0 -30 -2 -17 -4z"/>
<path d="M1238 83 c6 -2 18 -2 25 0 6 3 1 5 -13 5 -14 0 -19 -2 -12 -5z"/>
<path d="M7384 4966 c11 -9 24 -16 30 -16 12 0 7 5 -24 19 -24 11 -24 11 -6
-3z"/>
<path d="M8530 1084 c-47 -30 -107 -69 -135 -87 -27 -18 -63 -39 -80 -47 -16
-8 -32 -18 -35 -21 -10 -13 -254 -151 -495 -279 -44 -24 -127 -69 -185 -100
-58 -31 -141 -76 -185 -100 -44 -23 -116 -62 -160 -86 -69 -36 -543 -273 -685
-341 l-45 -22 33 0 c23 -1 122 43 335 150 166 83 332 169 369 190 36 21 70 39
75 39 5 0 40 18 78 41 39 23 117 66 175 97 58 30 116 63 130 72 14 10 54 32
90 50 114 56 469 259 595 340 50 31 118 75 152 96 35 21 63 45 63 52 0 6 -1
12 -2 11 -2 -1 -41 -25 -88 -55z"/>
<path d="M8520 914 c-52 -35 -98 -64 -102 -64 -4 0 -8 9 -8 20 0 23 -22 26
-40 5 -6 -8 -26 -84 -43 -169 -18 -85 -37 -160 -43 -166 -6 -6 -77 -14 -165
-18 l-153 -7 -1 -25 c0 -14 -6 -35 -13 -47 -7 -12 -17 -68 -23 -125 -5 -57
-17 -148 -24 -203 -8 -55 -15 -103 -15 -107 0 -5 13 -8 29 -8 27 0 29 3 37 58
l9 57 85 12 c47 6 100 12 119 12 37 1 36 8 15 -107 -6 -30 -5 -32 23 -32 30 0
31 1 49 87 15 70 25 92 49 115 38 36 45 35 45 -4 0 -29 8 -38 56 -72 l56 -38
-49 -44 -48 -43 128 -1 127 0 0 66 0 66 -37 -7 c-56 -11 -65 -9 -128 26 l-57
32 5 54 c5 44 11 58 34 76 15 12 63 53 105 90 l78 69 0 254 c0 140 -1 254 -2
253 -2 0 -46 -29 -98 -65z m-250 -482 c0 -5 -5 -35 -12 -66 -15 -78 -34 -89
-154 -92 -83 -3 -95 -1 -104 16 -11 21 -13 63 -4 108 6 31 6 31 83 35 163 7
191 7 191 -1z"/>
<path d="M8599 282 c-14 -63 -14 -75 -2 -79 22 -9 24 0 21 78 l-3 74 -16 -73z"/>
<path d="M6135 230 c-3 -5 -1 -10 4 -10 6 0 11 5 11 10 0 6 -2 10 -4 10 -3 0
-8 -4 -11 -10z"/>
<path d="M6088 213 c7 -3 16 -2 19 1 4 3 -2 6 -13 5 -11 0 -14 -3 -6 -6z"/>
<path d="M5350 91 c0 -6 6 -12 13 -12 6 -1 -1 -5 -18 -9 -26 -6 -27 -8 -7 -9
34 -2 22 -23 -19 -35 -22 -6 -28 -11 -17 -13 9 -2 29 2 45 10 15 8 42 18 60
21 36 8 36 31 0 39 -12 2 -30 8 -39 12 -11 4 -18 3 -18 -4z"/>
<path d="M5484 85 c-16 -12 -17 -14 -3 -15 9 0 19 7 23 15 7 19 5 19 -20 0z"/>
<path d="M10 10 c-11 -7 3 -10 45 -9 43 0 54 3 40 9 -27 12 -67 12 -85 0z"/>
<path d="M5638 3 c6 -2 18 -2 25 0 6 3 1 5 -13 5 -14 0 -19 -2 -12 -5z"/>
</g>
</svg>
