<?xml version="1.0" standalone="no"?>
<!DOCTYPE svg PUBLIC "-//W3C//DTD SVG 20010904//EN"
 "http://www.w3.org/TR/2001/REC-SVG-20010904/DTD/svg10.dtd">
<svg version="1.0" xmlns="http://www.w3.org/2000/svg"
 width="1200.000000pt" height="1200.000000pt" viewBox="0 0 1200.000000 1200.000000"
 preserveAspectRatio="xMidYMid meet">
<metadata>
Created by potrace 1.11, written by Peter Selinger 2001-2013
</metadata>
<g transform="translate(0.000000,1200.000000) scale(0.100000,-0.100000)"
fill="#000000" stroke="none">
<path d="M7049 11282 c-30 -20 -67 -58 -84 -84 -29 -46 -56 -67 -35 -29 5 11
10 28 10 38 -1 17 -1 17 -14 1 -28 -37 -33 -10 -11 60 6 18 4 21 -9 16 -9 -3
-16 -10 -16 -15 0 -6 -10 -23 -22 -39 -32 -44 -70 -41 -88 6 -13 32 -16 34
-27 18 -9 -13 -10 -21 -2 -31 18 -21 -6 -15 -26 7 -10 11 -21 17 -26 14 -4 -2
-18 1 -29 8 -17 11 -22 11 -29 0 -4 -7 -15 -10 -24 -6 -11 4 -17 1 -17 -9 0
-13 -7 -12 -39 6 -39 21 -40 21 -60 3 -12 -11 -21 -25 -21 -32 0 -22 -18 -25
-38 -7 -42 40 -82 54 -123 43 -22 -6 -45 -10 -52 -9 -39 5 -67 -2 -67 -17 0
-10 -6 -14 -15 -11 -8 4 -16 3 -19 -1 -2 -4 -81 -7 -174 -7 -127 1 -169 -2
-165 -11 4 -12 -35 -27 -49 -18 -5 3 -2 12 8 18 27 20 -141 8 -196 -14 -25
-10 -72 -23 -106 -29 -33 -6 -86 -25 -118 -42 -31 -17 -60 -29 -63 -25 -3 3
-27 -5 -52 -18 -78 -41 -311 -119 -390 -130 -53 -8 -200 -75 -230 -105 -11
-11 -28 -21 -36 -21 -8 0 -24 -9 -35 -20 -11 -11 -33 -20 -50 -20 -22 0 -28
-4 -24 -15 5 -12 -3 -15 -32 -16 -22 -1 -47 0 -57 1 -13 1 -17 -4 -15 -17 2
-13 -4 -18 -22 -19 -68 -4 -153 -22 -160 -35 -5 -7 -12 -10 -16 -6 -4 4 -13 2
-21 -4 -7 -7 -28 -9 -48 -6 -19 3 -35 2 -35 -4 0 -5 6 -9 14 -9 8 0 18 -5 22
-11 5 -9 -1 -10 -22 -5 l-29 6 23 -19 c31 -27 28 -33 -13 -25 -23 4 -35 2 -35
-5 0 -6 -7 -11 -16 -11 -12 0 -15 -6 -10 -25 5 -20 3 -25 -13 -25 -29 0 -33
-13 -16 -54 10 -23 24 -38 40 -42 29 -7 33 -23 8 -25 -28 -3 -57 -5 -72 -7 -7
-1 -11 -8 -7 -17 4 -10 -1 -15 -14 -15 -11 0 -24 -9 -30 -20 -8 -16 -6 -26 11
-50 18 -24 20 -32 9 -45 -8 -10 -9 -15 -1 -15 6 0 11 -7 11 -16 0 -10 -6 -14
-15 -10 -12 4 -13 2 -2 -16 9 -16 9 -22 0 -25 -7 -3 -13 -11 -13 -19 0 -8 -7
-17 -15 -20 -8 -4 -15 -12 -15 -19 0 -10 6 -11 28 -3 37 14 90 4 126 -25 27
-22 30 -47 5 -47 -6 0 -8 3 -5 8 5 9 -49 7 -112 -4 -46 -7 -60 -20 -43 -37 8
-8 11 -8 11 1 0 7 14 12 35 12 19 0 35 -5 35 -11 0 -5 -6 -7 -12 -3 -9 5 -8 2
1 -10 13 -15 12 -18 -7 -23 -27 -7 -28 -18 -4 -28 16 -7 15 -8 -3 -15 -11 -5
-33 -9 -48 -9 -22 -1 -25 -4 -16 -14 13 -13 51 -18 43 -6 -2 4 9 7 25 7 20 -1
28 -5 24 -14 -3 -8 -9 -14 -14 -14 -5 0 -9 -11 -9 -24 0 -16 -11 -32 -30 -46
-17 -12 -30 -30 -30 -41 0 -11 -7 -22 -15 -25 -23 -9 -18 -24 7 -21 16 1 25
-6 32 -28 6 -16 18 -36 26 -42 10 -9 12 -15 4 -20 -6 -5 -13 -16 -17 -26 -4
-10 -11 -15 -17 -12 -13 8 -13 -1 2 -25 10 -16 10 -24 0 -40 -10 -16 -10 -20
2 -20 21 0 38 24 25 37 -7 7 -3 12 15 15 l26 5 -22 -35 c-12 -20 -23 -56 -25
-84 l-3 -48 33 16 c17 9 35 22 39 28 5 7 8 4 8 -6 0 -10 -3 -18 -7 -18 -5 0
-24 -15 -44 -33 -27 -24 -35 -39 -34 -62 1 -16 3 -43 3 -58 2 -24 5 -27 22
-22 27 9 25 -5 -5 -34 -21 -19 -25 -32 -25 -79 0 -59 1 -59 36 3 11 21 54 34
54 17 0 -5 -7 -15 -16 -23 -21 -18 -84 -113 -84 -129 0 -7 7 -10 15 -6 19 7
19 2 -1 -36 -15 -28 -15 -33 -1 -43 13 -9 13 -13 1 -30 -8 -10 -14 -27 -14
-37 0 -10 -9 -36 -20 -57 l-19 -39 24 3 c30 3 30 2 5 -44 -32 -59 -50 -111
-39 -111 6 0 0 -18 -13 -41 -18 -32 -20 -42 -9 -49 10 -5 12 -22 9 -59 -3 -28
-1 -48 4 -45 4 3 15 -1 23 -10 11 -10 13 -28 10 -65 -3 -30 -1 -52 6 -56 23
-15 26 -50 8 -84 -17 -33 -18 -36 -2 -54 10 -10 25 -16 35 -14 15 4 17 1 12
-21 -11 -44 -10 -47 10 -44 14 3 18 -1 14 -16 -4 -15 -1 -18 14 -14 17 4 19 1
13 -16 -8 -29 18 -66 47 -67 16 0 22 -5 20 -17 -2 -12 2 -16 13 -12 11 5 15
-2 16 -27 2 -43 2 -40 -7 -63 -5 -13 -4 -17 3 -13 16 10 14 -150 -2 -188 -6
-17 -29 -48 -49 -69 -24 -26 -36 -48 -36 -67 0 -15 -4 -31 -10 -34 -5 -3 -10
-32 -10 -64 0 -43 5 -62 20 -79 11 -12 20 -25 20 -30 0 -14 29 -36 51 -39 13
-2 19 3 19 16 0 10 7 38 15 62 9 23 17 61 20 83 2 23 5 43 6 46 1 3 1 13 0 22
-3 24 17 58 33 58 12 0 26 59 26 113 0 19 -1 19 -20 2 -11 -10 -17 -22 -14
-26 3 -5 0 -9 -5 -9 -16 0 -13 30 3 36 15 6 32 61 22 71 -3 3 -12 -10 -20 -28
-14 -34 -14 -34 -15 -6 -1 15 7 35 18 46 16 16 30 59 32 101 0 8 7 32 15 53
13 34 13 37 -5 37 -11 0 -23 -12 -31 -30 -7 -16 -16 -30 -21 -30 -12 0 -11 17
1 25 6 4 10 14 9 23 -3 37 0 45 15 33 11 -9 19 -5 37 20 13 18 19 34 13 36 -6
2 -6 34 -1 86 4 45 7 91 7 102 0 11 0 49 -1 85 0 36 -4 79 -8 97 -7 25 -6 31
5 26 10 -4 12 0 8 11 -7 19 -16 20 -32 4 -9 -9 -12 -6 -12 13 0 14 5 30 12 37
9 9 9 12 -1 12 -9 0 -12 9 -9 25 3 14 1 28 -3 31 -5 3 -12 -8 -15 -25 -4 -17
-13 -36 -20 -42 -8 -6 -11 -15 -8 -20 3 -5 1 -9 -4 -9 -17 0 -22 29 -7 44 8 8
15 20 15 27 0 6 8 26 19 43 20 33 38 86 26 74 -5 -4 -14 0 -21 9 -11 15 -13
12 -23 -25 -15 -54 -36 -46 -27 11 6 36 5 39 -9 27 -8 -7 -13 -15 -11 -18 9
-8 -23 -34 -34 -27 -5 3 -7 0 -5 -7 4 -9 -2 -14 -15 -15 -11 -1 -20 2 -20 8 0
5 -11 9 -24 9 -33 0 -37 10 -25 56 12 44 29 68 23 32 -3 -13 0 -30 6 -38 9
-13 11 -13 20 0 5 8 10 27 10 41 0 17 8 30 24 39 21 11 23 15 13 34 -7 11 -16
24 -21 27 -11 9 3 69 16 69 6 0 7 7 4 16 -3 8 -2 12 4 9 6 -4 10 7 10 24 0 16
5 33 10 36 5 3 10 14 10 23 -1 13 -5 11 -20 -10 -14 -18 -26 -24 -41 -21 -20
5 -22 28 -2 28 14 0 72 61 113 119 19 27 52 67 73 88 22 22 35 43 31 50 -4 6
-3 8 4 4 6 -3 14 -1 18 5 4 8 9 7 16 -2 7 -11 8 -9 6 6 -5 24 -42 23 -70 -2
-10 -9 -21 -13 -24 -10 -7 7 -55 -60 -86 -118 -9 -17 -23 -37 -32 -44 -9 -8
-16 -19 -16 -26 0 -7 -7 -18 -15 -25 -25 -20 -19 12 10 54 14 20 25 39 25 41
0 4 21 37 83 128 10 16 16 31 13 34 -3 4 -6 1 -6 -6 0 -7 -4 -10 -8 -7 -12 7
-76 -60 -68 -72 3 -5 -1 -15 -9 -22 -13 -11 -14 -10 -9 4 5 12 2 15 -10 10
-10 -4 -16 -1 -16 9 0 9 -10 17 -22 19 -13 2 -24 11 -26 21 -3 14 0 16 22 7
18 -6 25 -6 23 1 -3 13 50 55 59 46 3 -3 -6 -17 -20 -30 -35 -32 -33 -41 4
-22 17 9 30 22 30 30 0 8 16 29 35 48 19 19 35 40 35 48 0 8 9 20 20 27 18 11
20 10 20 -13 0 -14 4 -25 9 -25 18 0 69 71 64 89 -3 11 3 24 15 32 10 8 22 28
26 44 5 21 4 26 -3 15 -11 -16 -24 -8 -27 18 -2 10 13 29 37 46 21 17 35 34
31 38 -10 10 -42 0 -42 -13 0 -5 -8 -9 -17 -9 -15 0 -13 4 7 20 14 11 21 20
17 20 -11 0 48 50 60 50 4 0 14 9 21 20 7 11 8 20 3 20 -14 0 0 42 21 64 10
11 18 28 18 38 0 10 5 18 12 18 6 0 9 3 6 6 -3 3 12 24 33 47 22 23 42 52 45
65 4 12 15 27 25 33 11 5 17 14 14 19 -3 5 4 11 15 15 11 3 35 21 54 40 27 25
49 36 92 44 61 12 82 21 46 21 -12 0 -22 3 -22 8 0 4 18 6 40 4 25 -3 40 0 40
7 0 6 15 11 34 11 19 0 38 5 41 10 3 6 14 9 23 9 13 -1 12 -3 -3 -7 -24 -6 72
-31 123 -32 45 0 41 23 -8 48 l-40 20 24 16 c23 15 29 14 92 -10 64 -24 123
-26 109 -4 -3 5 -1 11 4 14 5 3 12 -2 15 -11 4 -9 2 -19 -4 -23 -7 -5 -6 -11
5 -20 8 -7 18 -10 21 -7 4 3 13 0 21 -8 8 -8 20 -15 26 -15 6 0 -3 10 -20 23
-18 12 -33 25 -33 29 0 10 50 2 63 -11 6 -6 23 -11 38 -11 15 0 29 -7 33 -15
6 -17 51 -20 61 -5 4 6 11 7 17 4 6 -4 8 -2 4 4 -3 6 -2 13 4 17 5 3 10 1 10
-4 0 -6 7 -11 15 -11 8 0 15 -4 15 -8 0 -5 19 -19 42 -32 39 -22 52 -23 196
-22 150 0 155 0 178 -23 13 -13 36 -30 51 -37 17 -9 27 -20 25 -31 -2 -9 2
-17 8 -17 5 0 10 5 10 10 0 6 7 10 15 10 18 0 20 -17 4 -22 -9 -3 -9 -9 0 -25
6 -12 11 -29 11 -38 0 -18 52 -75 69 -75 6 0 12 6 12 13 1 6 5 -10 10 -38 5
-31 4 -51 -1 -53 -15 -6 -12 -29 5 -36 10 -3 15 -19 15 -45 0 -34 -5 -42 -34
-59 -18 -11 -35 -29 -38 -40 -6 -23 31 -86 61 -102 19 -10 20 -30 1 -75 -4
-11 -11 -28 -14 -37 -3 -10 -15 -18 -26 -18 -12 0 -18 5 -15 10 3 6 1 10 -5
10 -7 0 -10 -7 -6 -15 3 -9 -4 -21 -19 -31 -18 -12 -25 -25 -25 -50 0 -27 -6
-36 -30 -49 -17 -9 -36 -13 -42 -9 -7 4 -8 3 -4 -4 4 -7 1 -12 -7 -12 -15 0
-28 -28 -31 -68 -3 -32 13 -38 31 -12 20 29 40 11 22 -19 -16 -24 -42 -37 -47
-22 -6 17 -29 13 -36 -5 -10 -27 -7 -34 15 -34 20 0 21 -3 15 -57 -4 -31 -9
-68 -12 -80 -5 -17 -2 -22 7 -20 8 2 11 2 7 0 -5 -3 -8 -17 -8 -33 0 -24 -5
-30 -32 -35 -18 -4 -46 -22 -61 -39 -16 -17 -36 -31 -45 -31 -9 0 -18 -9 -20
-19 -3 -14 0 -17 12 -13 11 4 16 1 16 -11 0 -9 16 -28 35 -42 38 -27 40 -43 7
-48 -12 -2 -22 -8 -22 -13 0 -6 -5 -7 -10 -4 -6 4 -8 10 -5 15 3 5 1 11 -5 15
-5 3 -10 -2 -10 -12 0 -11 -5 -24 -11 -30 -15 -15 -2 -33 19 -26 9 3 -2 -13
-26 -36 -25 -25 -41 -48 -38 -56 3 -9 -7 -21 -24 -32 -17 -9 -30 -21 -30 -25
0 -4 -14 -8 -30 -8 l-30 0 14 35 c15 34 15 35 -9 35 -28 0 -41 -16 -37 -46 3
-21 -1 -22 -105 -23 -59 -1 -112 -6 -117 -12 -6 -5 -31 -9 -57 -9 -26 0 -50
-4 -53 -9 -3 -5 -31 -8 -62 -7 -30 1 -57 -1 -60 -5 -8 -14 -94 9 -91 24 5 27
-125 -15 -145 -47 -4 -6 -10 -7 -14 -4 -3 4 -12 2 -19 -5 -16 -15 9 -36 43
-37 26 0 26 -3 10 -31 -11 -17 -10 -23 0 -26 16 -6 5 -23 -15 -23 -9 0 -13 6
-10 14 3 8 -1 17 -8 20 -8 3 -12 14 -10 26 5 25 -10 26 -35 2 -12 -11 -16 -22
-11 -31 5 -8 0 -28 -13 -52 -21 -39 -43 -54 -32 -21 5 15 5 15 -6 1 -7 -8 -21
-20 -31 -25 -17 -10 48 -11 201 -6 48 2 55 16 15 30 -27 10 -26 10 15 11 42 1
51 -6 32 -25 -8 -8 -6 -15 5 -24 13 -11 20 -11 40 0 14 7 28 10 32 6 8 -8 -41
-56 -57 -56 -7 0 -6 -7 2 -19 14 -23 -3 -51 -33 -51 -10 0 -29 -5 -43 -11 -21
-10 -23 -15 -15 -31 5 -10 6 -17 2 -16 -14 3 -76 -14 -88 -25 -6 -6 -10 -22
-8 -36 4 -26 4 -26 -12 -6 -17 20 -17 20 -10 -3 4 -15 2 -24 -9 -28 -9 -3 -16
-12 -16 -20 0 -7 -10 -22 -22 -34 -23 -21 -23 -21 7 -38 18 -10 17 -11 -12
-12 -38 0 -44 -17 -10 -25 31 -8 97 -1 98 11 1 5 5 17 10 27 6 11 6 17 0 17
-6 0 -8 7 -5 15 7 18 31 20 36 4 3 -9 9 -9 25 -1 20 11 132 0 156 -15 6 -3 23
-6 38 -5 16 0 29 -4 29 -10 0 -6 14 -8 37 -3 37 7 38 7 19 -13 -17 -20 -17
-22 0 -50 24 -41 13 -62 -33 -64 -76 -3 -94 -5 -116 -16 -12 -5 -30 -13 -39
-16 -29 -9 -20 -21 15 -21 21 0 31 -4 29 -13 -6 -31 77 -68 94 -41 3 5 12 9
21 9 13 0 13 -3 3 -15 -7 -8 -18 -15 -24 -15 -6 0 -22 -9 -36 -20 l-25 -20 23
0 c12 0 22 4 22 10 0 13 66 24 87 15 10 -4 29 -9 43 -10 14 -2 19 -1 12 2 -22
9 22 33 72 39 42 6 46 5 46 -14 0 -19 3 -20 27 -11 17 6 30 6 36 0 7 -7 17 -6
30 1 11 5 37 7 58 4 33 -5 39 -4 39 12 0 12 13 23 36 31 19 7 49 26 66 43 16
16 36 27 44 24 7 -3 20 1 28 9 8 8 22 15 31 15 12 0 15 5 11 16 -3 9 -6 18 -6
20 0 3 -4 2 -10 -1 -21 -13 -8 5 28 40 33 32 35 37 20 46 -9 5 -15 16 -12 23
4 9 -3 16 -18 19 -20 3 -18 6 19 23 49 22 52 29 21 38 -23 6 -23 6 -3 21 11 9
27 21 35 28 8 7 22 11 30 10 29 -5 53 25 55 69 3 65 3 65 39 72 19 4 36 10 38
14 2 4 17 17 33 28 35 25 91 29 99 8 3 -8 14 -14 25 -14 25 0 41 -48 21 -60
-9 -6 -7 -13 8 -28 11 -11 23 -39 27 -63 4 -24 13 -55 20 -69 9 -17 10 -31 4
-42 -6 -11 -6 -19 1 -23 5 -3 10 -19 10 -34 0 -15 5 -32 12 -39 8 -8 8 -15 -2
-27 -10 -12 -10 -15 3 -15 19 0 24 -52 21 -200 -3 -139 -7 -163 -31 -187 -19
-19 -22 -20 -38 -4 -15 15 -16 14 -13 -8 2 -18 12 -27 36 -33 30 -8 32 -12 32
-50 0 -23 -7 -49 -16 -59 -8 -9 -16 -29 -18 -45 -2 -15 -12 -38 -24 -51 -11
-12 -23 -44 -27 -73 -5 -36 -14 -55 -32 -70 -24 -19 -26 -50 -3 -50 5 0 10 -4
10 -10 0 -5 -12 -10 -26 -10 -14 0 -38 -9 -54 -20 -15 -11 -30 -16 -34 -13
-24 24 -96 -5 -96 -38 0 -11 -6 -19 -13 -19 -30 0 -75 -31 -79 -55 -4 -18 -1
-25 10 -25 9 0 13 7 9 20 -3 11 -1 17 4 14 5 -3 11 1 14 8 7 17 125 20 125 3
0 -18 -52 -43 -57 -27 -3 6 -8 12 -13 12 -9 0 -8 -56 2 -66 13 -13 -21 -34
-54 -34 -35 0 -78 34 -55 44 7 3 6 4 -3 5 -18 0 -60 -17 -44 -18 7 -1 14 -10
17 -20 3 -15 11 -18 26 -14 19 5 21 2 16 -19 -5 -21 -2 -26 16 -31 15 -4 30 0
43 11 18 17 19 16 12 -20 -4 -23 -3 -38 3 -38 13 0 41 -29 41 -42 0 -6 -15 -8
-35 -6 -22 2 -35 0 -35 -7 0 -23 -84 -45 -224 -61 -22 -2 -44 -8 -50 -14 -5
-5 -18 -10 -27 -10 -9 0 -20 -7 -23 -16 -3 -8 -10 -13 -15 -10 -5 3 -32 -6
-59 -20 -30 -16 -58 -23 -70 -20 -20 7 -74 96 -71 118 2 20 -12 58 -22 58 -5
0 -9 -5 -9 -11 0 -6 -15 -8 -44 -4 -28 5 -46 3 -50 -4 -4 -6 -12 -11 -19 -11
-6 0 -1 7 11 16 12 8 22 22 22 30 0 8 6 14 13 14 8 0 24 9 37 20 18 16 21 23
12 32 -7 7 -12 20 -12 30 0 10 -5 18 -11 18 -5 0 -8 -4 -5 -9 4 -5 0 -12 -6
-14 -10 -4 -10 -7 0 -15 10 -7 5 -9 -16 -8 -29 1 -29 1 -13 26 26 41 45 60 58
60 7 0 13 9 13 20 0 18 65 70 88 70 19 0 62 57 56 73 -4 12 -1 17 10 17 9 0
16 7 16 16 0 10 6 14 15 10 10 -3 15 1 15 12 0 17 19 40 94 112 20 19 34 40
32 47 -3 6 1 16 8 22 16 13 8 71 -10 78 -8 3 -14 11 -14 19 0 9 -12 14 -37 14
-40 1 -73 19 -73 39 0 9 -9 11 -30 6 -32 -7 -39 5 -15 25 8 7 15 21 15 31 0
21 -24 25 -63 10 -20 -8 -27 -6 -32 7 -6 15 -7 15 -17 -3 -6 -10 -12 -39 -12
-65 -1 -37 -4 -44 -18 -42 -12 2 -18 -4 -18 -16 0 -11 -9 -31 -20 -45 -12 -15
-18 -33 -14 -44 4 -12 3 -14 -3 -6 -11 16 -40 -15 -45 -49 -2 -15 -11 -24 -25
-26 -13 -2 -23 -10 -23 -18 0 -7 -10 -16 -22 -19 -23 -6 -68 -88 -84 -150 -5
-19 -12 -25 -25 -22 -12 3 -16 0 -12 -9 3 -8 1 -14 -4 -14 -6 0 -11 -23 -12
-51 -1 -41 -7 -55 -29 -75 -18 -17 -23 -27 -14 -31 6 -2 12 -15 12 -29 0 -26
-29 -66 -41 -58 -10 6 -24 -65 -15 -74 4 -3 17 -7 29 -7 23 0 25 -9 13 -67 -4
-19 -1 -28 7 -28 7 0 18 -9 25 -21 10 -16 11 -24 1 -35 -9 -12 -9 -20 1 -38 7
-13 9 -29 6 -35 -4 -6 0 -25 8 -43 8 -18 20 -55 26 -83 19 -80 20 -83 31 -62
17 29 31 8 24 -34 -5 -30 -2 -45 14 -67 11 -16 18 -32 14 -35 -3 -4 6 -11 21
-16 14 -6 26 -17 26 -25 0 -22 17 -28 42 -15 13 7 29 15 37 19 20 9 38 63 23
68 -7 2 -12 11 -12 20 0 15 -2 15 -10 2 -17 -25 -31 8 -17 38 9 20 9 26 -1 30
-6 2 -12 12 -12 21 0 14 6 17 25 13 27 -5 33 -17 13 -25 -7 -2 -1 -8 14 -12
18 -5 25 -12 21 -22 -5 -13 -3 -13 15 -4 22 12 26 21 23 54 -3 26 54 78 87 79
15 1 50 -11 77 -26 27 -14 55 -26 61 -26 7 0 14 -6 17 -13 3 -9 16 -12 35 -9
21 3 29 8 25 18 -3 9 1 14 12 14 13 0 16 -6 11 -24 -7 -28 12 -47 25 -24 5 9
19 14 31 13 13 -1 29 -3 36 -4 6 0 12 -9 12 -18 1 -17 1 -17 14 -1 12 16 14
16 30 0 14 -12 20 -14 23 -5 3 10 10 10 24 2 11 -5 17 -14 14 -20 -9 -14 8
-11 32 6 14 10 24 12 28 5 3 -5 15 -10 27 -10 11 0 22 -8 25 -19 4 -15 13 -18
49 -16 34 3 44 0 44 -12 0 -10 -6 -14 -19 -10 -12 3 -22 -1 -25 -9 -3 -8 -12
-14 -20 -14 -8 0 -20 -8 -25 -17 -6 -10 -11 -12 -11 -5 0 6 -7 12 -15 12 -8 0
-15 6 -15 13 0 6 -5 4 -11 -5 -5 -10 -17 -18 -24 -18 -8 0 -15 -3 -15 -7 1
-14 28 -58 34 -55 18 7 23 -1 13 -23 -8 -17 -19 -24 -32 -23 -17 3 -20 -3 -21
-35 -1 -37 1 -40 42 -58 42 -17 59 -39 32 -39 -9 0 -8 -4 2 -10 13 -9 13 -11
0 -19 -8 -6 -12 -11 -10 -13 3 -2 19 -11 35 -20 17 -10 29 -23 27 -29 -2 -6 5
-20 14 -30 10 -11 12 -19 6 -19 -7 0 -12 -7 -12 -15 0 -8 7 -15 15 -15 8 0 15
5 15 10 0 12 50 13 68 2 9 -7 10 -15 3 -35 -11 -28 -36 -36 -44 -14 -4 9 -6 9
-6 0 -1 -7 -8 -13 -16 -13 -8 0 -15 -7 -15 -15 0 -8 8 -15 18 -15 11 0 24 -11
30 -25 6 -13 23 -27 37 -31 21 -5 25 -12 25 -46 0 -39 0 -39 -36 -36 -37 3
-45 -4 -59 -46 -4 -15 -8 -17 -17 -8 -9 9 -9 15 0 24 17 17 15 38 -4 38 -11 0
-13 -6 -9 -19 3 -11 1 -22 -5 -26 -14 -9 -13 -21 7 -40 10 -10 18 -37 19 -63
2 -26 10 -52 20 -61 15 -15 16 -14 9 9 l-7 25 23 -23 c21 -19 22 -24 9 -32 -8
-5 -22 -10 -31 -10 -27 0 -42 -25 -29 -50 13 -25 -6 -35 -50 -26 -23 4 -30 2
-30 -9 0 -14 -3 -14 -23 -1 -15 10 -27 12 -37 6 -25 -16 -70 -12 -70 6 0 11
-6 14 -22 8 -13 -4 -25 -10 -28 -14 -3 -5 -21 -11 -41 -15 -26 -5 -39 -2 -49
10 -32 39 -119 62 -106 29 3 -9 6 -17 6 -20 0 -2 6 -1 14 2 7 3 16 -2 19 -10
4 -9 11 -16 17 -16 6 0 33 -16 61 -35 27 -19 56 -32 64 -28 18 6 20 -13 3 -21
-7 -2 -2 -4 12 -3 16 1 25 -4 28 -17 2 -11 0 -16 -7 -12 -6 4 -11 2 -11 -4 0
-8 9 -10 25 -6 15 4 38 0 56 -10 21 -10 43 -14 65 -9 21 3 34 2 34 -5 0 -5 7
-10 15 -10 19 0 33 -27 27 -56 -6 -31 -13 -30 -45 2 -16 16 -33 24 -42 20 -9
-3 -13 -2 -10 4 3 6 1 10 -4 10 -6 0 -11 -12 -11 -26 0 -23 3 -25 26 -20 26 7
26 6 20 -26 -7 -37 -26 -62 -26 -34 0 9 -4 15 -10 11 -5 -3 -6 -13 -3 -23 6
-16 5 -16 -13 0 -29 26 -114 12 -114 -18 0 -8 -4 -14 -10 -14 -5 0 -10 4 -10
9 0 6 5 13 10 16 15 9 12 25 -5 25 -8 0 -15 -4 -15 -10 0 -5 -12 -13 -26 -16
-19 -5 -22 -9 -12 -15 9 -6 5 -9 -14 -9 -20 0 -32 -8 -42 -29 -9 -16 -22 -31
-31 -34 -8 -4 -15 -11 -15 -17 0 -8 15 -9 46 -4 47 7 47 7 42 -20 -3 -17 1
-34 13 -48 11 -11 19 -25 19 -31 0 -5 11 -7 24 -5 14 3 34 -3 47 -13 23 -17
23 -19 4 -19 -18 -1 -17 -2 5 -15 14 -8 32 -12 41 -9 9 2 19 -2 23 -11 3 -8
17 -15 34 -15 43 0 83 -22 78 -42 -2 -10 1 -18 7 -18 7 -1 22 -9 35 -20 19
-16 21 -23 12 -40 -8 -16 -8 -21 4 -26 19 -7 28 -45 14 -61 -12 -15 -42 -18
-33 -3 4 6 11 8 16 5 5 -3 6 1 3 9 -7 17 -17 14 -51 -17 -20 -17 -26 -19 -49
-8 -26 11 -26 12 -8 26 11 8 14 15 9 15 -6 0 -16 -5 -22 -11 -12 -12 -27 -6
-103 37 -14 7 -34 14 -45 14 -11 0 -33 13 -48 30 -16 16 -36 30 -46 30 -9 0
-26 7 -37 15 -12 8 -24 12 -26 9 -11 -10 -68 68 -68 92 0 13 -7 27 -15 30 -30
12 -34 -2 -10 -30 14 -16 25 -33 25 -38 0 -10 -40 -1 -55 13 -5 5 -18 9 -28 9
-11 0 -33 15 -49 34 -16 19 -35 33 -42 30 -7 -3 -19 2 -26 11 -7 8 -17 15 -22
15 -5 0 -24 11 -41 24 -18 13 -45 26 -60 30 -16 4 -39 18 -51 31 -13 14 -27
25 -31 25 -4 0 -27 14 -52 30 -24 17 -49 30 -54 30 -6 0 -34 23 -63 50 -29 28
-55 50 -58 50 -3 0 -28 21 -54 48 -27 26 -71 63 -99 81 -27 19 -68 52 -91 73
-29 28 -46 37 -60 32 -13 -4 -15 -3 -6 3 9 7 -9 30 -68 87 -44 43 -80 81 -80
83 0 3 -17 31 -38 62 -39 58 -58 97 -68 141 -7 34 -5 207 4 305 6 62 4 89 -8
117 -8 21 -18 38 -23 38 -13 0 -87 -122 -96 -159 -5 -20 -14 -63 -21 -96 -12
-63 -56 -168 -101 -245 -54 -91 -62 -130 -54 -292 4 -82 4 -148 1 -148 -3 0
-26 11 -51 25 -65 34 -103 39 -208 27 -115 -13 -180 -37 -287 -107 -47 -30
-96 -58 -110 -61 -14 -3 -54 -14 -89 -24 -35 -10 -69 -16 -75 -14 -6 2 -21 19
-33 37 -13 18 -31 42 -40 53 -63 70 -123 160 -171 257 -30 62 -58 114 -61 117
-4 3 -19 26 -33 51 -34 58 -81 109 -102 109 -24 0 -396 -236 -412 -261 -9 -14
51 -116 137 -234 44 -60 90 -126 102 -145 23 -35 67 -154 67 -181 0 -8 -18
-23 -40 -33 -50 -22 -99 -71 -129 -132 -14 -27 -33 -60 -42 -74 -9 -14 -21
-45 -26 -70 l-9 -45 -71 0 c-54 0 -76 -4 -91 -18 -15 -14 -47 -20 -138 -26
-144 -11 -226 -40 -358 -126 -19 -13 -43 -18 -77 -16 -49 2 -50 1 -120 -70
-93 -95 -163 -143 -244 -169 -22 -7 -116 -50 -210 -95 -93 -46 -183 -86 -200
-90 -16 -3 -50 -15 -75 -27 -70 -31 -102 -45 -150 -64 -25 -10 -54 -25 -65
-35 -11 -9 -56 -35 -100 -57 -44 -22 -90 -51 -102 -63 -20 -22 -165 -302 -241
-464 -62 -134 -99 -195 -120 -195 -7 0 -12 -6 -10 -13 5 -22 -55 -103 -74 -99
-9 2 -15 9 -12 15 2 7 -6 17 -18 22 -13 6 -24 19 -26 30 -5 25 -32 56 -43 49
-16 -10 -10 -52 9 -57 14 -4 14 -6 -5 -12 l-23 -7 0 -1269 0 -1269 6000 0
6000 0 0 1315 c0 930 -4 1314 -11 1309 -6 -3 -8 -15 -6 -26 3 -11 0 -21 -8
-25 -8 -2 -17 -14 -21 -25 -8 -26 -40 -58 -58 -58 -22 0 -28 -31 -9 -52 11
-12 20 -15 27 -8 18 18 23 10 21 -37 -1 -27 2 -53 7 -60 5 -7 5 -14 -1 -17
-11 -7 -61 53 -61 73 0 7 -4 10 -8 7 -9 -5 -112 98 -112 112 0 4 -15 23 -34
41 -51 50 -126 165 -126 194 0 46 -18 74 -77 122 -86 69 -107 102 -128 197
-65 310 -142 452 -291 537 -21 13 -56 45 -76 72 -21 26 -51 55 -68 64 -17 9
-112 41 -213 71 -100 30 -209 64 -241 75 -67 22 -128 24 -208 8 -75 -15 -185
14 -224 60 -30 36 -184 115 -265 135 -82 21 -276 39 -332 32 -27 -4 -84 -18
-126 -31 -42 -14 -81 -25 -87 -25 -16 0 -44 31 -106 117 -56 78 -89 110 -178
170 -73 49 -135 63 -289 63 -188 0 -329 36 -365 92 -20 32 -56 137 -56 166 0
30 -97 318 -120 357 -10 17 -25 57 -35 90 -20 73 -43 112 -107 187 -26 31 -48
62 -48 68 0 7 -19 46 -42 86 -28 49 -55 83 -81 100 -36 24 -39 29 -34 60 3 19
20 58 38 87 59 95 134 231 152 277 10 25 27 62 38 83 29 56 93 273 128 432 23
110 61 338 61 371 0 4 7 3 16 0 24 -9 79 19 107 55 13 19 41 67 61 107 19 40
44 85 54 100 46 65 70 123 85 202 21 106 38 250 42 355 4 109 28 314 62 532
13 87 14 107 2 135 -31 74 -108 128 -164 114 -32 -8 -38 6 -24 55 10 32 10 45
0 61 -16 25 -9 33 18 19 31 -17 40 19 12 53 -12 14 -13 38 -12 181 1 47 -18
106 -44 135 -7 8 -16 26 -20 38 -6 21 -4 23 13 18 29 -10 35 8 12 37 -27 34
-25 40 13 32 l32 -7 -27 22 c-30 23 -39 53 -13 44 18 -7 11 21 -12 47 -8 10
-15 31 -15 48 -1 18 -10 38 -25 50 -22 20 -33 48 -14 37 5 -4 12 8 16 25 5 22
2 36 -11 50 -16 18 -16 19 2 19 18 1 17 2 -3 19 -27 23 -28 28 -7 33 13 2 11
8 -10 31 -31 34 -33 41 -6 34 17 -4 18 -2 9 14 -5 10 -14 19 -19 19 -6 0 -10
8 -10 18 0 10 -6 24 -12 32 -7 8 -3 6 9 -4 26 -22 26 -4 -1 36 -11 17 -15 35
-11 48 4 14 1 22 -10 26 -11 5 -14 14 -10 33 4 20 -1 34 -24 58 -24 27 -26 33
-12 36 13 4 11 6 -6 12 -33 11 -28 22 12 29 39 8 38 22 -2 37 -14 5 -23 12
-19 16 3 3 1 12 -5 20 -9 9 -8 13 0 13 6 0 11 -4 11 -10 0 -14 58 -12 62 2 7
21 -25 46 -46 35 -12 -6 -22 -5 -29 2 -8 8 -6 11 6 11 9 0 17 5 17 10 0 6 -5
10 -11 10 -5 0 -8 4 -5 9 3 5 -4 12 -17 15 -22 6 -22 7 -3 21 11 8 35 15 54
15 27 0 32 3 23 13 -12 15 3 37 27 37 7 0 12 6 9 13 -2 6 -14 11 -26 10 -24
-3 -29 12 -6 21 24 9 17 24 -12 28 -22 2 -30 10 -38 36 -7 26 -17 34 -47 43
-21 5 -38 14 -38 19 0 6 -13 10 -30 10 -34 0 -41 17 -10 22 37 5 22 23 -22 26
-44 4 -72 18 -62 33 3 5 15 9 27 10 22 0 22 0 -1 10 -13 5 -20 13 -17 19 7 11
-18 14 -29 3 -9 -9 -46 -12 -46 -3 0 11 40 50 53 51 7 1 -1 4 -18 8 -16 3 -34
16 -40 28 -9 17 -15 19 -29 11 -16 -9 -17 -7 -11 21 7 33 -2 37 -60 33 -11 -1
-15 1 -10 5 16 12 36 63 29 74 -4 6 -11 5 -20 -2 -20 -16 -31 -2 -16 21 10 16
9 18 -3 14 -11 -5 -14 -1 -9 12 5 14 -1 11 -24 -10 -37 -35 -45 -32 -32 13 l9
33 -25 -17 -26 -17 7 32 c6 27 4 32 -15 37 -13 3 -19 11 -16 19 10 27 -5 14
-16 -13 -9 -22 -12 -24 -15 -10 -6 22 45 83 66 80 10 -2 11 0 3 3 -9 4 -7 13
9 35 12 17 20 32 18 33 -2 2 -55 0 -118 -5 -63 -5 -116 -7 -119 -4 -3 3 3 12
14 21 18 15 18 15 0 10 -15 -5 -17 -2 -13 14 5 20 -7 28 -17 11 -3 -5 -15 -11
-26 -14 -16 -4 -18 -2 -10 13 15 28 13 30 -27 30 l-37 0 24 17 c14 9 30 22 35
29 6 6 19 17 30 24 l20 12 -20 -7 c-11 -4 -33 -11 -50 -15 -16 -5 -41 -12 -55
-16 -24 -7 -24 -7 -7 13 17 20 23 53 10 53 -5 0 -17 -7 -27 -15 -10 -8 -23
-12 -28 -9 -15 10 -70 -18 -101 -51 -19 -20 -30 -26 -34 -17 -2 6 -13 12 -24
12 -10 0 -19 5 -19 11 0 6 7 9 15 5 8 -3 15 -3 15 0 0 3 -7 12 -15 20 -15 15
-20 55 -10 66 3 3 23 2 45 -2 28 -5 45 -3 57 6 15 12 16 13 2 8 -23 -7 -36 16
-15 28 20 11 20 25 1 45 -18 17 -51 12 -103 -15 -28 -15 -34 -15 -42 -2 -8 12
-10 12 -15 -2 -9 -22 -36 -32 -47 -16 -6 10 -10 7 -14 -9 -4 -14 -14 -23 -25
-23 -11 0 -22 -7 -25 -15 -11 -29 -23 -15 -14 17 11 37 44 75 74 84 23 7 36
22 36 42 0 19 -13 15 -71 -26z m-999 -252 c0 -5 -9 -14 -20 -20 -22 -12 -27
-1 -8 18 14 14 28 16 28 2z m150 -5 c0 -8 -4 -15 -10 -15 -5 0 -7 7 -4 15 4 8
8 15 10 15 2 0 4 -7 4 -15z m-230 -65 c0 -5 -2 -10 -4 -10 -3 0 -8 5 -11 10
-3 6 -1 10 4 10 6 0 11 -4 11 -10z m1590 -50 c0 -5 -7 -10 -15 -10 -8 0 -15 5
-15 10 0 6 7 10 15 10 8 0 15 -4 15 -10z m156 -25 c-16 -17 -36 -20 -36 -6 0
8 17 16 43 20 5 0 2 -6 -7 -14z m-91 -35 c-20 -22 -35 -26 -35 -10 0 6 10 15
23 20 32 13 32 12 12 -10z m-47 -51 c-2 -6 -7 -10 -11 -10 -4 1 -14 1 -23 1
-8 0 -12 5 -9 10 8 13 48 13 43 -1z m-1326 -31 c-7 -7 -12 -8 -12 -2 0 14 12
26 19 19 2 -3 -1 -11 -7 -17z m1508 -48 c0 -5 -7 -10 -15 -10 -8 0 -15 5 -15
10 0 6 7 10 15 10 8 0 15 -4 15 -10z m-1984 -46 c-4 -9 -9 -15 -11 -12 -3 3
-3 13 1 22 4 9 9 15 11 12 3 -3 3 -13 -1 -22z m2142 -154 c-7 -10 -14 -17 -17
-15 -4 4 18 35 25 35 2 0 -1 -9 -8 -20z m-3933 -160 c3 -5 1 -10 -4 -10 -6 0
-11 5 -11 10 0 6 2 10 4 10 3 0 8 -4 11 -10z m35 -188 c0 -4 -15 -8 -32 -9
-30 -1 -31 -1 -8 7 34 11 40 11 40 2z m2120 -242 c0 -5 -5 -10 -11 -10 -5 0
-7 5 -4 10 3 6 8 10 11 10 2 0 4 -4 4 -10z m127 -6 c-3 -3 -12 -4 -19 -1 -8 3
-5 6 6 6 11 1 17 -2 13 -5z m43 -14 c0 -5 -4 -10 -10 -10 -5 0 -10 5 -10 10 0
6 5 10 10 10 6 0 10 -4 10 -10z m-2288 -100 c6 0 5 -6 -2 -15 -8 -10 -16 -12
-19 -6 -13 20 -50 0 -56 -30 -7 -29 -19 -37 -29 -20 -4 5 -4 15 -1 23 8 20 68
59 83 53 8 -3 18 -5 24 -5z m272 -15 c-4 -8 -11 -12 -16 -9 -6 4 -5 10 3 15
19 12 19 11 13 -6z m-58 -30 c-8 -8 -18 -15 -22 -15 -3 0 -1 7 6 15 7 8 17 15
22 15 5 0 3 -7 -6 -15z m59 -105 c-3 -5 -12 -7 -20 -3 -21 7 -19 13 6 13 11 0
18 -4 14 -10z m-86 -39 c-28 -23 -40 -26 -33 -8 4 12 45 36 53 30 2 -1 -7 -11
-20 -22z m-223 -18 c-10 -10 -19 5 -10 18 6 11 8 11 12 0 2 -7 1 -15 -2 -18z
m54 -41 c0 -5 -18 -23 -40 -41 -25 -20 -40 -27 -40 -18 0 8 17 26 37 40 42 30
43 30 43 19z m157 -79 c-9 -9 -19 -14 -23 -11 -10 10 6 28 24 28 15 0 15 -1
-1 -17z m78 1 c14 -6 13 -9 -6 -30 -12 -13 -28 -24 -35 -24 -7 0 -20 -15 -29
-32 -28 -58 -43 -74 -58 -58 -8 8 -8 11 0 6 7 -4 14 6 18 26 10 46 46 103 55
88 6 -9 13 -9 29 -1 24 13 28 23 6 15 -8 -4 -15 -1 -15 5 0 12 11 14 35 5z
m-290 -114 c-3 -5 -11 -10 -16 -10 -6 0 -7 5 -4 10 3 6 11 10 16 10 6 0 7 -4
4 -10z m155 -44 c0 -3 -4 -8 -10 -11 -5 -3 -10 -1 -10 4 0 6 5 11 10 11 6 0
10 -2 10 -4z m2272 -356 c4 0 8 7 8 16 0 8 5 12 10 9 12 -7 14 -36 3 -34 -5 1
-25 1 -45 0 -31 -1 -38 -5 -38 -20 0 -11 -5 -23 -10 -26 -18 -11 0 -26 19 -15
10 5 21 7 23 4 3 -2 3 7 1 21 -5 23 -3 25 31 25 l37 0 -4 -42 c-3 -24 -7 -48
-9 -53 -1 -6 6 -22 17 -36 21 -27 55 -45 55 -29 0 6 -5 10 -10 10 -6 0 -6 7 2
19 14 23 31 18 48 -15 10 -17 16 -21 21 -12 4 6 24 13 43 13 32 2 37 -1 46
-31 13 -39 6 -71 -21 -97 -11 -10 -19 -24 -19 -31 0 -21 -56 -56 -68 -44 -8 8
-13 6 -18 -8 -4 -10 -13 -22 -20 -27 -7 -4 -11 -14 -8 -22 4 -10 0 -12 -15 -8
-12 3 -21 12 -21 19 0 8 -4 14 -10 14 -5 0 -10 -8 -10 -18 0 -10 -13 -26 -30
-35 -16 -10 -30 -23 -30 -29 0 -6 -9 -8 -20 -5 -11 3 -23 1 -26 -5 -4 -6 -10
-5 -15 3 -4 7 -18 14 -31 14 -16 0 -23 5 -21 19 1 11 -8 27 -20 36 -19 16 -20
20 -7 35 12 14 12 18 0 25 -17 11 -9 21 18 23 17 1 18 5 11 25 -16 42 -11 62
16 62 17 0 23 -4 19 -15 -4 -8 -10 -12 -15 -9 -14 8 -11 -19 5 -41 7 -11 16
-29 19 -40 2 -11 5 10 6 47 1 68 17 122 32 112 5 -3 9 2 9 11 0 10 -6 15 -12
12 -7 -2 -22 -1 -33 4 -19 7 -19 8 -1 8 18 1 18 2 2 20 -12 13 -14 24 -8 42 6
15 5 30 -2 42 -9 15 -7 21 13 36 16 12 21 23 16 32 -8 12 -6 12 8 0 9 -7 18
-10 18 -5 1 9 4 21 9 39 1 6 7 -2 13 -17 6 -16 14 -28 19 -28z m-118 1 c6 -8
-26 -51 -38 -51 -11 0 -7 35 6 48 14 14 25 15 32 3z m-2314 -103 c-1 -27 -50
-93 -50 -67 0 9 9 28 21 43 11 14 17 30 14 36 -3 5 -1 10 4 10 6 0 11 -10 11
-22z m2098 -40 c15 -15 15 -28 1 -28 -5 0 -7 5 -4 10 3 6 -1 10 -9 10 -9 0
-16 5 -16 10 0 14 13 13 28 -2z m262 -47 c0 -6 -4 -13 -10 -16 -5 -3 -10 1
-10 9 0 9 5 16 10 16 6 0 10 -4 10 -9z m-2364 -88 c-10 -10 -19 5 -10 18 6 11
8 11 12 0 2 -7 1 -15 -2 -18z m-26 -34 c-7 -11 -14 -19 -16 -16 -7 7 7 37 17
37 6 0 5 -9 -1 -21z m2247 -11 c-3 -7 -5 -2 -5 12 0 14 2 19 5 13 2 -7 2 -19
0 -25z m-82 2 c3 -5 -1 -10 -10 -10 -9 0 -13 5 -10 10 3 6 8 10 10 10 2 0 7
-4 10 -10z m-63 -59 c-4 -11 -7 -10 -14 2 -4 8 -5 23 -1 33 6 16 7 16 13 -2 4
-10 5 -25 2 -33z m-2027 -61 c-3 -5 -10 -10 -16 -10 -5 0 -9 5 -9 10 0 6 7 10
16 10 8 0 12 -4 9 -10z m85 -29 c0 -26 -10 -51 -21 -51 -10 0 -12 31 -3 54 9
22 24 20 24 -3z m-124 -71 c-8 -25 -14 -36 -15 -26 -1 22 22 92 26 79 2 -5 -3
-28 -11 -53z m63 43 c0 -10 -4 -27 -9 -38 -7 -16 -9 -13 -9 18 -1 20 4 37 9
37 6 0 10 -8 9 -17z m121 -87 c0 -3 -4 -8 -10 -11 -5 -3 -10 -1 -10 4 0 6 5
11 10 11 6 0 10 -2 10 -4z m992 -311 c0 -5 -5 -11 -11 -13 -6 -2 -11 4 -11 13
0 9 5 15 11 13 6 -2 11 -8 11 -13z m76 -167 c-7 -19 -38 -22 -38 -4 0 10 9 16
21 16 12 0 19 -5 17 -12z m-28 -108 c0 -5 -4 -10 -9 -10 -6 0 -13 5 -16 10 -3
6 1 10 9 10 9 0 16 -4 16 -10z m1045 -970 c3 -6 -4 -10 -17 -10 -18 0 -20 2
-8 10 19 12 18 12 25 0z m-185 -170 c0 -5 -2 -10 -4 -10 -3 0 -8 5 -11 10 -3
6 -1 10 4 10 6 0 11 -4 11 -10z m-757 -183 c-3 -5 -12 1 -20 12 -8 12 -11 26
-7 32 4 8 11 3 20 -12 7 -13 10 -28 7 -32z m807 7 c0 -2 -9 -4 -20 -4 -11 0
-20 4 -20 9 0 5 9 7 20 4 11 -3 20 -7 20 -9z m-847 -9 c-3 -9 -8 -14 -10 -11
-3 3 -2 9 2 15 9 16 15 13 8 -4z m-188 -15 c3 -5 1 -10 -4 -10 -6 0 -11 5 -11
10 0 6 2 10 4 10 3 0 8 -4 11 -10z m185 -111 c0 -6 -4 -7 -10 -4 -5 3 -10 11
-10 16 0 6 5 7 10 4 6 -3 10 -11 10 -16z m90 -10 c0 -6 -13 -27 -30 -46 -30
-34 -39 -76 -20 -88 14 -9 -4 -31 -31 -38 -19 -5 -20 -2 -14 33 5 33 3 40 -14
50 -33 17 -22 90 11 78 7 -3 27 0 43 7 38 17 55 18 55 4z m130 -13 c0 -3 -4
-8 -10 -11 -5 -3 -10 -1 -10 4 0 6 5 11 10 11 6 0 10 -2 10 -4z m762 -36 c15
-7 26 -16 24 -19 -3 -4 4 -24 14 -46 21 -45 26 -95 9 -95 -6 0 -9 -7 -5 -15 3
-8 2 -15 -3 -15 -5 0 -11 -9 -14 -20 -5 -19 -12 -21 -89 -18 l-83 3 -10 42
c-12 48 -25 66 -25 34 0 -37 -18 -58 -54 -65 -39 -8 -105 15 -107 36 -1 7 -4
2 -8 -11 -6 -21 -14 -25 -56 -28 -75 -5 -80 2 -80 104 l0 87 30 0 c67 -1 95
-4 94 -11 -1 -5 0 -19 1 -33 2 -25 2 -25 10 3 17 55 53 72 100 47 13 -7 24 -5
43 10 31 25 37 25 37 1 0 -11 -8 -22 -17 -24 -14 -4 -14 -5 3 -6 12 0 28 6 35
16 32 38 98 48 151 23z m246 -12 c7 -1 11 -7 8 -15 -3 -7 3 -19 14 -25 24 -15
25 -25 5 -44 -17 -17 -21 -49 -5 -39 7 4 7 -3 0 -20 -13 -34 -13 -35 8 -36 28
-1 -80 -28 -114 -29 -44 0 -56 20 -62 105 -4 72 -4 75 22 86 14 7 26 16 26 21
0 7 21 6 98 -4z m-826 -90 c-7 -7 -12 -8 -12 -2 0 14 12 26 19 19 2 -3 -1 -11
-7 -17z m13 -28 c3 -5 2 -10 -4 -10 -5 0 -13 5 -16 10 -3 6 -2 10 4 10 5 0 13
-4 16 -10z m-245 -135 c0 -19 -5 -25 -22 -25 -21 1 -21 2 -5 11 9 5 17 17 17
24 0 8 2 15 5 15 3 0 5 -11 5 -25z m1000 -74 c0 -3 -12 -14 -26 -24 l-25 -19
5 29 c2 15 5 29 5 30 3 4 41 -10 41 -16z m-205 -22 c4 -12 2 -26 -4 -32 -13
-13 -18 -9 -26 26 -6 21 -4 27 8 27 9 0 19 -9 22 -21z m142 -481 c-3 -8 -6 -5
-6 6 -1 11 2 17 5 13 3 -3 4 -12 1 -19z m-27 -174 c0 -3 -7 -12 -15 -20 -16
-17 -18 -14 -9 10 6 15 24 23 24 10z m-230 -664 c0 -4 -11 -5 -25 -2 -14 2
-23 8 -20 12 6 10 45 1 45 -10z m65 -550 c3 -5 1 -10 -4 -10 -6 0 -11 5 -11
10 0 6 2 10 4 10 3 0 8 -4 11 -10z m-1131 -55 c11 -8 17 -18 13 -21 -9 -9 -48
2 -72 20 -19 15 -19 15 10 15 17 0 39 -6 49 -14z m2386 -886 c0 -6 -8 -28 -19
-48 -10 -20 -24 -49 -30 -64 -12 -30 -36 -27 -26 3 4 12 -2 23 -15 33 -30 21
-24 69 10 78 40 11 80 10 80 -2z m-278 -591 c-7 -7 -12 -8 -12 -2 0 14 12 26
19 19 2 -3 -1 -11 -7 -17z m-32 -68 c0 -5 -2 -10 -4 -10 -3 0 -8 5 -11 10 -3
6 -1 10 4 10 6 0 11 -4 11 -10z m-7015 -10 c-3 -5 -12 -7 -20 -3 -21 7 -19 13
6 13 11 0 18 -4 14 -10z m6970 -107 c-9 -32 -24 -66 -32 -75 -8 -9 -12 -21 -9
-26 3 -5 -1 -15 -9 -22 -8 -7 -17 -28 -21 -49 -8 -43 -31 -91 -44 -91 -5 0
-15 9 -23 20 -9 13 -20 18 -31 14 -12 -5 -16 0 -16 17 0 36 15 53 36 44 13 -5
15 -9 7 -12 -7 -3 -13 -12 -12 -21 0 -12 2 -13 6 -4 3 7 16 17 29 22 31 12 30
22 -1 37 -14 6 -25 7 -25 2 0 -19 -16 -8 -17 11 -2 17 2 20 18 15 14 -5 20 -2
18 7 -4 32 2 48 19 48 26 0 88 63 103 105 20 55 23 24 4 -42z m-196 -40 c-8
-9 -33 -34 -56 -56 -24 -22 -43 -46 -43 -53 0 -8 -5 -14 -11 -14 -13 0 -2 37
20 67 14 19 88 73 99 73 3 0 -2 -8 -9 -17z m-1321 -176 l-3 -22 -13 23 c-8 13
-11 31 -7 40 6 16 7 16 16 -1 6 -10 9 -28 7 -40z m1397 -99 c-4 -18 -11 -37
-16 -42 -5 -6 -9 -24 -9 -40 -1 -28 -2 -29 -14 -13 -13 17 -32 25 -22 8 3 -5
-1 -14 -9 -21 -17 -14 -20 -46 -4 -55 6 -4 13 2 16 14 3 12 9 21 14 21 13 0 6
-43 -11 -72 -15 -25 -18 -26 -42 -14 -34 18 -41 10 -23 -25 17 -33 20 -83 5
-74 -6 4 -8 15 -5 26 10 30 -5 44 -21 20 -16 -22 -10 -70 10 -83 6 -5 2 -8
-11 -8 -13 0 -24 8 -28 21 -5 15 -10 18 -18 10 -14 -14 -57 -14 -77 -1 -10 6
-11 10 -2 10 6 0 12 8 12 17 0 13 3 14 12 5 7 -7 25 -12 41 -12 23 0 27 3 22
19 -3 10 1 24 10 31 8 7 15 17 15 23 0 6 7 19 17 29 9 10 13 21 9 25 -4 4 -11
1 -16 -7 -11 -17 -11 -17 -14 23 -1 16 2 31 6 33 4 3 8 -5 9 -18 0 -22 1 -22
8 -3 5 11 4 27 -2 36 -7 11 -2 26 18 57 15 23 31 39 36 37 4 -3 10 3 13 12 6
18 39 39 64 42 10 1 12 -7 7 -31z m-3985 -17 c0 -4 -11 -6 -25 -3 -14 2 -25 6
-25 8 0 2 11 4 25 4 14 0 25 -4 25 -9z m305 -151 c3 -5 -3 -10 -14 -10 -12 0
-21 5 -21 10 0 6 6 10 14 10 8 0 18 -4 21 -10z m-369 -21 c3 -5 1 -9 -5 -9
-17 0 -41 12 -41 20 0 10 38 1 46 -11z m3738 -5 c25 -9 19 -21 -12 -26 -22 -3
-28 0 -28 14 0 19 13 22 40 12z m43 -64 c11 -16 10 -18 -1 -14 -15 6 -30 34
-18 34 4 0 13 -9 19 -20z m-17 -130 c0 -5 -5 -10 -11 -10 -5 0 -7 5 -4 10 3 6
8 10 11 10 2 0 4 -4 4 -10z m-3480 -20 c12 -8 11 -10 -7 -10 -12 0 -25 5 -28
10 -8 13 15 13 35 0z m3587 -33 c-7 -20 -15 -37 -19 -37 -5 0 -8 -13 -8 -30 0
-16 -5 -30 -11 -30 -6 0 -8 9 -4 21 4 12 3 24 -3 28 -6 3 -8 18 -5 33 3 15 9
25 14 22 5 -2 16 4 26 15 22 27 24 23 10 -22z m-1917 -77 c6 -11 8 -20 6 -20
-3 0 -10 9 -16 20 -6 11 -8 20 -6 20 3 0 10 -9 16 -20z m30 -40 c0 -5 -2 -10
-4 -10 -3 0 -8 5 -11 10 -3 6 -1 10 4 10 6 0 11 -4 11 -10z m1840 -15 c0 -19
-20 -29 -32 -17 -8 8 -7 16 2 26 14 17 30 12 30 -9z m-33 -77 c-3 -7 -5 -2 -5
12 0 14 2 19 5 13 2 -7 2 -19 0 -25z m-7 -50 c0 -32 -22 -78 -37 -78 -17 0
-16 30 2 54 10 13 11 25 4 43 -16 43 -11 58 11 30 11 -14 20 -36 20 -49z
m-2200 38 c0 -2 -7 -6 -15 -10 -8 -3 -15 -1 -15 4 0 6 7 10 15 10 8 0 15 -2
15 -4z m500 -10 c0 -11 -19 -15 -25 -6 -3 5 1 10 9 10 9 0 16 -2 16 -4z m80
-31 c0 -8 -2 -15 -4 -15 -2 0 -6 7 -10 15 -3 8 -1 15 4 15 6 0 10 -7 10 -15z
m-425 -13 c-3 -3 -11 0 -18 7 -9 10 -8 11 6 5 10 -3 15 -9 12 -12z m325 -7 c0
-8 -4 -15 -10 -15 -5 0 -7 7 -4 15 4 8 8 15 10 15 2 0 4 -7 4 -15z m-20 -55
c0 -5 -4 -10 -9 -10 -6 0 -13 5 -16 10 -3 6 1 10 9 10 9 0 16 -4 16 -10z m87
-22 c-3 -8 -6 -5 -6 6 -1 11 2 17 5 13 3 -3 4 -12 1 -19z m3457 -950 c8 -27
10 -48 5 -48 -20 0 -32 51 -35 145 l-3 100 10 -75 c5 -41 15 -96 23 -122z"/>
<path d="M6910 1999 c7 -11 14 -18 17 -15 8 8 -5 36 -17 36 -7 0 -7 -6 0 -21z"/>
<path d="M6170 9811 c0 -6 5 -13 10 -16 6 -3 10 1 10 9 0 9 -4 16 -10 16 -5 0
-10 -4 -10 -9z"/>
<path d="M6144 9758 c-6 -10 4 -28 15 -28 5 0 11 8 13 18 5 19 -18 27 -28 10z"/>
<path d="M6126 9519 c4 -7 7 -27 6 -46 -1 -18 3 -33 9 -33 6 0 8 -4 4 -9 -3
-5 -1 -12 5 -16 11 -7 12 23 2 75 -4 19 -13 36 -20 38 -8 1 -11 -2 -6 -9z"/>
<path d="M5991 9414 c-8 -19 -17 -25 -31 -21 -24 6 -37 -10 -21 -26 6 -6 11
-19 11 -30 0 -16 2 -17 15 -4 17 17 50 96 43 102 -3 3 -10 -7 -17 -21z"/>
<path d="M6145 9390 c3 -5 8 -10 11 -10 2 0 4 5 4 10 0 6 -5 10 -11 10 -5 0
-7 -4 -4 -10z"/>
<path d="M4327 9336 c-4 -10 -1 -13 8 -9 8 3 12 9 9 14 -7 12 -11 11 -17 -5z"/>
<path d="M5912 9298 c-7 -7 -12 -25 -12 -42 0 -28 1 -28 18 -13 24 22 32 21
32 -3 0 -11 -4 -20 -10 -20 -5 0 -10 -7 -10 -15 0 -8 7 -15 15 -15 11 0 15 12
15 45 0 25 -4 45 -10 45 -5 0 -10 7 -10 15 0 18 -12 19 -28 3z"/>
<path d="M4246 9268 c-14 -18 -24 -34 -22 -35 6 -7 36 10 36 19 0 6 10 19 22
29 16 15 18 19 5 19 -8 0 -27 -14 -41 -32z"/>
<path d="M5937 9159 c-9 -6 -17 -17 -17 -24 0 -8 -5 -15 -12 -15 -6 0 -9 -2
-6 -5 8 -9 56 16 62 31 7 18 -6 24 -27 13z"/>
<path d="M5950 9109 c0 -5 5 -7 10 -4 6 3 10 8 10 11 0 2 -4 4 -10 4 -5 0 -10
-5 -10 -11z"/>
<path d="M4224 9042 c-9 -11 -23 -18 -29 -15 -7 2 -20 -10 -29 -28 l-16 -33
25 24 c14 13 28 20 32 17 7 -8 -28 -77 -39 -77 -5 0 -8 -4 -8 -9 0 -17 59 13
62 31 2 11 6 17 9 16 8 -4 49 32 49 42 0 15 -33 21 -42 8 -4 -7 -8 -8 -8 -2 0
5 5 15 12 22 6 6 9 14 6 18 -4 3 -14 -3 -24 -14z"/>
<path d="M4325 9000 c-3 -5 -1 -10 4 -10 6 0 11 5 11 10 0 6 -2 10 -4 10 -3 0
-8 -4 -11 -10z"/>
<path d="M4362 8957 c-12 -13 -22 -32 -21 -43 0 -14 2 -15 6 -4 3 8 14 23 25
34 16 18 24 36 15 36 -2 0 -13 -10 -25 -23z"/>
<path d="M4134 8950 c0 -13 4 -16 10 -10 7 7 7 13 0 20 -6 6 -10 3 -10 -10z"/>
<path d="M4297 8899 c-15 -11 -31 -17 -37 -14 -5 3 -10 -1 -10 -9 0 -9 -4 -16
-10 -16 -5 0 -10 -4 -10 -10 0 -19 25 -9 65 25 43 37 44 58 2 24z"/>
<path d="M4140 8885 c-7 -9 -8 -15 -2 -15 5 0 12 7 16 15 3 8 4 15 2 15 -2 0
-9 -7 -16 -15z"/>
<path d="M4175 8689 c-11 -16 -1 -19 13 -3 7 8 8 14 3 14 -5 0 -13 -5 -16 -11z"/>
<path d="M5831 8664 c0 -11 3 -14 6 -6 3 7 2 16 -1 19 -3 4 -6 -2 -5 -13z"/>
<path d="M3975 8609 c-4 -6 -5 -12 -2 -15 2 -3 7 2 10 11 7 17 1 20 -8 4z"/>
<path d="M4740 8160 c8 -5 20 -10 25 -10 6 0 3 5 -5 10 -8 5 -19 10 -25 10 -5
0 -3 -5 5 -10z"/>
<path d="M3789 8057 c-13 -11 -14 -27 -4 -137 7 -69 18 -136 25 -150 7 -14 17
-32 22 -40 4 -8 11 -22 14 -30 3 -8 14 -36 25 -62 10 -26 19 -54 19 -62 0 -9
5 -16 10 -16 6 0 10 35 10 84 0 68 4 88 20 108 17 22 19 37 15 123 -5 104 -7
108 -70 166 -32 30 -61 36 -86 16z"/>
<path d="M4716 7932 c-3 -6 -2 -13 4 -17 5 -3 10 -3 11 2 0 4 4 -1 8 -11 9
-23 45 -28 79 -10 23 12 23 13 4 23 -30 16 -99 25 -106 13z"/>
<path d="M4720 7845 c0 -14 -5 -25 -11 -25 -5 0 -7 -4 -4 -10 3 -5 17 -10 31
-10 14 0 23 4 19 10 -3 6 1 13 9 16 23 9 19 31 -6 38 -35 9 -38 8 -38 -19z"/>
<path d="M4688 7733 c12 -2 32 -2 45 0 12 2 2 4 -23 4 -25 0 -35 -2 -22 -4z"/>
<path d="M4940 7510 c-12 -12 -20 -23 -18 -26 2 -2 26 5 54 16 27 10 41 19 32
20 -9 0 -23 3 -31 6 -9 3 -25 -4 -37 -16z"/>
<path d="M6303 7236 c3 -8 0 -19 -6 -25 -8 -8 -7 -15 3 -26 17 -17 35 -9 43
20 5 15 0 23 -19 32 -21 10 -25 9 -21 -1z"/>
<path d="M5952 6985 c-23 -13 -46 -23 -50 -22 -4 1 -8 -8 -10 -20 -2 -13 -9
-23 -15 -23 -7 0 -18 -9 -24 -19 -14 -22 -5 -33 39 -50 20 -7 43 -6 85 5 32 9
78 18 103 20 25 3 47 9 48 14 2 6 12 10 22 10 26 0 33 16 15 33 -18 18 -20 31
-3 21 7 -5 8 -3 4 5 -5 7 -15 10 -23 7 -19 -8 -64 4 -58 15 8 12 -29 29 -62
28 -15 0 -47 -11 -71 -24z"/>
<path d="M4146 6671 l-38 -38 31 -11 c27 -10 35 -8 58 12 24 21 26 26 15 50
-6 14 -15 26 -20 26 -4 0 -25 -17 -46 -39z"/>
<path d="M5780 6659 c0 -4 10 -13 21 -20 15 -8 19 -8 15 0 -4 6 -1 11 8 11 8
0 17 4 20 9 3 5 -10 9 -29 9 -19 0 -35 -4 -35 -9z"/>
<path d="M5937 6543 c-4 -3 2 -13 14 -21 26 -18 35 -10 11 11 -10 10 -22 14
-25 10z"/>
<path d="M5376 5814 c-8 -21 -8 -24 3 -24 5 0 11 9 14 20 6 24 -8 27 -17 4z"/>
<path d="M6145 5360 c3 -5 8 -10 11 -10 2 0 4 5 4 10 0 6 -5 10 -11 10 -5 0
-7 -4 -4 -10z"/>
<path d="M6166 5323 c-4 -9 -3 -20 2 -25 6 -6 11 1 14 16 6 29 -6 35 -16 9z"/>
<path d="M5683 4642 c-10 -6 -10 -12 2 -28 14 -18 14 -18 10 4 -2 12 0 22 6
22 5 0 9 -5 9 -11 0 -5 5 -7 10 -4 6 3 10 10 10 16 0 11 -30 12 -47 1z"/>
<path d="M5640 4600 c0 -5 9 -14 19 -19 16 -9 18 -8 14 9 -5 20 -33 29 -33 10z"/>
<path d="M5680 4551 c0 -5 7 -12 16 -15 24 -9 28 -7 14 9 -14 17 -30 20 -30 6z"/>
<path d="M100 2610 c0 -5 4 -10 10 -10 5 0 7 -7 4 -15 -4 -9 0 -15 9 -15 25 0
32 22 12 37 -22 16 -35 17 -35 3z"/>
<path d="M11892 2569 c2 -7 10 -15 17 -17 8 -3 12 1 9 9 -2 7 -10 15 -17 17
-8 3 -12 -1 -9 -9z"/>
</g>
</svg>
