<?xml version="1.0" standalone="no"?>
<!DOCTYPE svg PUBLIC "-//W3C//DTD SVG 20010904//EN"
 "http://www.w3.org/TR/2001/REC-SVG-20010904/DTD/svg10.dtd">
<svg version="1.0" xmlns="http://www.w3.org/2000/svg"
 width="400.000000pt" height="400.000000pt" viewBox="0 0 400.000000 400.000000"
 preserveAspectRatio="xMidYMid meet">
<metadata>
Created by potrace 1.14, written by Peter Selinger 2001-2017
</metadata>
<g transform="translate(0.000000,400.000000) scale(0.100000,-0.100000)"
fill="#000000" stroke="none">
<path d="M0 2350 c0 -946 4 -1650 9 -1650 12 0 23 29 15 41 -3 5 0 9 7 9 8 0
9 -10 4 -32 -19 -86 -25 -130 -27 -216 -2 -52 0 -96 4 -98 4 -3 4 -12 1 -20
-4 -10 2 -17 16 -21 11 -3 21 -10 21 -15 0 -5 5 -6 11 -2 7 4 10 -3 9 -17 -3
-39 -1 -41 21 -20 26 24 52 17 43 -11 -3 -11 -21 -36 -40 -56 -18 -19 -31 -39
-28 -43 2 -4 0 -10 -6 -14 -5 -3 -10 -17 -10 -31 0 -13 -4 -24 -8 -24 -12 0
-42 -73 -42 -103 l0 -27 148 0 c129 0 151 2 165 18 19 21 61 131 53 139 -3 4
-1 12 4 19 15 17 25 114 13 114 -6 0 -13 15 -16 33 -4 28 0 37 36 67 36 32 39
38 28 58 -10 18 -9 21 4 16 10 -4 15 0 15 11 0 9 -5 13 -11 9 -7 -4 -10 -1 -7
6 7 21 28 24 28 5 0 -13 3 -15 13 -6 9 7 17 7 24 0 7 -7 14 -5 23 6 7 8 19 15
26 15 8 0 14 5 14 10 0 6 5 10 11 10 10 0 84 56 122 93 10 10 25 16 34 13 9
-4 17 1 20 14 3 11 9 18 13 15 5 -3 6 4 3 16 -4 12 -11 18 -20 15 -11 -5 -13
-1 -7 17 9 30 11 32 26 19 19 -15 140 -6 150 11 6 11 18 13 48 7 28 -5 45 -3
57 6 14 11 76 34 103 38 3 1 11 5 19 10 10 7 12 6 6 -4 -5 -9 -4 -11 3 -6 7 4
33 13 59 19 39 10 56 10 88 -1 l39 -13 42 46 c33 35 49 45 74 45 23 0 33 5 37
20 3 11 10 20 15 20 5 0 6 -4 3 -10 -7 -11 6 -13 29 -4 9 3 16 11 16 16 0 6
-8 5 -17 -3 -10 -7 -8 -2 4 11 19 20 24 21 38 10 9 -7 15 -9 13 -4 -3 11 24
54 34 54 5 0 8 -9 8 -20 0 -11 5 -20 10 -20 6 0 9 3 8 8 -4 13 13 52 23 52 12
0 12 -37 -1 -45 -17 -10 -12 -45 5 -39 9 4 18 -1 21 -10 8 -22 -3 -33 -18 -18
-7 7 -18 12 -26 12 -15 0 -12 -39 9 -83 9 -21 10 -30 1 -39 -20 -20 -39 6 -21
28 12 16 12 17 -5 11 -13 -5 -25 -1 -38 13 -21 22 -34 25 -43 10 -3 -5 -20
-10 -37 -10 -37 0 -147 -66 -161 -97 -10 -23 -27 -31 -27 -13 0 6 -27 10 -60
10 -61 0 -92 -11 -158 -58 -26 -19 -36 -22 -47 -12 -12 10 -18 10 -30 0 -8 -7
-21 -10 -30 -6 -9 3 -19 -3 -25 -14 -6 -11 -20 -20 -30 -20 -11 0 -20 -4 -20
-9 0 -5 -17 -20 -38 -32 -20 -13 -42 -29 -48 -37 -7 -10 -23 -12 -49 -9 -31 4
-42 1 -61 -18 -21 -21 -23 -27 -12 -51 10 -22 10 -28 0 -32 -6 -2 -12 -7 -12
-12 0 -5 -5 -21 -12 -37 -6 -15 -10 -35 -9 -44 1 -9 -8 -19 -21 -23 -17 -5
-19 -9 -8 -12 8 -3 22 -8 30 -11 11 -4 10 -7 -8 -14 -12 -4 -29 -6 -37 -3 -30
12 -14 -6 23 -25 35 -19 35 -20 11 -21 -15 0 -31 -6 -36 -13 -16 -19 -26 -87
-13 -87 25 0 7 -17 -28 -26 -34 -8 -37 -12 -36 -42 2 -25 -2 -32 -16 -32 -11
0 -19 -9 -22 -25 l-5 -25 1590 0 1590 0 -6 53 c-7 68 -43 222 -75 317 -34 104
-79 175 -169 264 -139 140 -181 165 -315 186 -37 6 -79 15 -93 20 -15 6 -54
10 -88 10 -48 0 -72 6 -106 25 -44 26 -92 28 -114 6 -13 -13 -47 8 -40 26 3 7
0 13 -6 13 -9 0 -9 5 -1 20 10 18 7 22 -24 35 -20 8 -39 15 -43 15 -13 1 -54
38 -51 47 1 4 -6 25 -15 46 -20 46 -22 102 -8 187 24 143 7 119 -27 -40 -9
-43 -9 -42 -5 16 6 69 -8 91 -27 44 -17 -41 -33 -49 -28 -14 2 16 -2 29 -10
32 -7 2 -12 0 -10 -5 4 -15 -11 -73 -20 -73 -5 0 -12 23 -16 50 -4 32 -11 48
-17 44 -6 -3 -9 -15 -6 -25 3 -10 2 -21 -3 -24 -8 -5 -20 82 -14 100 3 6 29
27 59 46 30 19 55 37 55 42 0 4 6 7 13 7 21 0 74 84 83 131 8 44 7 129 -2 184
l-4 30 14 -30 c8 -16 15 -24 15 -17 2 22 22 12 32 -16 13 -37 43 -56 59 -37
13 16 14 36 4 88 -9 47 15 76 97 118 46 23 57 33 57 53 0 22 -4 24 -30 19 -19
-4 -35 0 -48 12 -11 10 -26 15 -34 12 -9 -4 -18 -2 -21 3 -4 6 0 10 7 10 18 0
174 75 182 88 3 5 -5 18 -17 28 -27 23 -160 33 -183 13 -11 -9 -18 -6 -34 12
-23 29 -22 18 -25 344 -2 143 -5 273 -8 288 -10 52 -48 77 -122 79 -65 1 -615
-14 -746 -21 -213 -12 -216 -14 -232 -178 -7 -74 -40 24 -39 116 1 72 10 86
61 101 31 9 643 30 978 34 149 1 146 6 147 -216 1 -95 -1 -189 -4 -208 -4 -19
-3 -46 1 -60 6 -23 7 -23 8 8 1 31 20 46 22 17 2 -17 5 -34 9 -37 1 -2 3 -10
5 -18 16 -68 82 -151 183 -230 82 -64 88 -76 83 -175 -1 -18 -89 -119 -108
-123 -8 -2 -23 -25 -35 -50 -49 -111 -57 -130 -71 -177 -26 -84 -58 -178 -73
-210 -14 -31 -35 -108 -36 -135 0 -8 -5 -21 -11 -27 -5 -7 -7 -13 -4 -13 3 0
2 -14 -3 -30 -5 -18 -5 -28 0 -25 5 3 8 -18 6 -49 -2 -40 0 -56 10 -60 8 -3
14 -12 14 -20 0 -7 7 -17 16 -20 9 -3 14 -12 11 -19 -3 -8 10 -21 31 -33 21
-10 43 -24 50 -31 7 -7 19 -10 27 -7 16 7 113 -23 135 -41 21 -17 55 -24 71
-15 7 5 24 4 38 -2 14 -5 42 -12 61 -14 36 -5 72 -20 210 -87 120 -59 192
-103 225 -137 21 -22 38 -30 64 -30 45 0 70 -15 55 -30 -9 -9 -14 -9 -18 -1
-4 6 -14 11 -22 11 -9 0 -12 -5 -8 -11 3 -6 1 -15 -5 -19 -8 -5 -1 -17 23 -38
20 -17 37 -37 38 -44 2 -7 10 -21 20 -31 32 -36 95 -183 103 -239 2 -18 7 -44
10 -58 3 -14 8 -38 10 -54 3 -16 10 -37 15 -47 6 -10 10 -29 10 -43 0 -51 7
-56 81 -56 l69 0 0 2000 0 2000 -601 0 c-397 0 -598 -3 -594 -10 3 -6 -5 -10
-19 -10 -14 0 -28 5 -31 10 -4 7 -384 10 -1108 10 l-1102 -1 32 -28 c24 -20
30 -30 22 -38 -8 -8 -5 -14 11 -23 14 -8 19 -15 12 -22 -14 -14 -65 10 -140
66 l-62 46 -85 0 c-74 0 -85 -2 -86 -17 -2 -23 -5 -55 -14 -128 -6 -57 -5 -63
28 -117 41 -68 53 -80 92 -101 35 -18 85 -64 85 -77 0 -4 -8 -7 -17 -5 -10 2
-18 4 -18 5 0 1 -8 3 -18 5 -10 2 -28 16 -40 32 -33 44 -89 93 -99 87 -4 -3
-11 2 -14 10 -9 23 -34 20 -34 -4 0 -22 -18 -28 -24 -7 -2 6 -9 66 -15 132 -7
66 -15 135 -18 153 l-5 32 -69 0 -69 0 0 -1650z m379 1494 c11 -44 66 -140 97
-171 8 -8 14 -19 14 -26 0 -15 -57 40 -91 90 -28 40 -61 140 -52 156 9 15 21
-3 32 -49z m1011 -1074 c0 -5 -4 -10 -10 -10 -5 0 -10 5 -10 10 0 6 5 10 10
10 6 0 10 -4 10 -10z m-945 -126 c0 -10 4 -22 9 -25 11 -9 -12 -51 -25 -44
-14 10 -12 98 4 93 6 -3 12 -13 12 -24z m1095 -68 c0 -51 -6 -43 -14 19 -4 34
-3 45 4 35 5 -8 10 -33 10 -54z m-1000 -28 c0 -5 14 -21 30 -35 17 -13 28 -29
25 -33 -3 -5 8 -35 25 -66 16 -32 30 -62 30 -67 0 -5 -25 14 -56 42 -58 53
-74 61 -74 36 0 -8 -10 -20 -22 -26 -13 -6 -20 -8 -15 -4 4 5 1 15 -7 24 -18
21 -48 111 -42 127 3 7 19 12 36 12 16 -1 33 2 36 5 8 8 34 -3 34 -15z m2167
-40 c-3 -7 -5 -2 -5 12 0 14 2 19 5 13 2 -7 2 -19 0 -25z m-1160 -30 c-2 -13
-4 -5 -4 17 -1 22 1 32 4 23 2 -10 2 -28 0 -40z m10 -125 c-3 -10 -5 -2 -5 17
0 19 2 27 5 18 2 -10 2 -26 0 -35z m-558 -14 c13 -29 11 -103 -4 -117 -13 -14
-25 26 -25 86 0 69 8 78 29 31z m141 1 c0 -11 -2 -20 -4 -20 -2 0 -6 9 -9 20
-3 11 -1 20 4 20 5 0 9 -9 9 -20z m-43 -56 c3 -8 1 -20 -4 -25 -7 -7 -12 -2
-15 15 -6 28 9 36 19 10z m470 -36 c-3 -7 -5 -2 -5 12 0 14 2 19 5 13 2 -7 2
-19 0 -25z m-436 -22 c-13 -15 -8 -165 9 -306 6 -47 11 -93 11 -104 0 -10 6
-28 14 -40 13 -20 16 -30 30 -101 11 -58 15 -63 38 -58 20 4 19 3 -5 -17 -23
-17 -28 -30 -28 -63 l0 -42 -26 43 c-25 42 -45 128 -48 208 0 25 -8 50 -20 63
-10 11 -16 27 -13 35 3 8 -1 22 -8 33 -19 24 -19 60 0 113 8 23 12 47 8 53 -8
13 -14 177 -7 189 3 4 17 8 31 8 20 0 23 -3 14 -14z m-131 -26 c0 -5 -2 -10
-4 -10 -3 0 -8 5 -11 10 -3 6 -1 10 4 10 6 0 11 -4 11 -10z m-135 -25 c3 -14
7 -36 10 -50 9 -40 -21 -44 -58 -7 -27 28 -29 34 -19 57 16 35 60 35 67 0z
m690 -45 c-4 -23 -14 -54 -22 -71 -12 -23 -12 -33 -3 -44 17 -20 -10 -45 -47
-45 -31 0 -56 -29 -47 -55 14 -36 -68 -4 -123 48 -18 17 -33 41 -33 53 0 27
40 68 83 85 17 7 40 19 50 27 9 8 17 12 17 8 0 -4 10 0 22 8 12 9 27 16 33 16
5 0 3 -5 -5 -10 -10 -6 -11 -10 -2 -10 21 0 13 -29 -11 -35 -14 -4 -23 -14
-24 -27 -1 -12 -7 -24 -13 -28 -9 -5 51 -30 74 -30 3 0 6 15 6 34 0 19 5 38
10 41 6 3 10 19 10 34 0 29 7 41 23 41 5 0 6 -17 2 -40z m100 -347 c4 -16 7
-51 6 -80 -2 -34 5 -66 18 -97 12 -24 21 -51 21 -58 1 -20 101 -188 113 -188
4 0 7 8 7 18 0 14 2 15 10 2 5 -8 6 -16 1 -18 -10 -3 -2 -80 11 -105 5 -10 7
-21 5 -24 -9 -8 -39 58 -33 72 12 32 -10 22 -26 -11 -22 -46 -23 -93 -3 -141
21 -50 19 -58 -10 -39 -30 20 -35 20 -35 1 0 -8 -4 -15 -9 -15 -5 0 -12 -15
-17 -32 l-8 -33 -4 43 -3 43 -30 -40 c-16 -23 -32 -41 -35 -41 -6 0 30 62 58
99 21 28 23 59 5 86 -8 11 -22 45 -31 75 -10 30 -27 78 -38 105 -11 28 -24 66
-30 85 -41 159 -63 363 -29 277 6 -16 11 -40 11 -55 0 -15 4 -33 9 -41 10 -16
16 -2 26 64 13 82 27 98 40 48z m-405 -119 c0 -8 -5 -12 -10 -9 -6 4 -8 11 -5
16 9 14 15 11 15 -7z m1115 -4 c3 -5 1 -10 -4 -10 -6 0 -11 5 -11 10 0 6 2 10
4 10 3 0 8 -4 11 -10z m-164 -184 c6 -23 18 -54 26 -69 8 -16 13 -36 11 -45
-2 -11 -10 -3 -22 23 -10 22 -34 61 -52 86 -19 26 -34 56 -34 68 l0 22 30 -23
c19 -14 34 -37 41 -62z m-127 6 c-6 -4 -26 -40 -45 -79 -19 -40 -40 -73 -46
-73 -21 0 -15 44 12 80 13 18 22 38 18 44 -3 6 -3 8 1 4 5 -4 20 4 34 17 14
13 28 22 31 19 3 -3 1 -8 -5 -12z m2 -170 c-4 -3 -14 2 -24 12 -16 18 -16 18
6 6 13 -6 21 -14 18 -18z m239 -12 c3 -5 1 -10 -4 -10 -6 0 -11 5 -11 10 0 6
2 10 4 10 3 0 8 -4 11 -10z m-432 -255 c9 -9 17 -22 17 -28 0 -6 -20 9 -45 33
-24 24 -42 48 -38 53 3 5 9 3 14 -4 7 -11 11 -8 16 11 7 23 8 23 13 -11 4 -21
14 -44 23 -54z m-1827 -174 c13 -10 20 -21 16 -25 -3 -4 0 -11 8 -16 21 -13 1
-44 -31 -48 -19 -3 -22 -1 -12 9 15 15 17 59 3 59 -5 0 -10 6 -10 14 0 8 -6
17 -12 19 -10 4 -10 6 0 6 8 1 25 -7 38 -18z m87 -26 c-1 -5 3 -16 9 -22 8 -9
7 -13 -4 -13 -13 0 -48 33 -48 46 0 3 10 4 23 2 12 -2 21 -7 20 -13z m2557 11
c0 -11 -19 -15 -25 -6 -3 5 1 10 9 10 9 0 16 -2 16 -4z m-2469 -31 c11 8 12
-6 0 -24 -8 -12 -12 -12 -26 3 -10 10 -14 23 -10 34 6 16 7 16 16 -1 6 -9 14
-15 20 -12z m72 -21 c-3 -8 0 -14 6 -14 6 0 11 -4 11 -9 0 -5 -9 -7 -20 -4
-11 3 -20 12 -20 19 0 8 -5 14 -11 14 -5 0 -8 4 -5 9 9 15 45 1 39 -15z m67
-3 c0 -5 7 -11 15 -13 10 -2 12 -8 6 -17 -8 -12 -12 -12 -25 2 -18 18 -21 37
-6 37 6 0 10 -4 10 -9z m100 -30 c12 -24 13 -31 2 -31 -11 0 -52 35 -52 44 0
15 40 4 50 -13z m68 -12 c16 -24 12 -32 -12 -23 -9 3 -16 15 -16 25 0 25 12
24 28 -2z m83 -9 c6 0 7 -5 3 -11 -3 -6 0 -15 7 -20 12 -7 11 -9 -1 -9 -15 0
-50 33 -50 46 0 3 7 3 16 0 9 -3 20 -6 25 -6z m69 -15 c0 -18 11 -19 29 -2 11
10 11 8 2 -10 -15 -29 -28 -29 -57 2 l-23 25 24 0 c16 0 25 -6 25 -15z m1030
-15 c0 -5 -5 -10 -11 -10 -5 0 -7 5 -4 10 3 6 8 10 11 10 2 0 4 -4 4 -10z
m2005 -70 c3 -5 1 -10 -4 -10 -6 0 -11 5 -11 10 0 6 2 10 4 10 3 0 8 -4 11
-10z m-3451 -179 c3 -5 1 -23 -5 -41 -14 -37 -28 -24 -21 20 4 30 16 39 26 21z"/>
<path d="M1723 1268 c2 -24 11 -56 18 -73 l13 -30 4 32 c4 39 -15 113 -30 113
-7 0 -9 -15 -5 -42z"/>
<path d="M2737 1874 c-10 -10 -9 -44 2 -44 13 0 23 32 13 42 -5 5 -11 5 -15 2z"/>
<path d="M2647 1098 c-11 -32 72 -124 88 -98 3 5 0 10 -8 10 -14 0 -37 29 -63
78 -8 16 -13 19 -17 10z"/>
<path d="M20 245 c0 -8 -4 -15 -10 -15 -5 0 -10 -5 -10 -10 0 -6 8 -5 20 2 21
13 27 38 10 38 -5 0 -10 -7 -10 -15z"/>
</g>
</svg>
