<?xml version="1.0" standalone="no"?>
<!DOCTYPE svg PUBLIC "-//W3C//DTD SVG 20010904//EN"
 "http://www.w3.org/TR/2001/REC-SVG-20010904/DTD/svg10.dtd">
<svg version="1.0" xmlns="http://www.w3.org/2000/svg"
 width="1200.000000pt" height="1200.000000pt" viewBox="0 0 1200.000000 1200.000000"
 preserveAspectRatio="xMidYMid meet">
<metadata>
Created by potrace 1.14, written by Peter Selinger 2001-2017
</metadata>
<g transform="translate(0.000000,1200.000000) scale(0.100000,-0.100000)"
fill="#000000" stroke="none">
<path d="M7039 11268 c-24 -19 -58 -55 -76 -81 -29 -43 -52 -51 -37 -13 5 12
2 15 -10 10 -11 -4 -16 -1 -16 11 0 13 -6 16 -25 11 -14 -3 -36 -9 -50 -12
-20 -5 -27 -1 -36 20 -14 31 -40 36 -32 6 6 -24 -9 -26 -28 -4 -7 9 -21 13
-35 10 -17 -4 -23 -1 -28 17 -6 19 -8 20 -19 6 -18 -24 -62 -32 -77 -14 -25
30 -90 8 -90 -31 0 -20 -10 -18 -65 17 -36 23 -55 29 -74 24 -14 -4 -50 -9
-80 -11 -35 -3 -58 -10 -66 -21 -10 -13 -25 -16 -76 -13 -35 1 -77 2 -94 1
-16 -1 -55 -3 -85 -4 -30 -1 -58 -5 -61 -9 -9 -13 -101 -12 -163 1 -51 11 -63
10 -90 -4 -17 -8 -71 -24 -121 -34 -49 -10 -111 -30 -137 -45 -26 -14 -55 -26
-65 -26 -10 0 -30 -8 -43 -17 -30 -21 -98 -46 -197 -73 -39 -10 -84 -25 -100
-33 -15 -8 -49 -17 -74 -21 -78 -11 -210 -68 -243 -105 -11 -12 -27 -21 -36
-21 -10 0 -23 -6 -29 -14 -17 -20 -114 -66 -139 -66 -13 0 -22 -6 -22 -15 0
-11 -12 -15 -45 -15 -56 0 -58 0 -70 -9 -5 -4 -26 -8 -45 -10 -33 -3 -69 -21
-41 -21 7 0 9 -4 6 -10 -3 -5 -29 -10 -57 -10 l-50 0 17 -26 c9 -14 13 -29 9
-32 -4 -4 -9 -1 -11 5 -3 10 -9 9 -20 -3 -9 -8 -22 -13 -29 -10 -8 3 -14 1
-14 -4 0 -9 21 -14 47 -11 6 1 14 -3 18 -9 6 -10 -26 -15 -77 -11 -20 2 -28
-2 -28 -13 0 -9 -4 -16 -9 -16 -17 0 -19 -27 -4 -58 9 -18 22 -32 29 -32 8 0
14 -10 14 -25 0 -21 -5 -25 -30 -25 -21 0 -30 -5 -30 -16 0 -10 -6 -14 -14
-11 -8 3 -17 -1 -20 -9 -4 -10 -13 -13 -31 -8 l-26 6 20 -33 c12 -19 21 -42
21 -52 0 -14 5 -17 20 -12 15 5 20 2 20 -10 0 -12 -6 -16 -19 -12 -14 3 -18 1
-14 -9 5 -13 52 -20 92 -14 9 1 12 -4 7 -15 -3 -9 -6 -19 -6 -21 0 -2 -30 -4
-66 -4 -41 0 -63 -4 -59 -10 3 -5 1 -10 -4 -10 -6 0 -11 -4 -11 -8 0 -5 20 -8
45 -8 25 1 49 -4 53 -10 12 -18 76 -52 90 -47 17 6 15 -12 -3 -27 -8 -7 -15
-10 -15 -6 0 3 -12 1 -27 -5 -19 -7 -28 -6 -33 2 -5 8 -15 4 -31 -12 -15 -15
-17 -21 -6 -16 13 5 17 1 17 -18 0 -14 6 -25 13 -25 6 0 0 -12 -16 -25 -15
-13 -28 -36 -29 -50 -1 -15 -8 -31 -15 -37 -21 -17 -15 -31 10 -23 30 9 80 14
90 8 4 -2 -1 -12 -12 -21 -11 -9 -21 -26 -23 -37 -2 -11 -12 -25 -23 -32 -37
-23 3 -13 54 13 28 14 55 23 60 19 6 -3 14 1 18 10 8 13 103 49 103 39 0 -2
-19 -16 -42 -30 -24 -15 -48 -35 -55 -44 -16 -23 -54 -33 -46 -13 4 10 -6 8
-33 -8 -22 -12 -50 -25 -64 -29 -18 -4 -25 -14 -27 -33 -1 -15 2 -27 7 -27 11
0 37 26 43 42 4 10 7 11 18 1 11 -11 10 -13 -6 -13 -10 0 -15 -3 -12 -6 4 -4
-1 -20 -10 -35 -19 -32 -53 -39 -53 -11 -1 15 -2 15 -15 -2 -25 -33 -19 -48
14 -41 17 3 32 2 36 -4 11 -18 27 -12 21 7 -5 13 6 29 35 55 49 44 56 46 57
10 0 -21 -14 -41 -56 -81 -32 -29 -67 -60 -79 -69 -22 -15 -34 -73 -15 -73 10
0 132 110 132 120 0 11 65 80 76 80 5 0 27 15 48 34 22 18 50 34 62 34 56 0
200 79 180 99 -4 4 -50 -14 -91 -36 -5 -2 -4 2 3 11 7 9 27 20 43 23 16 4 29
11 29 15 0 5 6 7 13 4 8 -3 19 7 27 23 8 15 22 35 33 43 10 9 19 23 21 30 7
38 29 74 62 106 20 19 33 34 28 34 -5 0 -1 5 9 11 9 5 17 19 17 29 0 21 34 45
50 35 6 -4 13 0 16 9 3 8 20 18 37 22 50 10 92 35 77 44 -7 5 -8 10 -2 14 5 3
12 0 15 -8 3 -7 17 -13 31 -13 22 0 26 4 26 28 0 15 -4 31 -10 34 -21 13 -8
25 28 25 28 0 33 3 22 10 -22 15 7 31 36 20 12 -5 24 -6 27 -4 3 3 22 -4 43
-15 21 -12 44 -21 51 -21 20 0 15 17 -8 34 -16 11 -20 22 -17 45 3 17 1 31 -4
31 -4 0 -8 7 -8 15 0 21 50 9 69 -16 18 -25 31 -24 32 4 l0 22 11 -23 c7 -13
39 -36 74 -53 35 -16 70 -39 78 -51 9 -12 18 -19 21 -16 6 6 3 14 -23 65 -16
31 -16 61 0 45 7 -7 22 -12 35 -12 13 0 23 -4 23 -9 0 -5 13 -19 29 -31 l30
-20 25 25 c14 14 26 30 26 35 0 6 4 10 9 10 13 0 52 -70 45 -81 -3 -5 -2 -18
1 -29 6 -18 12 -20 43 -14 20 4 42 11 49 16 8 6 15 2 23 -12 8 -15 17 -19 32
-14 11 3 23 2 27 -3 3 -5 27 -7 54 -5 35 3 47 8 48 21 0 10 2 12 6 3 8 -20 63
-45 76 -34 22 16 67 13 67 -4 0 -14 8 -16 50 -10 28 4 56 3 63 -1 7 -4 30 -9
52 -10 42 -1 64 -5 80 -14 6 -3 19 -4 30 -2 79 14 107 15 101 4 -4 -7 1 -11
13 -11 10 0 21 5 23 11 6 18 48 0 48 -19 1 -15 3 -14 16 3 11 14 18 16 21 8 3
-7 16 -13 31 -13 14 0 23 -3 19 -6 -12 -12 15 -64 33 -64 11 0 22 -4 25 -10
10 -16 28 -12 21 5 -4 10 1 15 14 15 23 0 26 -10 8 -28 -9 -9 -8 -12 5 -12 9
0 17 5 17 11 0 6 14 9 33 6 19 -2 32 -9 32 -18 0 -9 9 -13 28 -11 18 2 27 -2
27 -12 0 -7 7 -16 15 -20 8 -3 15 -1 15 4 0 6 10 10 23 10 18 0 19 -2 7 -10
-8 -5 -11 -10 -6 -10 5 0 17 7 27 16 24 22 39 10 30 -24 -10 -35 5 -70 49
-110 32 -29 33 -31 13 -32 -51 0 -10 -57 46 -64 38 -4 54 -16 22 -16 -18 0
-21 -4 -16 -21 4 -12 1 -27 -9 -37 -10 -12 -12 -22 -6 -32 16 -26 12 -127 -6
-145 -9 -8 -17 -28 -19 -43 -6 -48 -10 -58 -42 -96 -33 -41 -44 -76 -38 -123
3 -22 -4 -38 -26 -62 -16 -18 -29 -38 -29 -45 0 -21 27 -38 47 -32 13 4 19 1
20 -12 11 -161 19 -202 42 -202 5 0 14 -21 21 -47 6 -26 16 -53 22 -60 12 -15
2 -33 -18 -33 -19 0 -18 -26 1 -34 18 -7 19 -29 3 -57 -11 -17 -10 -22 5 -33
21 -16 22 -26 2 -26 -8 0 -15 -4 -15 -10 0 -19 -21 -10 -29 13 -8 20 -10 20
-16 4 -4 -10 -3 -23 4 -30 6 -6 11 -20 11 -31 0 -17 2 -18 9 -7 7 12 13 12 24
3 7 -7 17 -9 20 -5 4 3 7 -3 7 -15 0 -25 -3 -26 -32 -11 -11 6 -18 7 -15 2 3
-5 -1 -22 -9 -37 -7 -16 -14 -34 -14 -41 0 -32 -37 -59 -86 -62 -87 -5 -124
-14 -135 -34 -8 -16 -17 -18 -43 -14 -28 6 -34 3 -44 -19 -6 -14 -16 -26 -22
-26 -6 0 -9 -8 -6 -18 5 -15 -1 -18 -35 -19 -33 -2 -42 2 -46 17 -5 20 -23 28
-23 11 0 -5 -11 -12 -24 -15 -13 -3 -32 -18 -41 -33 -10 -16 -24 -32 -32 -36
-16 -10 -17 -37 -1 -37 9 0 9 -3 0 -12 -15 -15 -16 -31 0 -22 8 5 9 -2 5 -24
-4 -17 -2 -34 3 -37 16 -10 51 -95 45 -106 -4 -5 3 -17 15 -27 21 -17 34 -76
33 -145 0 -20 3 -24 8 -15 6 9 9 2 9 -19 0 -23 -5 -33 -15 -33 -8 0 -15 -4
-15 -10 0 -5 6 -10 13 -10 9 0 12 -27 12 -99 0 -90 2 -102 22 -120 19 -18 22
-30 20 -90 -1 -38 3 -74 9 -82 7 -8 10 -43 9 -80 -3 -65 -20 -108 -55 -136
-12 -11 -13 -14 -1 -22 9 -6 10 -11 2 -15 -6 -4 -11 -4 -11 -1 0 3 -6 0 -14
-7 -8 -7 -12 -16 -10 -19 5 -9 -38 -54 -59 -62 -10 -4 -15 -11 -12 -17 3 -5 1
-18 -4 -27 -8 -14 -11 -15 -11 -3 -1 20 -30 -17 -30 -38 0 -8 -7 -20 -15 -26
-13 -10 -12 -15 13 -43 33 -36 30 -48 -15 -57 -17 -4 -34 -14 -37 -22 -3 -9
-15 -14 -28 -12 -11 2 -23 -3 -25 -9 -3 -7 0 -13 6 -13 6 0 11 -9 11 -20 0
-17 -6 -20 -27 -18 -26 3 -28 0 -31 -40 -4 -58 27 -89 90 -89 23 -1 48 3 53 7
6 4 28 13 50 20 22 7 43 18 47 24 5 7 8 4 8 -7 0 -11 5 -15 11 -11 21 13 109
16 109 4 0 -6 4 -9 9 -5 5 3 13 -4 16 -15 4 -12 18 -25 31 -30 13 -5 24 -14
24 -20 0 -15 -20 -12 -21 3 0 6 -4 2 -9 -11 -11 -26 -71 -55 -95 -46 -9 4 -25
-2 -37 -12 -12 -11 -18 -13 -14 -6 9 15 -10 16 -19 1 -4 -5 -17 -9 -28 -8 -35
2 -49 0 -43 -9 6 -10 -107 -7 -124 3 -7 4 -15 2 -19 -4 -4 -7 -38 -13 -74 -15
-37 -2 -74 -9 -82 -16 -13 -11 -19 -7 -17 12 1 3 -11 2 -26 -2 -15 -5 -46 -14
-69 -20 -24 -6 -43 -15 -43 -20 0 -12 -33 -13 -46 -1 -5 4 -26 6 -46 4 -26 -4
-35 -9 -31 -19 4 -10 -3 -14 -23 -14 -16 0 -38 -2 -49 -4 -11 -2 -14 -1 -7 1
6 3 12 9 12 14 0 14 -30 -4 -65 -40 -16 -17 -38 -31 -48 -31 -10 0 -27 -5 -38
-11 -15 -8 -31 -7 -63 4 -44 15 -67 9 -77 -22 -4 -11 -8 -10 -22 3 -9 10 -17
13 -17 7 0 -5 5 -13 11 -16 6 -4 8 -13 5 -21 -3 -8 0 -15 7 -16 7 0 17 -2 22
-2 6 -1 24 -11 41 -23 22 -16 34 -19 48 -11 13 7 23 5 38 -9 12 -10 36 -18 59
-19 l39 -1 0 45 0 45 49 -5 49 -5 6 39 c6 38 14 43 61 38 11 -1 25 -5 30 -9
12 -8 39 -6 139 14 125 23 309 23 347 -1 5 -3 9 -14 9 -25 0 -25 17 -25 25 0
6 20 21 29 73 41 33 8 81 -8 110 -37 21 -21 29 -165 10 -181 -9 -7 -52 -13
-103 -14 l-88 -3 -13 50 c-8 28 -14 65 -14 83 0 30 -19 48 -21 20 -9 -126 -13
-155 -22 -164 -9 -9 -135 -15 -170 -8 -18 4 -29 14 -33 30 -7 28 -13 30 -29 8
-15 -21 -95 -30 -125 -14 -16 9 -25 9 -33 1 -15 -15 5 -34 40 -37 16 -1 49 -5
75 -9 31 -5 52 -4 61 4 15 12 77 4 77 -10 0 -5 11 -9 25 -9 14 0 25 -4 25 -9
0 -5 9 -7 21 -4 16 4 17 8 7 14 -9 6 -7 9 10 9 12 0 22 -4 22 -9 0 -12 35 -20
51 -11 8 4 43 10 79 14 67 6 161 20 216 31 30 7 31 6 38 -34 6 -37 3 -44 -21
-66 -16 -13 -37 -27 -48 -31 -11 -4 -34 -18 -52 -31 -17 -14 -40 -23 -50 -22
-27 4 -73 -22 -73 -40 0 -9 -9 -22 -20 -29 -11 -7 -20 -18 -20 -26 0 -7 -9
-23 -20 -36 -24 -28 -25 -39 -5 -46 8 -4 12 -10 9 -16 -3 -5 4 -16 16 -25 20
-14 20 -16 4 -34 -9 -10 -13 -20 -8 -20 45 -6 54 1 54 44 0 46 19 30 22 -20 3
-52 8 -55 65 -32 18 7 36 10 40 6 10 -11 -12 -43 -27 -39 -7 1 -10 -3 -8 -10
3 -8 20 -11 50 -9 43 2 45 1 51 -28 5 -22 12 -31 26 -31 14 0 19 -5 15 -15 -4
-8 -1 -15 5 -15 14 0 15 -47 1 -55 -14 -9 -12 -21 6 -40 14 -14 15 -22 4 -61
-7 -24 -17 -47 -21 -50 -5 -3 -9 -16 -9 -29 0 -13 -4 -27 -10 -30 -5 -3 -10
-16 -10 -29 0 -15 -15 -33 -45 -56 -27 -20 -49 -47 -56 -67 -6 -18 -16 -33
-23 -33 -7 0 -23 -9 -36 -20 -13 -11 -29 -20 -37 -20 -7 0 -16 -7 -19 -15 -4
-8 -12 -15 -19 -15 -22 0 -67 -50 -61 -67 5 -13 4 -14 -9 -3 -8 7 -25 10 -40
6 -18 -5 -25 -2 -25 9 0 9 9 15 25 15 28 0 32 12 10 30 -12 10 -16 9 -21 -4
-3 -9 -17 -16 -30 -16 -13 0 -24 -4 -24 -10 0 -6 -14 -8 -34 -4 -28 4 -34 2
-32 -13 0 -12 -7 -19 -21 -21 -15 -2 -23 2 -23 11 0 21 -21 16 -50 -11 -23
-21 -26 -22 -37 -6 -7 10 -16 15 -19 11 -4 -4 -13 -2 -21 5 -10 8 -17 8 -25 0
-9 -9 -8 -12 6 -12 10 0 26 -8 35 -19 21 -24 134 -64 190 -67 24 -2 47 -8 51
-14 4 -7 9 -10 11 -9 9 7 47 -27 53 -48 8 -26 -4 -35 -50 -35 -40 0 -49 -10
-35 -37 9 -16 7 -20 -17 -26 -15 -4 -29 -11 -32 -15 -3 -5 -28 -12 -55 -14
-30 -3 -52 -11 -57 -20 -5 -9 -19 -16 -31 -16 -37 0 -54 -16 -40 -38 9 -15 8
-25 -3 -48 -20 -38 -12 -51 34 -59 28 -4 39 -11 38 -23 -1 -12 7 -17 29 -17
17 0 41 -8 54 -17 23 -16 25 -16 37 0 12 15 13 15 14 1 0 -9 7 -19 15 -23 8
-3 15 -15 15 -26 0 -11 5 -20 11 -20 5 0 7 5 4 10 -12 19 46 -2 69 -25 l22
-22 -22 -28 c-21 -27 -21 -28 -3 -46 21 -21 25 -39 8 -39 -6 0 -7 -5 -2 -12
11 -19 12 -38 2 -38 -5 0 -18 -9 -29 -20 -18 -18 -24 -19 -67 -8 -27 7 -60 20
-75 30 -14 10 -30 18 -36 18 -16 0 -132 63 -132 72 0 4 -9 8 -20 8 -11 0 -28
4 -38 9 -25 14 -56 24 -64 23 -5 -1 -8 4 -8 11 0 12 -84 57 -107 57 -6 0 -15
9 -18 21 -6 17 -13 20 -40 16 -23 -3 -32 -1 -29 7 3 7 -12 18 -33 25 -21 8
-40 18 -43 22 -3 5 -17 10 -30 13 -14 2 -24 9 -22 15 1 6 -7 11 -18 11 -11 0
-20 7 -20 15 0 8 -9 15 -19 15 -11 0 -23 4 -26 10 -3 5 -24 14 -45 20 -22 6
-40 15 -40 20 0 6 -6 10 -13 10 -7 0 -18 5 -25 12 -6 6 -17 13 -24 14 -7 1
-26 7 -43 14 -20 8 -25 14 -17 19 10 6 10 11 -3 21 -8 7 -15 9 -15 5 0 -5 -8
2 -19 13 -10 12 -24 22 -31 22 -13 0 -75 52 -156 130 -23 22 -46 40 -53 40 -6
0 -29 16 -50 36 l-40 35 9 -32 c5 -18 8 -34 6 -37 -6 -5 -46 21 -46 31 0 4 5
5 12 1 7 -4 8 -3 4 4 -4 6 -13 9 -21 5 -10 -3 -15 1 -15 15 0 12 -9 23 -19 27
-11 3 -22 14 -25 23 -7 20 -63 82 -76 82 -4 0 -12 13 -18 28 -5 15 -28 46 -51
67 -22 22 -41 44 -41 50 0 6 -16 34 -35 63 -67 99 -79 165 -64 375 10 151 2
223 -24 214 -7 -2 -29 -29 -50 -59 -31 -45 -42 -76 -61 -164 -18 -90 -34 -131
-89 -238 -36 -71 -69 -147 -72 -170 -3 -22 -2 -96 2 -163 5 -67 7 -127 5 -133
-2 -6 -15 -2 -30 9 -54 38 -121 53 -202 46 -41 -4 -95 -11 -120 -17 -50 -12
-143 -53 -163 -72 -31 -31 -135 -80 -219 -102 l-91 -26 -26 33 c-14 18 -56 71
-93 118 -37 47 -92 133 -121 191 -61 121 -133 234 -172 270 l-27 25 -51 -29
c-76 -42 -331 -212 -346 -230 -24 -29 10 -91 162 -294 47 -63 81 -122 103
-179 19 -48 34 -90 34 -95 0 -4 -21 -19 -47 -32 -27 -13 -58 -35 -71 -49 -32
-34 -113 -178 -106 -188 3 -5 0 -9 -5 -9 -6 0 -11 -9 -11 -21 0 -48 -16 -59
-88 -59 -50 0 -75 -5 -97 -20 -24 -16 -47 -20 -118 -20 -109 0 -195 -26 -318
-97 -69 -41 -91 -49 -121 -45 -27 3 -46 -2 -70 -18 -36 -25 -98 -88 -98 -100
0 -13 -128 -91 -188 -114 -79 -32 -245 -109 -314 -146 -32 -17 -86 -39 -120
-49 -35 -10 -80 -28 -101 -40 -21 -12 -66 -31 -100 -43 -34 -11 -73 -31 -87
-43 -14 -13 -56 -38 -95 -56 -38 -18 -82 -45 -96 -59 -33 -32 -309 -577 -309
-610 0 -6 -4 -10 -8 -10 -4 0 -32 -37 -61 -83 -47 -73 -58 -83 -78 -79 -15 3
-22 10 -19 18 3 8 -1 14 -9 14 -7 0 -16 13 -20 29 -8 37 -30 58 -38 37 -3 -8
1 -17 9 -20 22 -8 17 -26 -8 -26 -14 0 -18 -3 -12 -8 7 -4 13 -16 15 -27 3
-11 9 -20 16 -20 6 0 15 -3 19 -7 4 -5 18 -8 32 -8 14 0 22 -5 19 -12 -4 -13
-17 -14 -74 -2 -27 5 -33 11 -36 38 -2 17 -4 -537 -5 -1232 l-2 -1262 6000 0
6000 0 0 1123 0 1124 -27 25 c-76 69 -263 283 -315 361 -15 22 -32 43 -36 46
-12 8 -26 43 -23 59 6 38 -24 83 -94 141 -84 70 -85 73 -135 281 -54 224 -124
344 -248 425 -37 24 -75 57 -85 74 -29 50 -78 80 -183 112 -55 17 -169 52
-255 80 -165 52 -194 56 -296 38 -87 -15 -181 9 -235 61 -82 80 -225 135 -403
155 -138 16 -223 8 -334 -30 -84 -28 -89 -26 -156 75 -54 79 -140 165 -205
202 -78 46 -153 61 -256 55 -144 -10 -322 27 -377 79 -24 22 -64 132 -74 204
-6 43 -74 241 -113 330 -16 36 -36 88 -45 115 -16 53 -68 138 -114 185 -14 16
-32 45 -40 66 -21 58 -75 137 -115 168 -57 43 -55 53 56 243 31 54 73 134 93
178 20 44 43 95 52 114 60 133 150 511 169 709 l7 72 36 0 c47 0 96 48 141
140 18 36 52 97 77 137 67 108 96 244 114 517 14 235 47 513 69 597 15 56 -7
115 -61 164 -37 33 -45 36 -95 34 -29 -2 -57 0 -61 4 -3 4 -1 7 5 7 6 0 9 7 6
15 -4 8 -2 15 4 15 20 0 24 57 6 85 -20 31 -14 41 16 25 20 -11 21 -9 17 17
-13 80 -21 110 -36 133 -15 23 -15 24 3 17 14 -5 17 -4 12 8 -3 8 0 15 6 15 7
0 9 15 5 45 -7 47 -8 49 -50 131 -27 51 -27 67 -1 57 18 -7 18 8 -1 43 -13 24
-13 29 -1 32 11 2 12 9 3 33 -10 24 -9 32 3 39 12 7 12 12 -3 28 -10 11 -19
32 -21 46 -1 14 -12 37 -24 49 -12 13 -22 35 -22 50 0 28 14 37 23 15 3 -7 6
-3 6 8 1 12 -6 27 -14 34 -10 9 -12 16 -5 25 6 8 6 15 -2 23 -9 9 -9 15 0 24
9 9 7 17 -11 36 -15 17 -18 26 -9 29 14 5 16 33 2 33 -5 0 -10 9 -10 20 0 11
-4 20 -10 20 -5 0 -10 5 -10 11 0 6 7 8 15 5 14 -5 14 -4 0 16 -8 13 -15 35
-15 50 0 15 -4 30 -10 33 -5 3 -10 16 -10 29 0 33 -23 74 -44 80 -16 4 -17 7
-6 20 10 13 10 16 -4 16 -13 0 -16 5 -11 22 6 17 4 20 -10 15 -11 -5 -15 -3
-12 5 2 8 16 12 32 10 26 -3 27 -2 14 15 -8 10 -18 21 -22 24 -4 3 -1 11 7 18
10 8 16 9 21 1 9 -15 25 -12 25 5 0 9 -9 15 -25 15 -16 0 -25 6 -25 15 0 8 -5
24 -12 34 -15 25 1 46 41 54 32 7 48 42 29 64 -8 10 -6 17 8 28 17 13 18 14 2
15 -10 0 -18 -4 -18 -10 0 -5 -4 -10 -10 -10 -5 0 -10 10 -10 23 0 13 -6 29
-12 35 -7 7 -13 20 -13 30 0 9 -7 17 -15 18 -27 1 -60 15 -60 26 0 6 -13 8
-30 6 -36 -5 -41 14 -7 30 l22 11 -25 2 c-14 2 -36 3 -50 4 -31 1 -43 44 -13
46 10 0 13 3 6 6 -7 2 -13 11 -13 19 0 11 -5 12 -17 6 -10 -5 -31 -12 -46 -16
l-29 -7 22 31 22 30 -24 29 -24 28 -34 -34 c-19 -18 -38 -33 -42 -33 -12 0 10
41 33 63 23 22 25 49 4 41 -8 -4 -15 -1 -15 6 0 7 -8 9 -20 5 -19 -6 -20 -3
-14 22 4 15 11 32 15 38 16 16 9 26 -10 15 -19 -10 -41 3 -28 17 3 3 0 11 -6
18 -10 11 -16 9 -36 -8 l-24 -22 5 28 c7 37 -7 43 -28 12 -9 -14 -20 -25 -25
-25 -14 0 -10 30 6 46 19 20 19 38 1 31 -10 -4 -13 -1 -10 7 3 8 1 17 -4 20
-6 3 -12 -1 -16 -9 -3 -8 -10 -15 -16 -15 -18 0 -11 36 13 63 43 50 66 82 61
87 -3 3 -24 -15 -46 -38 -27 -30 -46 -42 -59 -39 -10 3 -27 -2 -39 -10 -11 -8
-28 -12 -37 -9 -21 9 -15 13 52 40 31 13 55 27 55 31 -1 4 4 12 12 17 8 6 -2
8 -29 4 -26 -4 -43 -2 -43 4 0 5 -19 10 -41 10 -54 0 -109 33 -102 60 4 14 -1
21 -21 26 -29 7 -34 19 -11 28 31 11 16 28 -20 22 -28 -6 -35 -4 -35 9 0 8 5
15 11 15 5 0 7 5 4 10 -4 7 -16 1 -30 -14 -15 -16 -30 -23 -39 -20 -9 3 -16 1
-16 -5 0 -6 -5 -11 -11 -11 -6 0 -9 7 -5 15 9 23 -12 18 -38 -10 -19 -20 -30
-24 -53 -19 -27 5 -31 11 -37 50 -8 60 0 74 40 74 27 0 35 5 40 24 3 14 13 27
22 29 15 4 15 5 0 6 -10 0 -18 6 -18 11 0 12 -57 13 -64 1 -10 -15 -106 -42
-127 -36 -16 5 -20 3 -17 -10 2 -12 -5 -19 -21 -21 -13 -3 -29 -12 -36 -21 -8
-10 -14 -12 -19 -5 -3 6 -2 13 4 17 5 3 10 14 10 24 0 10 19 37 41 60 52 52
45 62 -12 19z m-495 -73 c3 -9 0 -15 -9 -15 -8 0 -15 7 -15 15 0 8 4 15 9 15
5 0 11 -7 15 -15z m-864 -15 c0 -5 -7 -10 -16 -10 -8 0 -12 5 -9 10 3 6 10 10
16 10 5 0 9 -4 9 -10z m490 0 c0 -5 -4 -10 -10 -10 -5 0 -10 5 -10 10 0 6 5
10 10 10 6 0 10 -4 10 -10z m810 -44 c0 -11 -19 -15 -25 -6 -3 5 1 10 9 10 9
0 16 -2 16 -4z m199 -23 c0 -5 -4 -17 -8 -28 -7 -17 -8 -17 -13 8 -4 19 -1 27
8 27 8 0 14 -3 13 -7z m-1112 -56 c-21 -38 -40 -57 -55 -57 -12 0 -9 7 10 28
14 15 28 35 31 45 4 10 11 16 17 12 6 -4 5 -14 -3 -28z m393 4 c0 -4 -8 -19
-18 -32 -10 -13 -24 -36 -31 -51 -8 -16 -16 -26 -18 -24 -3 2 3 18 11 35 9 16
16 36 16 44 0 14 19 37 32 37 4 0 8 -4 8 -9z m-296 -16 c-4 -8 -13 -15 -21
-15 -13 0 -13 3 -3 15 7 8 16 15 21 15 5 0 6 -7 3 -15z m502 -28 c-14 -19 -26
-40 -27 -48 0 -8 -5 1 -10 19 -11 36 1 56 37 64 28 6 28 3 0 -35z m160 8 c-9
-9 -16 -13 -16 -8 0 12 22 34 28 28 2 -2 -3 -11 -12 -20z m494 19 c0 -3 -7
-12 -15 -21 -20 -19 -32 -9 -15 12 12 15 30 20 30 9z m-1110 -11 c-1 -18 -18
-35 -24 -24 -4 6 -4 16 -1 21 7 12 25 13 25 3z m357 -50 c-9 -9 -19 -14 -23
-11 -10 10 6 28 24 28 15 0 15 -1 -1 -17z m233 9 c0 -13 -12 -22 -22 -16 -10
6 -1 24 13 24 5 0 9 -4 9 -8z m-929 -22 c9 0 3 -37 -6 -48 -9 -10 -45 12 -45
27 0 23 11 33 28 26 7 -3 18 -5 23 -5z m104 -11 c0 -10 -9 -13 -29 -11 -16 2
-33 -3 -37 -10 -7 -10 -9 -10 -9 0 0 6 -1 15 -2 19 -3 8 49 22 67 18 6 -1 10
-8 10 -16z m-180 1 c-3 -5 -10 -10 -16 -10 -5 0 -9 5 -9 10 0 6 7 10 16 10 8
0 12 -4 9 -10z m269 -15 c-4 -8 -10 -12 -15 -9 -14 8 -10 24 6 24 9 0 12 -6 9
-15z m476 -5 c0 -5 -5 -10 -11 -10 -5 0 -7 5 -4 10 3 6 8 10 11 10 2 0 4 -4 4
-10z m335 -27 l-28 -28 23 33 c12 18 24 31 27 28 3 -2 -7 -17 -22 -33z m-1321
-34 c-11 -18 -24 -8 -24 19 1 26 1 26 15 8 8 -10 12 -23 9 -27z m2006 32 c0
-5 -7 -12 -16 -15 -22 -9 -24 -8 -24 9 0 8 9 15 20 15 11 0 20 -4 20 -9z
m-1237 -21 c-3 -12 -8 -19 -11 -16 -5 6 5 36 12 36 2 0 2 -9 -1 -20z m73 -15
c-7 -18 -26 -20 -26 -2 0 18 24 41 28 27 2 -6 1 -17 -2 -25z m-1191 -25 c-23
-44 -30 -31 -9 16 9 22 18 34 21 27 2 -6 -3 -26 -12 -43z m176 -21 l-10 -24 0
26 c-1 14 2 29 6 33 12 12 14 -9 4 -35z m789 19 c0 -7 -4 -19 -9 -27 -11 -17
-25 3 -17 24 7 18 26 20 26 3z m171 -1 c-6 -8 -8 -17 -5 -20 4 -3 -6 -21 -21
-39 l-28 -33 7 30 c4 17 17 40 28 53 23 24 38 31 19 9z m176 -9 c-3 -8 -6 -5
-6 6 -1 11 2 17 5 13 3 -3 4 -12 1 -19z m1135 -14 c-13 -9 -26 -13 -30 -9 -8
8 17 25 38 25 9 0 6 -6 -8 -16z m-2506 -41 c-11 -11 -17 4 -9 23 7 18 8 18 11
1 2 -10 1 -21 -2 -24z m1112 -6 c-11 -37 -28 -50 -28 -21 0 14 32 65 37 60 1
-1 -3 -19 -9 -39z m1326 35 c8 -14 -11 -34 -29 -30 -25 4 -30 25 -8 31 29 7
32 7 37 -1z m-1551 -47 c-6 -28 -33 -56 -33 -33 0 12 27 58 34 58 2 0 1 -11
-1 -25z m1597 10 c-7 -8 -16 -15 -21 -15 -5 0 -9 7 -9 15 0 9 9 15 21 15 18 0
19 -2 9 -15z m-176 -10 c-6 -16 -24 -21 -24 -7 0 11 11 22 21 22 5 0 6 -7 3
-15z m-2878 -47 c10 -24 20 -46 22 -50 2 -5 0 -8 -5 -8 -5 0 -19 20 -31 45
-25 51 -26 55 -13 55 5 0 17 -19 27 -42z m1424 -17 c0 -5 -7 -12 -16 -15 -14
-5 -15 -4 -4 9 14 17 20 19 20 6z m-1260 -37 c0 -14 -4 -22 -10 -19 -5 3 -10
17 -10 31 0 14 4 22 10 19 6 -3 10 -17 10 -31z m1050 29 c0 -5 -4 -15 -10 -23
-11 -18 -25 -7 -17 15 6 15 27 21 27 8z m720 -42 c0 -6 -4 -13 -10 -16 -5 -3
-10 1 -10 9 0 9 5 16 10 16 6 0 10 -4 10 -9z m-830 -31 c0 -5 -5 -10 -11 -10
-5 0 -7 5 -4 10 3 6 8 10 11 10 2 0 4 -4 4 -10z m1200 0 c0 -13 -37 -50 -50
-50 -5 0 3 13 18 29 31 34 32 35 32 21z m-832 -34 c-7 -8 -15 -12 -17 -11 -5
6 10 25 20 25 5 0 4 -6 -3 -14z m-391 -28 c-3 -8 -6 -5 -6 6 -1 11 2 17 5 13
3 -3 4 -12 1 -19z m1498 -8 c-3 -5 -13 -10 -21 -10 -8 0 -12 5 -9 10 3 6 13
10 21 10 8 0 12 -4 9 -10z m-2950 -38 c-10 -2 -27 6 -39 18 l-21 21 39 -18
c27 -13 34 -19 21 -21z m2695 28 c0 -5 -5 -10 -11 -10 -5 0 -7 5 -4 10 3 6 8
10 11 10 2 0 4 -4 4 -10z m-2755 -44 c11 -2 29 -4 40 -5 14 -1 16 -4 8 -12 -6
-6 -17 -8 -24 -3 -16 9 -59 10 -83 1 -10 -4 -15 -3 -11 3 3 6 -3 10 -15 10
-13 0 -19 4 -14 11 6 10 29 9 99 -5z m1255 -106 c11 -11 20 -25 20 -32 0 -6
-6 -3 -14 8 -14 18 -15 18 -21 2 -9 -22 -41 -23 -49 -2 -9 23 -8 24 14 24 11
0 20 5 20 10 0 15 8 12 30 -10z m-140 -26 c14 -36 13 -39 -10 -19 -21 19 -27
45 -10 45 6 0 15 -12 20 -26z m-917 9 c-7 -2 -19 -2 -25 0 -7 3 -2 5 12 5 14
0 19 -2 13 -5z m3742 -3 c3 -5 -1 -10 -10 -10 -9 0 -13 5 -10 10 3 6 8 10 10
10 2 0 7 -4 10 -10z m-3455 -50 c0 -13 -20 -13 -40 0 -12 8 -9 10 13 10 15 0
27 -4 27 -10z m-387 -17 c-7 -2 -19 -2 -25 0 -7 3 -2 5 12 5 14 0 19 -2 13 -5z
m322 -33 c-3 -5 -11 -10 -16 -10 -6 0 -7 5 -4 10 3 6 11 10 16 10 6 0 7 -4 4
-10z m-505 -145 c0 -8 -7 -15 -16 -15 -14 0 -14 3 -4 15 7 8 14 15 16 15 2 0
4 -7 4 -15z m500 -35 c0 -5 -5 -10 -11 -10 -5 0 -7 5 -4 10 3 6 8 10 11 10 2
0 4 -4 4 -10z m-235 -40 c-3 -5 -11 -10 -16 -10 -6 0 -7 5 -4 10 3 6 11 10 16
10 6 0 7 -4 4 -10z m-70 -36 c-22 -7 -48 -13 -57 -13 -20 -1 -25 18 -5 20 6 1
22 3 35 4 12 1 25 5 28 8 3 3 13 3 22 -1 12 -4 6 -10 -23 -18z m2669 -46 c18
-26 15 -32 -13 -23 -12 3 -21 15 -21 26 0 25 15 24 34 -3z m-2869 -8 c-3 -5
-12 -10 -18 -10 -7 0 -6 4 3 10 19 12 23 12 15 0z m95 3 c-1 -11 -44 -41 -65
-45 -31 -5 -27 18 7 34 36 18 58 22 58 11z m218 -15 c-3 -7 -15 -15 -27 -16
-20 -3 -22 -2 -10 12 17 18 42 21 37 4z m-35 -55 c-7 -2 -19 -2 -25 0 -7 3 -2
5 12 5 14 0 19 -2 13 -5z m-265 -30 c-2 -10 -11 -19 -21 -21 -16 -3 -17 -1 -7
17 13 25 33 28 28 4z m209 11 c-3 -3 -12 -4 -19 -1 -8 3 -5 6 6 6 11 1 17 -2
13 -5z m113 -10 c0 -9 -28 -34 -38 -34 -5 0 -9 -8 -8 -17 0 -10 -5 -17 -12
-15 -7 1 -22 -7 -34 -18 -11 -10 -25 -17 -30 -14 -4 3 -11 -2 -14 -10 -3 -9
-14 -16 -24 -16 -10 0 -41 -16 -69 -35 -52 -36 -69 -35 -28 2 28 26 108 78
155 102 20 11 48 28 61 40 23 20 41 27 41 15z m-180 -13 c0 -5 -7 -12 -16 -15
-24 -9 -28 -7 -14 9 14 17 30 20 30 6z m2701 -494 c-10 -9 -11 -8 -5 6 3 10 9
15 12 12 3 -3 0 -11 -7 -18z m-13 -84 c-3 -19 -28 -31 -28 -13 0 6 5 8 12 4 8
-5 9 -2 5 9 -3 10 -2 17 4 17 6 0 9 -8 7 -17z m-11 -185 c-3 -8 -6 -5 -6 6 -1
11 2 17 5 13 3 -3 4 -12 1 -19z m97 -357 c3 -5 -2 -15 -12 -22 -15 -12 -16
-12 -5 2 7 9 10 19 6 22 -3 4 -4 7 0 7 3 0 8 -4 11 -9z m6 -221 c0 -5 -2 -10
-4 -10 -3 0 -8 5 -11 10 -3 6 -1 10 4 10 6 0 11 -4 11 -10z m185 -641 c-55
-11 -85 -11 -85 1 0 6 27 10 63 9 59 -1 60 -2 22 -10z m-7 -79 c11 -18 10 -20
-15 -20 -30 1 -67 23 -56 33 14 15 59 6 71 -13z m-708 -1172 c0 -5 -9 -4 -20
2 -21 11 -25 22 -13 34 8 7 33 -21 33 -36z m195 -444 c10 -35 14 -39 40 -37
26 2 25 1 -8 -9 -56 -15 -82 -5 -84 33 -3 34 13 62 30 56 6 -2 16 -21 22 -43z
m130 -85 c-4 -6 -13 -8 -19 -6 -7 3 -19 1 -27 -5 -11 -8 -10 -9 4 -4 18 6 21
-2 11 -28 -3 -8 -11 -13 -19 -10 -8 4 -12 -4 -12 -22 0 -14 -6 -30 -14 -34
-16 -10 -32 -3 -23 11 3 5 -2 23 -10 40 -16 33 -17 32 64 62 26 10 52 8 45 -4z
m-185 -183 c0 -3 -4 -8 -10 -11 -5 -3 -10 -1 -10 4 0 6 5 11 10 11 6 0 10 -2
10 -4z m-170 -196 c0 -5 -4 -10 -10 -10 -5 0 -10 5 -10 10 0 6 5 10 10 10 6 0
10 -4 10 -10z m77 -72 c-3 -8 -6 -5 -6 6 -1 11 2 17 5 13 3 -3 4 -12 1 -19z
m143 -88 c0 -5 -5 -10 -11 -10 -5 0 -7 5 -4 10 3 6 8 10 11 10 2 0 4 -4 4 -10z
m70 -106 c0 -8 -5 -12 -10 -9 -6 4 -8 11 -5 16 9 14 15 11 15 -7z m4 -73 c3
-5 -1 -14 -9 -21 -11 -9 -18 -9 -30 3 -13 14 -13 16 3 20 28 8 31 7 36 -2z
m-1733 -724 c-13 -13 -26 -3 -16 12 3 6 11 8 17 5 6 -4 6 -10 -1 -17z m189
-169 c0 -6 -6 -5 -15 2 -8 7 -15 14 -15 16 0 2 7 1 15 -2 8 -4 15 -11 15 -16z
m-124 -472 c10 -8 16 -18 12 -22 -9 -9 -98 16 -98 27 0 14 64 10 86 -5z m2367
-866 c30 0 20 -40 -34 -142 -5 -10 -9 -25 -9 -33 0 -9 -7 -18 -15 -21 -8 -4
-15 -17 -15 -30 0 -14 -6 -24 -15 -24 -8 0 -12 -6 -9 -13 2 -7 -7 -38 -21 -68
-13 -30 -25 -62 -25 -71 0 -10 -4 -18 -10 -18 -5 0 -10 -7 -10 -15 0 -8 -4
-15 -10 -15 -5 0 -10 -8 -10 -17 0 -10 -10 -34 -21 -53 -43 -70 -79 -141 -79
-155 0 -8 -4 -15 -9 -15 -5 0 -14 -23 -21 -50 -7 -28 -16 -53 -21 -56 -5 -3
-9 -12 -9 -20 0 -8 -15 -48 -34 -87 -19 -40 -37 -85 -41 -102 -4 -16 -12 -36
-18 -44 -7 -8 -13 -24 -14 -35 -1 -12 -13 -64 -26 -116 -45 -168 -46 -172 -66
-165 -16 5 -18 0 -17 -32 1 -31 -2 -38 -17 -37 -13 2 -16 -3 -12 -17 4 -11 -2
-26 -14 -38 -10 -10 -17 -22 -14 -24 2 -3 -7 -26 -22 -52 -14 -26 -24 -50 -21
-53 3 -2 0 -14 -7 -26 -19 -34 -37 -89 -37 -113 0 -13 -4 -23 -10 -23 -5 0
-10 -13 -10 -28 0 -31 -47 -132 -61 -132 -5 0 -9 -11 -9 -24 0 -30 -9 -36 -35
-25 -17 6 -17 8 -3 8 14 1 16 6 9 23 -5 13 -7 36 -5 51 2 17 -3 30 -12 34 -18
7 -18 22 3 64 l17 34 8 -40 c6 -26 5 -41 -2 -43 -12 -4 6 -42 21 -42 6 0 7 27
3 75 -6 65 -5 75 11 81 14 6 16 15 11 48 -3 28 -2 35 4 21 7 -16 9 -13 9 16 1
20 8 42 17 50 14 11 13 14 -10 26 -30 16 -36 65 -11 93 12 13 12 20 1 42 -9
16 -10 30 -5 35 6 6 4 15 -6 23 -8 7 -15 22 -16 34 0 13 -5 6 -13 -19 -13 -39
-13 -39 -20 -14 -4 15 -7 35 -6 45 4 34 0 44 -15 44 -19 0 -19 14 -1 30 8 6
12 18 10 25 -4 8 3 15 18 17 14 2 22 9 19 18 -8 33 -5 44 12 48 15 3 18 0 13
-16 -5 -15 -1 -22 16 -28 13 -4 26 -7 31 -6 4 1 7 -1 7 -6 0 -4 11 -8 25 -8
20 -2 25 2 20 16 -3 10 -8 35 -11 56 -2 21 -8 42 -13 47 -14 14 -33 -3 -28
-24 3 -12 0 -19 -9 -19 -10 0 -13 7 -9 23 5 18 1 26 -20 35 -14 7 -35 12 -47
12 -25 0 -47 27 -48 58 0 23 -14 30 -26 11 -4 -7 -10 -7 -16 -1 -9 9 3 79 24
135 9 22 8 31 -1 37 -10 6 -10 12 -2 29 13 24 36 29 27 5 -4 -12 -1 -14 13 -9
11 3 22 1 26 -5 3 -5 11 -10 17 -10 7 0 6 6 -2 15 -7 8 -9 15 -4 15 5 0 2 4
-6 10 -12 8 -12 10 3 16 14 5 12 9 -15 23 -21 10 -32 22 -30 34 4 22 -14 22
-28 0 -9 -16 -10 -15 -5 5 4 13 2 22 -4 22 -24 0 -9 19 17 22 25 3 27 6 25 43
-1 33 4 45 25 63 91 77 106 86 110 74 2 -6 8 -12 12 -12 12 0 3 44 -9 48 -20
7 23 72 47 72 13 0 22 40 16 67 -4 14 -2 23 5 23 6 0 11 -7 11 -15 0 -8 7 -15
16 -15 9 0 14 7 12 18 -1 10 7 28 18 40 18 19 22 21 27 8 4 -9 17 -16 29 -16
13 0 18 4 12 8 -12 8 -18 82 -7 82 4 0 18 3 31 6 13 4 22 3 21 -2 -4 -21 2
-25 19 -13 15 13 16 12 4 -2 -11 -14 -8 -21 18 -48 34 -33 53 -40 44 -16 -5
13 -2 14 21 5 35 -13 45 -13 45 3 0 21 58 17 63 -4 6 -23 27 -25 27 -4 0 8 5
15 10 15 15 0 50 -38 50 -55 0 -24 13 -17 37 21 12 19 20 42 17 52 -4 13 -4
14 4 4 7 -11 10 -11 15 2 4 9 2 16 -4 16 -7 0 3 31 15 46 1 0 -6 9 -14 19 -8
9 -13 30 -12 46 3 29 -12 41 -21 17 -8 -23 -18 -1 -12 25 8 29 67 60 100 52
11 -3 28 -5 38 -5z m-308 -160 c3 -5 1 -10 -4 -10 -6 0 -11 5 -11 10 0 6 2 10
4 10 3 0 8 -4 11 -10z m-30 -50 c-3 -5 -10 -10 -16 -10 -5 0 -9 5 -9 10 0 6 7
10 16 10 8 0 12 -4 9 -10z m178 3 c11 -10 -13 -32 -29 -26 -20 8 -17 33 4 33
10 0 22 -3 25 -7z m-563 -223 c0 -5 -2 -10 -4 -10 -3 0 -8 5 -11 10 -3 6 -1
10 4 10 6 0 11 -4 11 -10z m-150 -320 c0 -5 -2 -10 -4 -10 -3 0 -8 5 -11 10
-3 6 -1 10 4 10 6 0 11 -4 11 -10z m25 -20 c3 -5 1 -10 -4 -10 -6 0 -11 5 -11
10 0 6 2 10 4 10 3 0 8 -4 11 -10z m22 -12 c-3 -8 -6 -5 -6 6 -1 11 2 17 5 13
3 -3 4 -12 1 -19z m-50 -3 c0 -8 -6 -15 -14 -15 -7 0 -13 7 -13 15 0 8 6 15
13 15 8 0 14 -7 14 -15z m-972 -244 c-3 -2 -11 2 -20 9 -16 13 -19 37 -8 66 5
13 10 6 19 -27 7 -24 11 -45 9 -48z m960 -41 c3 -5 -1 -10 -10 -10 -9 0 -13 5
-10 10 3 6 8 10 10 10 2 0 7 -4 10 -10z m-3555 -10 c0 -5 -4 -10 -9 -10 -6 0
-13 5 -16 10 -3 6 1 10 9 10 9 0 16 -4 16 -10z m5 -41 c4 -6 5 -13 2 -15 -8
-8 -77 7 -77 17 0 13 67 11 75 -2z m-82 -129 c-3 -11 -7 -20 -9 -20 -2 0 -4 9
-4 20 0 11 4 20 9 20 5 0 7 -9 4 -20z m3667 -10 c0 -5 -5 -10 -11 -10 -5 0 -7
5 -4 10 3 6 8 10 11 10 2 0 4 -4 4 -10z m-3275 -20 c4 -6 -7 -10 -25 -10 -18
0 -29 4 -25 10 3 6 15 10 25 10 10 0 22 -4 25 -10z m-379 -15 c18 -14 18 -14
-7 -15 -15 0 -32 7 -39 15 -10 12 -9 15 7 15 10 0 28 -7 39 -15z m3669 -85 c3
-5 1 -10 -4 -10 -6 0 -11 5 -11 10 0 6 2 10 4 10 3 0 8 -4 11 -10z m47 -104
c1 -10 -2 -21 -8 -23 -13 -4 -23 25 -16 45 5 17 19 4 24 -22z m-3432 -36 c12
-8 9 -10 -12 -10 -15 0 -30 5 -33 10 -8 13 25 13 45 0z m1454 -52 c9 -35 7
-41 -9 -34 -13 5 -13 2 1 -25 18 -36 12 -49 -11 -25 -18 18 -55 22 -55 5 0 -5
-5 -7 -12 -3 -8 5 -4 13 13 27 13 11 24 25 24 31 0 13 26 45 36 46 4 0 9 -10
13 -22z m1910 6 c9 -3 16 -16 16 -27 0 -21 0 -21 -16 1 -10 15 -22 21 -34 17
-10 -3 -21 -1 -25 5 -7 11 33 14 59 4z m-1644 -146 c0 -4 10 -8 23 -8 17 0 19
-2 7 -10 -16 -10 -50 14 -50 35 0 14 -28 39 -55 49 -11 4 -16 4 -12 0 4 -4
-11 -16 -33 -26 -52 -24 -52 -44 1 -52 38 -6 40 -8 37 -38 -2 -22 -11 -36 -25
-44 -21 -10 -21 -12 -7 -33 9 -12 14 -25 10 -28 -12 -12 -53 8 -64 32 -13 27
-42 34 -42 10 0 -8 -7 -15 -15 -15 -18 0 -20 16 -4 26 8 5 8 9 -1 14 -9 6 -9
13 -1 28 16 30 14 42 -8 42 -32 0 -45 -25 -32 -61 6 -18 10 -34 8 -36 -2 -2
-39 6 -82 17 -43 11 -86 20 -97 20 -23 0 -23 9 -1 26 13 9 22 9 30 2 9 -7 13
-7 13 1 0 6 11 11 25 11 16 0 23 -4 19 -14 -3 -8 3 -16 15 -19 31 -8 35 10 6
29 -24 15 -24 17 -8 29 10 7 20 12 24 10 3 -2 5 9 4 24 -1 26 0 28 17 18 10
-7 18 -17 18 -24 0 -14 38 -28 48 -18 4 4 7 11 7 17 0 6 36 29 80 53 l80 43
33 -51 c17 -28 32 -55 32 -59z m-364 17 c-21 -16 -32 -13 -21 4 3 6 14 11 23
11 15 -1 15 -2 -2 -15z m474 6 c0 -10 -50 -25 -58 -17 -3 3 6 10 19 15 31 13
39 13 39 2z m1580 0 c0 -5 -7 -11 -15 -15 -15 -5 -20 5 -8 17 9 10 23 9 23 -2z
m-1652 -73 c57 -13 59 -41 2 -32 -33 5 -40 4 -40 -10 0 -11 9 -16 30 -16 30 0
42 -21 20 -35 -5 -3 -10 0 -10 8 0 14 -34 17 -46 4 -11 -10 16 -36 31 -31 13
5 31 -13 22 -23 -5 -4 -116 16 -126 23 -1 2 4 13 12 25 9 11 13 27 11 34 -3 6
2 17 10 24 8 7 12 21 8 33 -4 18 -2 20 14 13 10 -4 38 -12 62 -17z m1587 12
c3 -5 1 -10 -4 -10 -6 0 -11 5 -11 10 0 6 2 10 4 10 3 0 8 -4 11 -10z m-1464
-70 c-2 -14 -4 -30 -5 -37 -1 -7 -5 -16 -9 -19 -4 -4 -7 -16 -7 -26 0 -13 -7
-18 -25 -18 -30 0 -32 16 -9 84 13 39 20 47 38 44 16 -2 20 -9 17 -28z m-4991
-60 c0 -5 -4 -10 -10 -10 -5 0 -10 5 -10 10 0 6 5 10 10 10 6 0 10 -4 10 -10z
m8622 -642 c-7 -7 -12 -8 -12 -2 0 14 12 26 19 19 2 -3 -1 -11 -7 -17z m-222
-238 c6 -58 16 -109 21 -115 12 -12 12 -35 -1 -35 -17 0 -30 38 -40 117 -8 64
-5 152 5 141 1 -2 8 -50 15 -108z"/>
<path d="M6700 6060 c0 -5 5 -10 11 -10 5 0 7 5 4 10 -3 6 -8 10 -11 10 -2 0
-4 -4 -4 -10z"/>
<path d="M6971 2883 c-5 -10 -12 -17 -15 -15 -15 6 -14 0 1 -18 23 -27 29 -25
41 9 14 41 -7 59 -27 24z"/>
<path d="M6788 2738 c9 -9 15 -9 24 0 9 9 7 12 -12 12 -19 0 -21 -3 -12 -12z"/>
<path d="M6932 2679 c2 -7 10 -15 17 -17 8 -3 12 1 9 9 -2 7 -10 15 -17 17 -8
3 -12 -1 -9 -9z"/>
<path d="M6815 2649 c18 -7 18 -8 2 -8 -23 -1 -12 -21 11 -21 9 0 28 9 42 19
l24 19 -49 0 c-34 -1 -43 -4 -30 -9z"/>
<path d="M6690 2620 c0 -5 7 -10 15 -10 8 0 15 5 15 10 0 6 -7 10 -15 10 -8 0
-15 -4 -15 -10z"/>
<path d="M6656 2590 c-16 -5 -17 -8 -4 -12 16 -7 45 7 32 14 -5 3 -18 2 -28
-2z"/>
<path d="M6710 2579 c-12 -9 -11 -10 8 -6 29 7 29 -9 0 -16 -12 -4 -19 -9 -16
-13 12 -11 49 7 46 24 -4 20 -19 24 -38 11z"/>
<path d="M6801 2544 c0 -11 3 -14 6 -6 3 7 2 16 -1 19 -3 4 -6 -2 -5 -13z"/>
<path d="M6605 2520 c-3 -5 1 -10 10 -10 9 0 13 5 10 10 -3 6 -8 10 -10 10 -2
0 -7 -4 -10 -10z"/>
<path d="M6606 2474 c-19 -13 -19 -14 -2 -14 11 0 24 -7 31 -17 17 -23 45 -10
43 20 -2 18 -8 24 -28 25 -14 0 -34 -6 -44 -14z"/>
<path d="M6858 2126 c-37 -13 -38 -30 -2 -25 4 0 10 -5 15 -12 6 -11 9 -10 14
3 13 32 2 45 -27 34z"/>
<path d="M6690 2120 c-8 -5 -12 -11 -9 -14 3 -3 14 1 25 9 21 16 8 20 -16 5z"/>
<path d="M6751 2109 c15 -15 24 -18 32 -10 8 8 6 11 -6 11 -9 0 -17 5 -17 10
0 6 -7 10 -15 10 -11 0 -10 -5 6 -21z"/>
<path d="M6716 2102 c-3 -6 3 -12 15 -15 12 -3 19 -1 16 6 -5 15 -24 20 -31 9z"/>
<path d="M6820 2073 c0 -14 49 -69 50 -55 0 7 5 10 10 7 15 -9 12 14 -3 29
-16 17 -57 30 -57 19z"/>
<path d="M6777 1903 c-13 -12 -7 -33 8 -33 8 0 15 9 15 20 0 20 -11 26 -23 13z"/>
<path d="M6600 1859 c0 -5 5 -7 10 -4 6 3 10 8 10 11 0 2 -4 4 -10 4 -5 0 -10
-5 -10 -11z"/>
<path d="M6766 1848 c5 -8 0 -9 -15 -5 -33 8 -51 -2 -50 -27 1 -16 2 -17 6 -3
6 24 18 21 46 -13 15 -18 28 -26 32 -20 4 6 1 17 -5 25 -6 8 -9 23 -5 35 4 12
2 20 -5 20 -6 0 -8 -5 -4 -12z"/>
<path d="M6699 1681 c14 -11 24 -28 24 -44 0 -30 22 -37 29 -9 7 24 -20 57
-52 65 l-25 6 24 -18z"/>
<path d="M4710 1450 c-13 -8 -12 -10 3 -10 9 0 17 5 17 10 0 12 -1 12 -20 0z"/>
<path d="M4711 1393 c0 -6 -4 -20 -7 -30 -5 -14 -4 -15 5 -7 7 7 11 20 8 30
-3 11 -5 14 -6 7z"/>
<path d="M4758 1388 c-35 -12 -36 -26 -1 -39 35 -13 53 -5 52 23 0 22 -1 22
-8 3 -8 -20 -9 -20 -12 1 -3 18 -8 20 -31 12z"/>
<path d="M5110 10246 c0 -2 7 -7 16 -10 8 -3 12 -2 9 4 -6 10 -25 14 -25 6z"/>
<path d="M4925 10200 c3 -5 13 -10 21 -10 8 0 12 5 9 10 -3 6 -13 10 -21 10
-8 0 -12 -4 -9 -10z"/>
<path d="M5905 10180 c3 -5 12 -10 20 -10 8 0 17 5 20 10 4 6 -5 10 -20 10
-15 0 -24 -4 -20 -10z"/>
<path d="M4344 9672 c-18 -16 -111 -72 -121 -72 -2 0 -1 6 2 13 4 6 -2 2 -13
-10 -11 -13 -25 -23 -32 -23 -6 0 -10 -8 -8 -17 2 -12 -6 -19 -26 -23 -32 -5
-38 -21 -12 -30 13 -4 11 -10 -10 -38 -15 -18 -35 -32 -47 -32 -20 0 -20 -1
-5 -17 16 -15 21 -13 79 45 35 34 66 62 69 62 9 0 50 36 50 43 0 4 -8 4 -17 0
-15 -5 -14 -3 2 10 22 18 50 23 40 7 -3 -5 0 -7 9 -4 8 3 13 11 11 17 -3 7 16
24 41 39 25 16 42 32 39 38 -9 15 -29 12 -51 -8z"/>
<path d="M4282 9539 c-45 -33 -50 -39 -29 -39 14 1 81 59 75 66 -3 2 -23 -10
-46 -27z"/>
<path d="M4185 9468 c-27 -14 -85 -70 -85 -81 0 -4 4 -6 8 -3 4 2 9 -5 9 -16
2 -15 -3 -19 -18 -15 -27 7 -126 -97 -117 -123 2 -5 18 4 36 21 18 17 30 36
26 42 -3 7 1 4 9 -5 13 -16 17 -14 55 25 23 24 42 49 42 58 0 15 47 89 64 101
17 12 -7 9 -29 -4z"/>
<path d="M4010 9419 c0 -11 5 -17 10 -14 6 3 10 13 10 21 0 8 -4 14 -10 14 -5
0 -10 -9 -10 -21z"/>
<path d="M4115 9290 c-10 -11 -13 -20 -8 -20 13 0 38 29 31 35 -3 3 -13 -4
-23 -15z"/>
<path d="M6790 9088 c0 -25 3 -29 10 -18 13 20 13 50 0 50 -5 0 -10 -15 -10
-32z"/>
<path d="M3964 9095 c-14 -10 -16 -17 -8 -25 8 -8 8 -21 -1 -48 -16 -45 -11
-52 16 -23 21 22 35 96 20 105 -4 3 -17 -1 -27 -9z"/>
<path d="M4075 9089 c-4 -6 -5 -12 -2 -15 2 -3 7 2 10 11 7 17 1 20 -8 4z"/>
<path d="M3998 8990 c-21 -53 -22 -60 -8 -60 6 0 10 9 10 19 0 11 5 21 11 23
6 2 9 17 7 33 -3 29 -3 29 -20 -15z"/>
<path d="M6805 9020 c3 -5 13 -10 21 -10 8 0 12 5 9 10 -3 6 -13 10 -21 10 -8
0 -12 -4 -9 -10z"/>
<path d="M3940 8890 c-1 -3 -4 -18 -6 -35 -3 -25 -2 -27 7 -12 6 10 8 25 6 35
-3 9 -6 15 -7 12z"/>
<path d="M3899 8803 c-8 -9 -9 -14 -2 -10 6 4 13 1 16 -5 3 -7 4 -3 4 10 -1
26 -1 26 -18 5z"/>
<path d="M3886 8653 c-7 -16 -17 -43 -21 -60 -3 -18 -11 -35 -16 -38 -5 -4 -9
-15 -9 -26 0 -13 4 -18 11 -13 9 5 10 -1 5 -22 -7 -27 -7 -28 8 -9 16 22 30
17 20 -9 -3 -9 -13 -16 -21 -16 -10 0 -13 -6 -9 -16 3 -9 6 -22 6 -30 0 -8 6
-11 15 -8 11 5 15 -1 15 -21 0 -15 4 -24 10 -20 10 6 15 -9 10 -30 -1 -5 -4
-39 -5 -75 -1 -36 -4 -72 -6 -80 -3 -10 3 -14 15 -13 13 1 15 -2 7 -10 -6 -6
-11 -17 -11 -24 0 -10 5 -11 19 -3 29 15 30 13 20 -22 -10 -38 -3 -50 16 -25
8 12 15 14 20 8 3 -6 0 -11 -7 -11 -9 -1 -7 -5 4 -14 12 -9 14 -16 7 -23 -7
-7 -5 -12 6 -16 26 -11 42 38 23 71 -10 18 -14 48 -13 89 2 47 -1 60 -11 56
-9 -3 -11 2 -7 17 5 19 7 20 23 5 22 -20 30 -9 25 31 -2 16 -4 41 -4 56 -1 39
-27 26 -35 -17 -7 -34 -22 -53 -33 -41 -4 3 1 22 10 41 21 44 21 45 1 45 -13
0 -15 7 -9 41 7 38 6 41 -13 35 -18 -6 -19 -3 -12 32 4 21 10 44 14 50 14 23
-48 2 -65 -22 -4 -5 -5 13 -2 40 6 71 12 96 22 90 5 -3 11 3 14 14 8 31 -20
25 -37 -7z m44 -408 c0 -8 -4 -15 -10 -15 -5 0 -7 7 -4 15 4 8 8 15 10 15 2 0
4 -7 4 -15z"/>
<path d="M5373 8346 c-40 -8 -50 -14 -44 -24 5 -8 4 -24 -2 -36 -8 -17 -17
-21 -41 -18 -37 5 -58 20 -49 35 4 6 -11 0 -33 -13 -21 -13 -40 -27 -42 -32
-2 -4 -11 -5 -20 -2 -15 5 -15 4 0 -6 13 -8 23 -8 37 0 27 14 34 13 27 -6 -4
-11 1 -18 15 -21 21 -6 21 -6 -2 -19 -13 -7 -19 -13 -13 -14 6 0 21 -9 34 -20
13 -11 29 -20 37 -20 7 0 13 -9 13 -20 0 -11 4 -20 9 -20 5 0 13 -9 16 -20 4
-11 11 -18 16 -15 5 4 9 -1 9 -10 0 -9 -12 -18 -30 -21 -16 -4 -35 -13 -41
-20 -6 -8 -15 -11 -21 -8 -5 3 -14 1 -21 -4 -7 -6 -24 -13 -37 -15 -14 -2 -33
-7 -42 -11 -9 -4 -21 -5 -26 -2 -4 3 -15 -4 -22 -15 -8 -10 -22 -19 -32 -19
-10 0 -18 -4 -18 -8 0 -8 -96 -52 -114 -52 -13 0 -73 -66 -78 -87 -4 -13 2
-22 18 -30 14 -6 21 -7 18 -1 -9 14 27 37 61 38 17 0 43 7 59 15 31 16 60 20
52 7 -3 -5 1 -9 8 -9 7 0 13 7 12 15 0 8 12 19 28 25 34 11 48 -4 43 -46 -3
-26 -2 -26 18 -13 19 12 24 12 36 1 22 -22 111 -33 174 -22 31 5 59 6 63 3 10
-11 -20 -26 -48 -25 -40 2 -43 0 -29 -17 7 -8 21 -13 31 -11 10 3 21 1 24 -4
3 -5 14 -9 26 -9 14 0 18 -5 14 -16 -3 -9 -6 -18 -6 -20 0 -3 -4 -2 -10 1 -5
3 -10 0 -10 -7 0 -7 -15 -19 -32 -27 -78 -32 -94 -41 -116 -66 -19 -22 -20
-26 -7 -32 9 -3 33 -3 53 -1 20 3 46 2 56 -2 27 -9 307 64 322 84 6 9 17 16
23 16 35 0 63 73 37 94 -18 15 -28 46 -14 46 15 0 59 50 53 60 -3 4 14 17 38
28 56 26 65 39 79 105 11 50 10 58 -6 76 -23 25 -14 55 14 48 32 -8 76 40 82
91 7 49 4 52 -15 17 l-13 -26 -19 21 c-10 11 -15 23 -10 28 4 4 10 1 12 -5 4
-10 8 -9 19 1 21 21 17 46 -6 46 -11 0 -20 6 -20 14 0 8 -9 18 -21 21 -23 8
-20 31 5 27 9 -2 16 2 16 8 0 20 -41 10 -66 -17 -24 -25 -26 -26 -36 -10 -7
13 -16 16 -31 11 -73 -23 -127 -31 -137 -19 -7 8 -2 10 22 7 19 -3 29 -1 25 6
-10 15 -53 23 -79 13 -16 -6 -31 -4 -51 7 -21 13 -32 14 -45 6 -10 -7 -26 -8
-38 -3 -28 10 -97 8 -161 -5z m-123 -435 c0 -9 -24 -21 -41 -21 -5 0 -9 7 -9
15 0 9 9 15 25 15 14 0 25 -4 25 -9z"/>
<path d="M5285 8330 c4 -6 11 -8 16 -5 14 9 11 15 -7 15 -8 0 -12 -5 -9 -10z"/>
<path d="M3887 8323 c-4 -3 -7 -11 -7 -17 0 -6 5 -5 12 2 6 6 9 14 7 17 -3 3
-9 2 -12 -2z"/>
<path d="M5070 8219 c0 -5 9 -9 20 -9 11 0 20 2 20 4 0 2 -9 6 -20 9 -11 3
-20 1 -20 -4z"/>
<path d="M4040 8180 c0 -11 7 -20 15 -20 8 0 15 9 15 20 0 11 -7 20 -15 20 -8
0 -15 -9 -15 -20z"/>
<path d="M3805 8050 c-9 -15 6 -260 16 -260 4 0 9 -12 11 -27 2 -16 8 -28 13
-28 6 -1 20 -6 33 -13 19 -11 23 -10 28 5 3 10 11 28 17 41 6 12 11 64 11 114
l1 92 -41 43 c-40 41 -76 54 -89 33z"/>
<path d="M4090 7905 c0 -28 11 -65 19 -65 7 0 31 59 31 77 0 6 -11 10 -25 9
-18 -1 -25 -7 -25 -21z"/>
<path d="M5821 7711 c-7 -5 -9 -11 -5 -14 5 -3 15 1 22 9 14 16 5 18 -17 5z"/>
<path d="M4050 7460 c0 -5 5 -10 10 -10 6 0 10 5 10 10 0 6 -4 10 -10 10 -5 0
-10 -4 -10 -10z"/>
<path d="M4064 7435 c-4 -8 -3 -27 0 -41 6 -21 4 -25 -8 -21 -10 4 -15 -5 -18
-36 -2 -23 -1 -43 4 -45 4 -2 8 -12 8 -23 0 -36 19 -19 33 29 9 33 10 52 3 64
-7 12 -6 24 3 41 13 25 9 47 -10 47 -5 0 -12 -7 -15 -15z m6 -85 c0 -5 -4 -10
-10 -10 -5 0 -10 5 -10 10 0 6 5 10 10 10 6 0 10 -4 10 -10z"/>
<path d="M4010 7320 c0 -5 5 -10 11 -10 5 0 7 5 4 10 -3 6 -8 10 -11 10 -2 0
-4 -4 -4 -10z"/>
<path d="M5540 7024 c15 -17 30 -18 30 -1 0 7 -9 13 -21 14 -17 2 -18 -1 -9
-13z"/>
<path d="M5570 6995 c-7 -8 -26 -15 -43 -15 -38 0 -127 -56 -127 -80 0 -9 -15
-28 -34 -41 -21 -14 -37 -35 -40 -51 -3 -16 -17 -39 -31 -52 -14 -13 -25 -29
-25 -36 0 -6 -8 -25 -17 -41 -14 -24 -15 -32 -5 -38 9 -6 10 -15 3 -34 -12
-31 3 -46 18 -20 18 31 12 4 -8 -32 -10 -19 -20 -32 -23 -29 -3 2 -20 -25 -38
-61 -24 -48 -31 -74 -28 -98 3 -17 3 -52 -1 -77 -5 -36 -2 -49 12 -63 11 -11
17 -27 14 -38 -3 -10 1 -22 7 -27 7 -4 15 -14 18 -22 3 -8 4 37 2 100 -4 146
13 219 71 305 11 17 23 32 26 35 3 3 20 27 38 54 19 26 69 84 112 129 44 44
79 86 79 94 0 8 4 12 9 9 9 -6 53 46 77 90 24 42 -35 77 -66 39z"/>
<path d="M5987 6960 c-67 -24 -83 -41 -71 -79 l9 -29 100 30 c55 17 106 32
113 34 18 5 7 21 -26 38 -46 23 -75 24 -125 6z"/>
<path d="M6170 6759 c0 -5 5 -7 10 -4 6 3 10 8 10 11 0 2 -4 4 -10 4 -5 0 -10
-5 -10 -11z"/>
<path d="M4190 6675 c0 -8 -5 -15 -11 -15 -5 0 -8 -4 -5 -9 4 -5 0 -11 -6 -14
-7 -2 -10 -7 -7 -10 3 -4 15 0 27 9 22 15 31 54 12 54 -5 0 -10 -7 -10 -15z"/>
<path d="M5736 6112 c-2 -4 -1 -14 5 -22 7 -12 9 -10 9 8 0 23 -5 28 -14 14z"/>
<path d="M6591 5434 c0 -11 3 -14 6 -6 3 7 2 16 -1 19 -3 4 -6 -2 -5 -13z"/>
<path d="M6185 4900 c3 -5 8 -10 11 -10 2 0 4 5 4 10 0 6 -5 10 -11 10 -5 0
-7 -4 -4 -10z"/>
<path d="M5945 4460 c3 -5 10 -10 16 -10 5 0 9 5 9 10 0 6 -7 10 -16 10 -8 0
-12 -4 -9 -10z"/>
<path d="M11977 2403 c-13 -12 -7 -43 8 -43 9 0 15 9 15 25 0 24 -10 32 -23
18z"/>
</g>
</svg>
